rawline-900i.ufo
<glyph name="exclam" format="2">
  <advance width="675"/>
  <unicode hex="0021"/>
  <outline>
    <contour>
      <point x="143" y="614" type="line"/>
      <point x="324" y="1468" type="line"/>
      <point x="713" y="1468" type="line"/>
      <point x="532" y="614" type="line"/>
    </contour>
    <contour>
      <point x="12" y="0" type="line"/>
      <point x="92" y="377" type="line"/>
      <point x="481" y="377" type="line"/>
      <point x="401" y="0" type="line"/>
    </contour>
  </outline>
</glyph>
<glyph name="quotedbl" format="2">
  <advance width="966"/>
  <unicode hex="0022"/>
  <outline>
    <contour>
      <point x="188" y="1016" type="line"/>
      <point x="291" y="1495" type="line"/>
      <point x="618" y="1495" type="line"/>
      <point x="516" y="1016" type="line"/>
    </contour>
    <contour>
      <point x="614" y="1016" type="line"/>
      <point x="717" y="1495" type="line"/>
      <point x="1044" y="1495" type="line"/>
      <point x="942" y="1016" type="line"/>
    </contour>
  </outline>
</glyph>
<glyph name="numbersign" format="2">
  <advance width="1488"/>
  <unicode hex="0023"/>
  <outline>
    <contour>
      <point x="1458" y="813" type="line"/>
      <point x="1145" y="813" type="line"/>
      <point x="1073" y="635" type="line"/>
      <point x="1321" y="635" type="line"/>
      <point x="1260" y="348" type="line"/>
      <point x="942" y="348" type="line"/>
      <point x="788" y="0" type="line"/>
      <point x="481" y="0" type="line"/>
      <point x="635" y="348" type="line"/>
      <point x="539" y="348" type="line"/>
      <point x="387" y="0" type="line"/>
      <point x="78" y="0" type="line"/>
      <point x="231" y="348" type="line"/>
      <point x="14" y="348" type="line"/>
      <point x="76" y="635" type="line"/>
      <point x="362" y="635" type="line"/>
      <point x="434" y="813" type="line"/>
      <point x="213" y="813" type="line"/>
      <point x="270" y="1079" type="line"/>
      <point x="557" y="1079" type="line"/>
      <point x="723" y="1454" type="line"/>
      <point x="1032" y="1454" type="line"/>
      <point x="864" y="1079" type="line"/>
      <point x="961" y="1079" type="line"/>
      <point x="1126" y="1454" type="line"/>
      <point x="1436" y="1454" type="line"/>
      <point x="1266" y="1079" type="line"/>
      <point x="1516" y="1079" type="line"/>
    </contour>
    <contour>
      <point x="766" y="635" type="line"/>
      <point x="838" y="813" type="line"/>
      <point x="741" y="813" type="line"/>
      <point x="670" y="635" type="line"/>
    </contour>
  </outline>
</glyph>
<glyph name="dollar" format="2">
  <advance width="1290"/>
  <unicode hex="0024"/>
  <outline>
    <contour>
      <point x="846" y="895" type="line" smooth="yes"/>
      <point x="928" y="864"/>
      <point x="1036" y="807"/>
      <point x="1131" y="724"/>
      <point x="1176" y="611"/>
      <point x="1176" y="537" type="qcurve" smooth="yes"/>
      <point x="1176" y="425"/>
      <point x="1109" y="242"/>
      <point x="998" y="119"/>
      <point x="846" y="32"/>
      <point x="685" y="-10"/>
      <point x="598" y="-16" type="qcurve"/>
      <point x="547" y="-264" type="line"/>
      <point x="383" y="-264" type="line"/>
      <point x="436" y="-12" type="line"/>
      <point x="307" y="0"/>
      <point x="58" y="87"/>
      <point x="-33" y="152" type="qcurve"/>
      <point x="213" y="502" type="line"/>
      <point x="215" y="495"/>
      <point x="301" y="436"/>
      <point x="464" y="361"/>
      <point x="543" y="348" type="qcurve"/>
      <point x="580" y="524" type="line"/>
      <point x="538" y="538"/>
      <point x="459" y="567" type="qcurve" smooth="yes"/>
      <point x="321" y="622"/>
      <point x="190" y="774"/>
      <point x="190" y="889" type="qcurve" smooth="yes"/>
      <point x="190" y="1011"/>
      <point x="284" y="1221"/>
      <point x="443" y="1362"/>
      <point x="641" y="1450"/>
      <point x="750" y="1462" type="qcurve"/>
      <point x="795" y="1669" type="line"/>
      <point x="956" y="1669" type="line"/>
      <point x="911" y="1460" type="line"/>
      <point x="1095" y="1438"/>
      <point x="1315" y="1309" type="qcurve"/>
      <point x="1073" y="979" type="line"/>
      <point x="1071" y="984"/>
      <point x="1000" y="1031"/>
      <point x="868" y="1092"/>
      <point x="807" y="1104" type="qcurve"/>
      <point x="768" y="922" type="line"/>
    </contour>
    <contour>
      <point x="629" y="1026" type="qcurve" smooth="yes"/>
      <point x="629" y="988"/>
      <point x="674" y="963" type="qcurve"/>
      <point x="705" y="1110" type="line"/>
      <point x="629" y="1092"/>
    </contour>
    <contour>
      <point x="645" y="344" type="line"/>
      <point x="692" y="348"/>
      <point x="725" y="387"/>
      <point x="725" y="418" type="qcurve" smooth="yes"/>
      <point x="725" y="458"/>
      <point x="676" y="483" type="qcurve"/>
    </contour>
  </outline>
</glyph>
<glyph name="percent" format="2">
  <advance width="1689"/>
  <unicode hex="0025"/>
  <outline>
    <contour>
      <point x="139" y="133" type="line"/>
      <point x="829" y="786" type="line"/>
      <point x="1460" y="1477" type="line"/>
      <point x="1597" y="1323" type="line"/>
      <point x="936" y="690" type="line"/>
      <point x="276" y="-20" type="line"/>
    </contour>
    <contour>
      <point x="176" y="1098" type="qcurve" smooth="yes"/>
      <point x="176" y="1198"/>
      <point x="296" y="1373"/>
      <point x="493" y="1475"/>
      <point x="602" y="1475" type="qcurve" smooth="yes"/>
      <point x="729" y="1475"/>
      <point x="891" y="1320"/>
      <point x="891" y="1204" type="qcurve" smooth="yes"/>
      <point x="891" y="1104"/>
      <point x="771" y="929"/>
      <point x="574" y="827"/>
      <point x="465" y="827" type="qcurve" smooth="yes"/>
      <point x="337" y="827"/>
      <point x="176" y="982"/>
    </contour>
    <contour>
      <point x="625" y="1188" type="qcurve" smooth="yes"/>
      <point x="625" y="1231"/>
      <point x="590" y="1290"/>
      <point x="563" y="1290" type="qcurve" smooth="yes"/>
      <point x="520" y="1290"/>
      <point x="442" y="1181"/>
      <point x="442" y="1114" type="qcurve" smooth="yes"/>
      <point x="442" y="1071"/>
      <point x="477" y="1012"/>
      <point x="504" y="1012" type="qcurve" smooth="yes"/>
      <point x="547" y="1012"/>
      <point x="625" y="1121"/>
    </contour>
    <contour>
      <point x="846" y="250" type="qcurve" smooth="yes"/>
      <point x="846" y="350"/>
      <point x="966" y="525"/>
      <point x="1163" y="627"/>
      <point x="1272" y="627" type="qcurve" smooth="yes"/>
      <point x="1399" y="627"/>
      <point x="1561" y="472"/>
      <point x="1561" y="356" type="qcurve" smooth="yes"/>
      <point x="1561" y="256"/>
      <point x="1441" y="81"/>
      <point x="1244" y="-20"/>
      <point x="1135" y="-20" type="qcurve" smooth="yes"/>
      <point x="1006" y="-20"/>
      <point x="846" y="134"/>
    </contour>
    <contour>
      <point x="1292" y="340" type="qcurve" smooth="yes"/>
      <point x="1292" y="384"/>
      <point x="1260" y="442"/>
      <point x="1233" y="442" type="qcurve" smooth="yes"/>
      <point x="1190" y="442"/>
      <point x="1112" y="333"/>
      <point x="1112" y="266" type="qcurve" smooth="yes"/>
      <point x="1112" y="223"/>
      <point x="1147" y="164"/>
      <point x="1174" y="164" type="qcurve" smooth="yes"/>
      <point x="1216" y="164"/>
      <point x="1292" y="273"/>
    </contour>
  </outline>
</glyph>
<glyph name="ampersand" format="2">
  <advance width="1490"/>
  <unicode hex="0026"/>
  <outline>
    <contour>
      <point x="1391" y="588" type="line"/>
      <point x="1266" y="588" type="line"/>
      <point x="1208" y="458"/>
      <point x="1120" y="346" type="qcurve"/>
      <point x="1358" y="0" type="line"/>
      <point x="850" y="0" type="line"/>
      <point x="799" y="76" type="line"/>
      <point x="617" y="-20"/>
      <point x="430" y="-20" type="qcurve" smooth="yes"/>
      <point x="328" y="-20"/>
      <point x="168" y="44"/>
      <point x="73" y="152"/>
      <point x="25" y="285"/>
      <point x="25" y="360" type="qcurve" smooth="yes"/>
      <point x="25" y="433"/>
      <point x="70" y="558"/>
      <point x="160" y="660"/>
      <point x="259" y="738"/>
      <point x="330" y="780" type="qcurve"/>
      <point x="286" y="856"/>
      <point x="246" y="974"/>
      <point x="246" y="1038" type="qcurve" smooth="yes"/>
      <point x="246" y="1163"/>
      <point x="383" y="1365"/>
      <point x="603" y="1473"/>
      <point x="727" y="1473" type="qcurve" smooth="yes"/>
      <point x="796" y="1473"/>
      <point x="919" y="1436"/>
      <point x="1023" y="1361"/>
      <point x="1097" y="1238"/>
      <point x="1112" y="1157" type="qcurve"/>
      <point x="838" y="1055" type="line"/>
      <point x="824" y="1125"/>
      <point x="751" y="1192"/>
      <point x="707" y="1192" type="qcurve" smooth="yes"/>
      <point x="669" y="1192"/>
      <point x="608" y="1145"/>
      <point x="608" y="1104" type="qcurve" smooth="yes"/>
      <point x="608" y="1085"/>
      <point x="627" y="1046"/>
      <point x="654" y="1012"/>
      <point x="713" y="935"/>
      <point x="739" y="897" type="qcurve" smooth="yes"/>
      <point x="956" y="584" type="line"/>
      <point x="1018" y="704"/>
      <point x="1038" y="852" type="qcurve"/>
      <point x="1421" y="852" type="line"/>
    </contour>
    <contour>
      <point x="541" y="274" type="qcurve" smooth="yes"/>
      <point x="594" y="274"/>
      <point x="653" y="295" type="qcurve"/>
      <point x="492" y="537" type="line"/>
      <point x="443" y="505"/>
      <point x="403" y="441"/>
      <point x="403" y="399" type="qcurve" smooth="yes"/>
      <point x="403" y="337"/>
      <point x="479" y="274"/>
    </contour>
  </outline>
</glyph>
<glyph name="quotesingle" format="2">
  <advance width="540"/>
  <unicode hex="0027"/>
  <outline>
    <contour>
      <point x="188" y="1016" type="line"/>
      <point x="291" y="1495" type="line"/>
      <point x="618" y="1495" type="line"/>
      <point x="516" y="1016" type="line"/>
    </contour>
  </outline>
</glyph>
<glyph name="parenleft" format="2">
  <advance width="688"/>
  <unicode hex="0028"/>
  <outline>
    <contour>
      <point x="565" y="1581" type="qcurve"/>
      <point x="836" y="1462" type="line"/>
      <point x="618" y="1173"/>
      <point x="418" y="736"/>
      <point x="418" y="563" type="qcurve" smooth="yes"/>
      <point x="418" y="341"/>
      <point x="516" y="2" type="qcurve"/>
      <point x="203" y="-135" type="line"/>
      <point x="138" y="23"/>
      <point x="53" y="383"/>
      <point x="53" y="545" type="qcurve" smooth="yes"/>
      <point x="53" y="649"/>
      <point x="108" y="864"/>
      <point x="189" y="1045"/>
      <point x="337" y="1277"/>
      <point x="462" y="1448"/>
    </contour>
  </outline>
</glyph>
<glyph name="parenright" format="2">
  <advance width="686"/>
  <unicode hex="0029"/>
  <outline>
    <contour>
      <point x="164" y="-135" type="qcurve"/>
      <point x="-90" y="2" type="line"/>
      <point x="88" y="251"/>
      <point x="150" y="358" type="qcurve" smooth="yes"/>
      <point x="291" y="598"/>
      <point x="307" y="809" type="qcurve" smooth="yes"/>
      <point x="309" y="839"/>
      <point x="309" y="870" type="qcurve" smooth="yes"/>
      <point x="309" y="1028"/>
      <point x="242" y="1370"/>
      <point x="211" y="1462" type="qcurve"/>
      <point x="532" y="1581" type="line"/>
      <point x="674" y="1171"/>
      <point x="674" y="881" type="qcurve" smooth="yes"/>
      <point x="674" y="773"/>
      <point x="614" y="545"/>
      <point x="523" y="353"/>
      <point x="379" y="132"/>
      <point x="252" y="-31"/>
    </contour>
  </outline>
</glyph>
<glyph name="asterisk" format="2">
  <advance width="729"/>
  <unicode hex="002A"/>
  <outline>
    <contour>
      <point x="219" y="1022" type="line"/>
      <point x="348" y="1182" type="line"/>
      <point x="217" y="1225" type="line"/>
      <point x="299" y="1382" type="line"/>
      <point x="430" y="1309" type="line"/>
      <point x="453" y="1477" type="line"/>
      <point x="647" y="1477" type="line"/>
      <point x="598" y="1309" type="line"/>
      <point x="760" y="1382" type="line"/>
      <point x="774" y="1225" type="line"/>
      <point x="625" y="1182" type="line"/>
      <point x="688" y="1022" type="line"/>
      <point x="528" y="930" type="line"/>
      <point x="469" y="1100" type="line"/>
      <point x="340" y="930" type="line"/>
    </contour>
  </outline>
</glyph>
<glyph name="plus" format="2">
  <advance width="901"/>
  <unicode hex="002B"/>
  <outline>
    <contour>
      <point x="819" y="881" type="line"/>
      <point x="819" y="573" type="line"/>
      <point x="645" y="573" type="line"/>
      <point x="645" y="379" type="line"/>
      <point x="297" y="379" type="line"/>
      <point x="297" y="573" type="line"/>
      <point x="123" y="573" type="line"/>
      <point x="123" y="881" type="line"/>
      <point x="297" y="881" type="line"/>
      <point x="297" y="1075" type="line"/>
      <point x="645" y="1075" type="line"/>
      <point x="645" y="881" type="line"/>
    </contour>
  </outline>
</glyph>
<glyph name="comma" format="2">
  <advance width="524"/>
  <unicode hex="002C"/>
  <outline>
    <contour>
      <point x="-53" y="-322" type="line"/>
      <point x="88" y="0" type="line"/>
      <point x="-29" y="0" type="line"/>
      <point x="53" y="377" type="line"/>
      <point x="373" y="377" type="line"/>
      <point x="291" y="0" type="line"/>
      <point x="115" y="-322" type="line"/>
    </contour>
  </outline>
</glyph>
<glyph name="period" format="2">
  <advance width="520"/>
  <unicode hex="002E"/>
  <outline>
    <contour>
      <point x="-27" y="0" type="line"/>
      <point x="53" y="377" type="line"/>
      <point x="369" y="377" type="line"/>
      <point x="289" y="0" type="line"/>
    </contour>
  </outline>
</glyph>
<glyph name="zero" format="2">
  <advance width="1411"/>
  <unicode hex="0030"/>
  <outline>
    <contour>
      <point x="78" y="575" type="qcurve" smooth="yes"/>
      <point x="78" y="694"/>
      <point x="159" y="946"/>
      <point x="309" y="1170"/>
      <point x="505" y="1349"/>
      <point x="754" y="1454"/>
      <point x="883" y="1454" type="qcurve" smooth="yes"/>
      <point x="983" y="1454"/>
      <point x="1150" y="1382"/>
      <point x="1262" y="1264"/>
      <point x="1339" y="1106"/>
      <point x="1374" y="939"/>
      <point x="1374" y="852" type="qcurve" smooth="yes"/>
      <point x="1374" y="753"/>
      <point x="1316" y="545"/>
      <point x="1213" y="352"/>
      <point x="1064" y="181"/>
      <point x="889" y="54"/>
      <point x="677" y="-20"/>
      <point x="569" y="-20" type="qcurve" smooth="yes"/>
      <point x="469" y="-20"/>
      <point x="303" y="50"/>
      <point x="191" y="166"/>
      <point x="113" y="321"/>
      <point x="78" y="488"/>
    </contour>
    <contour>
      <point x="969" y="836" type="qcurve" smooth="yes"/>
      <point x="969" y="907"/>
      <point x="939" y="1021"/>
      <point x="865" y="1100"/>
      <point x="809" y="1100" type="qcurve" smooth="yes"/>
      <point x="747" y="1100"/>
      <point x="637" y="1024"/>
      <point x="563" y="906"/>
      <point x="508" y="761"/>
      <point x="483" y="623"/>
      <point x="483" y="565" type="qcurve" smooth="yes"/>
      <point x="483" y="462"/>
      <point x="561" y="334"/>
      <point x="645" y="334" type="qcurve" smooth="yes"/>
      <point x="706" y="334"/>
      <point x="814" y="403"/>
      <point x="889" y="512"/>
      <point x="943" y="646"/>
      <point x="969" y="779"/>
    </contour>
  </outline>
</glyph>
<glyph name="one" format="2">
  <advance width="1093"/>
  <unicode hex="0031"/>
  <outline>
    <contour>
      <point x="72" y="348" type="line"/>
      <point x="350" y="348" type="line"/>
      <point x="508" y="1090" type="line"/>
      <point x="461" y="1038"/>
      <point x="220" y="913"/>
      <point x="147" y="913" type="qcurve"/>
      <point x="223" y="1270" type="line"/>
      <point x="262" y="1270"/>
      <point x="365" y="1309"/>
      <point x="456" y="1363"/>
      <point x="537" y="1421"/>
      <point x="584" y="1461"/>
      <point x="586" y="1464" type="qcurve" smooth="yes"/>
      <point x="983" y="1464" type="line"/>
      <point x="748" y="348" type="line"/>
      <point x="993" y="348" type="line"/>
      <point x="920" y="0" type="line"/>
      <point x="-2" y="0" type="line"/>
    </contour>
  </outline>
</glyph>
<glyph name="two" format="2">
  <advance width="1257"/>
  <unicode hex="0032"/>
  <outline>
    <contour>
      <point x="432" y="696" type="qcurve" smooth="yes"/>
      <point x="486" y="720"/>
      <point x="547" y="749"/>
      <point x="635" y="795"/>
      <point x="685" y="831"/>
      <point x="744" y="882"/>
      <point x="774" y="932"/>
      <point x="795" y="996"/>
      <point x="795" y="1032" type="qcurve" smooth="yes"/>
      <point x="795" y="1081"/>
      <point x="743" y="1126"/>
      <point x="705" y="1126" type="qcurve" smooth="yes"/>
      <point x="638" y="1126"/>
      <point x="468" y="1041"/>
      <point x="395" y="979" type="qcurve"/>
      <point x="211" y="1239" type="line"/>
      <point x="319" y="1338"/>
      <point x="656" y="1470"/>
      <point x="834" y="1470" type="qcurve" smooth="yes"/>
      <point x="1034" y="1470"/>
      <point x="1249" y="1282"/>
      <point x="1249" y="1108" type="qcurve" smooth="yes"/>
      <point x="1249" y="1006"/>
      <point x="1210" y="856"/>
      <point x="1117" y="729"/>
      <point x="986" y="627"/>
      <point x="881" y="567" type="qcurve" smooth="yes"/>
      <point x="869" y="560"/>
      <point x="795" y="520"/>
      <point x="763" y="501"/>
      <point x="701" y="464"/>
      <point x="669" y="437"/>
      <point x="630" y="402"/>
      <point x="610" y="366"/>
      <point x="606" y="348" type="qcurve"/>
      <point x="1098" y="348" type="line"/>
      <point x="1024" y="0" type="line"/>
      <point x="-51" y="0" type="line"/>
      <point x="-25" y="125"/>
      <point x="22" y="285"/>
      <point x="93" y="443"/>
      <point x="191" y="552"/>
      <point x="332" y="652"/>
    </contour>
  </outline>
</glyph>
<glyph name="three" format="2">
  <advance width="1155"/>
  <unicode hex="0033"/>
  <outline>
    <contour>
      <point x="-14" y="219" type="qcurve"/>
      <point x="242" y="489" type="line"/>
      <point x="243" y="488"/>
      <point x="256" y="449"/>
      <point x="280" y="409"/>
      <point x="321" y="366"/>
      <point x="394" y="338"/>
      <point x="442" y="338" type="qcurve" smooth="yes"/>
      <point x="519" y="338"/>
      <point x="631" y="408"/>
      <point x="631" y="471" type="qcurve" smooth="yes"/>
      <point x="631" y="541"/>
      <point x="476" y="596"/>
      <point x="307" y="596" type="qcurve" smooth="yes"/>
      <point x="244" y="596" type="line"/>
      <point x="311" y="918" type="line"/>
      <point x="375" y="918" type="line" smooth="yes"/>
      <point x="445" y="918"/>
      <point x="565" y="934"/>
      <point x="665" y="968"/>
      <point x="723" y="1028"/>
      <point x="723" y="1067" type="qcurve" smooth="yes"/>
      <point x="723" y="1133"/>
      <point x="647" y="1133" type="qcurve" smooth="yes"/>
      <point x="497" y="1133"/>
      <point x="377" y="999" type="qcurve"/>
      <point x="193" y="1288" type="line"/>
      <point x="287" y="1375"/>
      <point x="585" y="1473"/>
      <point x="723" y="1473" type="qcurve" smooth="yes"/>
      <point x="915" y="1473"/>
      <point x="1151" y="1282"/>
      <point x="1151" y="1133" type="qcurve" smooth="yes"/>
      <point x="1151" y="1000"/>
      <point x="967" y="805"/>
      <point x="831" y="778" type="qcurve"/>
      <point x="927" y="761"/>
      <point x="1034" y="597"/>
      <point x="1034" y="477" type="qcurve" smooth="yes"/>
      <point x="1034" y="392"/>
      <point x="977" y="245"/>
      <point x="878" y="139"/>
      <point x="750" y="57"/>
      <point x="602" y="7"/>
      <point x="453" y="-18"/>
      <point x="379" y="-18" type="qcurve" smooth="yes"/>
      <point x="224" y="-18"/>
      <point x="30" y="97"/>
    </contour>
  </outline>
</glyph>
<glyph name="four" format="2">
  <advance width="1177"/>
  <unicode hex="0034"/>
  <outline>
    <contour>
      <point x="410" y="2" type="line"/>
      <point x="469" y="281" type="line"/>
      <point x="-16" y="281" type="line"/>
      <point x="57" y="629" type="line"/>
      <point x="842" y="1456" type="line"/>
      <point x="1108" y="1456" type="line"/>
      <point x="932" y="629" type="line"/>
      <point x="1104" y="629" type="line"/>
      <point x="1030" y="281" type="line"/>
      <point x="858" y="281" type="line"/>
      <point x="799" y="2" type="line"/>
    </contour>
    <contour>
      <point x="588" y="629" type="line"/>
      <point x="641" y="874" type="line"/>
      <point x="440" y="629" type="line"/>
    </contour>
  </outline>
</glyph>
<glyph name="five" format="2">
  <advance width="1140"/>
  <unicode hex="0035"/>
  <outline>
    <contour>
      <point x="1063" y="1102" type="line"/>
      <point x="649" y="1102" type="line"/>
      <point x="600" y="946" type="line"/>
      <point x="624" y="954"/>
      <point x="676" y="954" type="qcurve" smooth="yes"/>
      <point x="846" y="954"/>
      <point x="1049" y="747"/>
      <point x="1049" y="578" type="qcurve" smooth="yes"/>
      <point x="1049" y="410"/>
      <point x="874" y="136"/>
      <point x="571" y="-18"/>
      <point x="389" y="-18" type="qcurve" smooth="yes"/>
      <point x="236" y="-18"/>
      <point x="18" y="103"/>
      <point x="-25" y="211" type="qcurve"/>
      <point x="240" y="457" type="line"/>
      <point x="281" y="394"/>
      <point x="401" y="322"/>
      <point x="463" y="322" type="qcurve" smooth="yes"/>
      <point x="542" y="322"/>
      <point x="639" y="428"/>
      <point x="639" y="512" type="qcurve" smooth="yes"/>
      <point x="639" y="562"/>
      <point x="590" y="623"/>
      <point x="547" y="623" type="qcurve" smooth="yes"/>
      <point x="511" y="623"/>
      <point x="442" y="584"/>
      <point x="420" y="551" type="qcurve"/>
      <point x="88" y="551" type="line"/>
      <point x="145" y="691"/>
      <point x="378" y="1297"/>
      <point x="444" y="1456" type="qcurve"/>
      <point x="1139" y="1456" type="line"/>
    </contour>
  </outline>
</glyph>
<glyph name="six" format="2">
  <advance width="1214"/>
  <unicode hex="0036"/>
  <outline>
    <contour>
      <point x="1120" y="578" type="qcurve" smooth="yes"/>
      <point x="1120" y="749"/>
      <point x="902" y="969"/>
      <point x="723" y="969" type="qcurve" smooth="yes"/>
      <point x="600" y="969"/>
      <point x="512" y="899" type="qcurve"/>
      <point x="540" y="1008"/>
      <point x="669" y="1130"/>
      <point x="758" y="1130" type="qcurve" smooth="yes"/>
      <point x="886" y="1130"/>
      <point x="967" y="1020" type="qcurve"/>
      <point x="1235" y="1270" type="line"/>
      <point x="1086" y="1466"/>
      <point x="836" y="1466" type="qcurve" smooth="yes"/>
      <point x="616" y="1466"/>
      <point x="269" y="1205"/>
      <point x="80" y="756"/>
      <point x="80" y="479" type="qcurve" smooth="yes"/>
      <point x="80" y="243"/>
      <point x="285" y="-20"/>
      <point x="479" y="-20" type="qcurve" smooth="yes"/>
      <point x="603" y="-20"/>
      <point x="839" y="77"/>
      <point x="1014" y="238"/>
      <point x="1120" y="460"/>
    </contour>
    <contour>
      <point x="434" y="455" type="qcurve" smooth="yes"/>
      <point x="434" y="540"/>
      <point x="551" y="664"/>
      <point x="625" y="664" type="qcurve" smooth="yes"/>
      <point x="677" y="664"/>
      <point x="741" y="585"/>
      <point x="741" y="526" type="qcurve" smooth="yes"/>
      <point x="741" y="442"/>
      <point x="618" y="305"/>
      <point x="549" y="305" type="qcurve" smooth="yes"/>
      <point x="499" y="305"/>
      <point x="434" y="392"/>
    </contour>
  </outline>
</glyph>
<glyph name="seven" format="2">
  <advance width="1198"/>
  <unicode hex="0037"/>
  <outline>
    <contour>
      <point x="690" y="1102" type="line"/>
      <point x="180" y="1102" type="line"/>
      <point x="256" y="1456" type="line"/>
      <point x="1378" y="1456" type="line"/>
      <point x="395" y="2" type="line"/>
      <point x="-45" y="2" type="line"/>
    </contour>
  </outline>
</glyph>
<glyph name="eight" format="2">
  <advance width="1210"/>
  <unicode hex="0038"/>
  <outline>
    <contour>
      <point x="469" y="-20" type="qcurve" smooth="yes"/>
      <point x="283" y="-20"/>
      <point x="35" y="200"/>
      <point x="35" y="381" type="qcurve" smooth="yes"/>
      <point x="35" y="608"/>
      <point x="270" y="776" type="qcurve"/>
      <point x="236" y="803"/>
      <point x="197" y="912"/>
      <point x="197" y="971" type="qcurve" smooth="yes"/>
      <point x="197" y="1059"/>
      <point x="272" y="1217"/>
      <point x="395" y="1330"/>
      <point x="549" y="1413"/>
      <point x="708" y="1454"/>
      <point x="780" y="1454" type="qcurve" smooth="yes"/>
      <point x="854" y="1454"/>
      <point x="997" y="1407"/>
      <point x="1115" y="1319"/>
      <point x="1188" y="1179"/>
      <point x="1188" y="1094" type="qcurve" smooth="yes"/>
      <point x="1188" y="999"/>
      <point x="1077" y="818"/>
      <point x="1004" y="776" type="qcurve"/>
      <point x="1045" y="733"/>
      <point x="1102" y="601"/>
      <point x="1102" y="520" type="qcurve" smooth="yes"/>
      <point x="1102" y="369"/>
      <point x="922" y="118"/>
      <point x="633" y="-20"/>
    </contour>
    <contour>
      <point x="664" y="905" type="qcurve" smooth="yes"/>
      <point x="709" y="905"/>
      <point x="784" y="974"/>
      <point x="784" y="1032" type="qcurve" smooth="yes"/>
      <point x="784" y="1067"/>
      <point x="745" y="1112"/>
      <point x="709" y="1112" type="qcurve" smooth="yes"/>
      <point x="660" y="1112"/>
      <point x="592" y="1038"/>
      <point x="592" y="987" type="qcurve" smooth="yes"/>
      <point x="592" y="948"/>
      <point x="634" y="905"/>
    </contour>
    <contour>
      <point x="604" y="616" type="qcurve" smooth="yes"/>
      <point x="534" y="616"/>
      <point x="440" y="518"/>
      <point x="440" y="446" type="qcurve" smooth="yes"/>
      <point x="440" y="398"/>
      <point x="497" y="334"/>
      <point x="543" y="334" type="qcurve" smooth="yes"/>
      <point x="611" y="334"/>
      <point x="707" y="437"/>
      <point x="707" y="508" type="qcurve" smooth="yes"/>
      <point x="707" y="560"/>
      <point x="654" y="616"/>
    </contour>
  </outline>
</glyph>
<glyph name="nine" format="2">
  <advance width="1214"/>
  <unicode hex="0039"/>
  <outline>
    <contour>
      <point x="537" y="477" type="qcurve" smooth="yes"/>
      <point x="660" y="477"/>
      <point x="748" y="547" type="qcurve"/>
      <point x="720" y="438"/>
      <point x="591" y="315"/>
      <point x="504" y="315" type="qcurve" smooth="yes"/>
      <point x="375" y="315"/>
      <point x="293" y="426" type="qcurve"/>
      <point x="25" y="176" type="line"/>
      <point x="177" y="-20"/>
      <point x="426" y="-20" type="qcurve" smooth="yes"/>
      <point x="645" y="-20"/>
      <point x="991" y="241"/>
      <point x="1180" y="690"/>
      <point x="1180" y="967" type="qcurve" smooth="yes"/>
      <point x="1180" y="1203"/>
      <point x="974" y="1466"/>
      <point x="780" y="1466" type="qcurve" smooth="yes"/>
      <point x="656" y="1466"/>
      <point x="420" y="1369"/>
      <point x="245" y="1208"/>
      <point x="139" y="986"/>
      <point x="139" y="868" type="qcurve" smooth="yes"/>
      <point x="139" y="697"/>
      <point x="358" y="477"/>
    </contour>
    <contour>
      <point x="825" y="991" type="qcurve" smooth="yes"/>
      <point x="825" y="906"/>
      <point x="708" y="782"/>
      <point x="635" y="782" type="qcurve" smooth="yes"/>
      <point x="583" y="782"/>
      <point x="518" y="861"/>
      <point x="518" y="920" type="qcurve" smooth="yes"/>
      <point x="518" y="1004"/>
      <point x="642" y="1141"/>
      <point x="711" y="1141" type="qcurve" smooth="yes"/>
      <point x="761" y="1141"/>
      <point x="825" y="1054"/>
    </contour>
  </outline>
</glyph>
<glyph name="colon" format="2">
  <advance width="612"/>
  <unicode hex="003A"/>
  <outline>
    <contour>
      <point x="164" y="686" type="line"/>
      <point x="244" y="1063" type="line"/>
      <point x="559" y="1063" type="line"/>
      <point x="479" y="686" type="line"/>
    </contour>
    <contour>
      <point x="18" y="0" type="line"/>
      <point x="98" y="377" type="line"/>
      <point x="414" y="377" type="line"/>
      <point x="334" y="0" type="line"/>
    </contour>
  </outline>
</glyph>
<glyph name="semicolon" format="2">
  <advance width="616"/>
  <unicode hex="003B"/>
  <outline>
    <contour>
      <point x="166" y="686" type="line"/>
      <point x="246" y="1063" type="line"/>
      <point x="561" y="1063" type="line"/>
      <point x="481" y="686" type="line"/>
    </contour>
    <contour>
      <point x="-10" y="-322" type="line"/>
      <point x="131" y="0" type="line"/>
      <point x="14" y="0" type="line"/>
      <point x="96" y="377" type="line"/>
      <point x="416" y="377" type="line"/>
      <point x="334" y="0" type="line"/>
      <point x="158" y="-322" type="line"/>
    </contour>
  </outline>
</glyph>
<glyph name="less" format="2">
  <advance width="1134"/>
  <unicode hex="003C"/>
  <outline>
    <contour>
      <point x="57" y="610" type="line"/>
      <point x="926" y="1139" type="line"/>
      <point x="926" y="725" type="line"/>
      <point x="623" y="530" type="line"/>
      <point x="926" y="352" type="line"/>
      <point x="926" y="-82" type="line"/>
      <point x="57" y="430" type="line"/>
    </contour>
  </outline>
</glyph>
<glyph name="equal" format="2">
  <advance width="1007"/>
  <unicode hex="003D"/>
  <outline>
    <contour>
      <point x="160" y="678" type="line"/>
      <point x="160" y="924" type="line"/>
      <point x="821" y="924" type="line"/>
      <point x="821" y="678" type="line"/>
    </contour>
    <contour>
      <point x="160" y="207" type="line"/>
      <point x="160" y="453" type="line"/>
      <point x="821" y="453" type="line"/>
      <point x="821" y="207" type="line"/>
    </contour>
  </outline>
</glyph>
<glyph name="greater" format="2">
  <advance width="1136"/>
  <unicode hex="003E"/>
  <outline>
    <contour>
      <point x="1038" y="430" type="line"/>
      <point x="170" y="-82" type="line"/>
      <point x="170" y="352" type="line"/>
      <point x="473" y="530" type="line"/>
      <point x="170" y="725" type="line"/>
      <point x="170" y="1139" type="line"/>
      <point x="1038" y="610" type="line"/>
    </contour>
  </outline>
</glyph>
<glyph name="question" format="2">
  <advance width="987"/>
  <unicode hex="003F"/>
  <outline>
    <contour>
      <point x="166" y="530" type="line"/>
      <point x="177" y="582"/>
      <point x="200" y="651"/>
      <point x="246" y="734"/>
      <point x="325" y="802"/>
      <point x="383" y="831" type="qcurve" smooth="yes"/>
      <point x="544" y="909"/>
      <point x="670" y="1014"/>
      <point x="670" y="1075" type="qcurve" smooth="yes"/>
      <point x="670" y="1113"/>
      <point x="621" y="1159"/>
      <point x="584" y="1159" type="qcurve" smooth="yes"/>
      <point x="553" y="1159"/>
      <point x="494" y="1127"/>
      <point x="464" y="1097"/>
      <point x="416" y="1037"/>
      <point x="412" y="1032" type="qcurve"/>
      <point x="201" y="1208" type="line"/>
      <point x="276" y="1332"/>
      <point x="524" y="1473"/>
      <point x="666" y="1473" type="qcurve" smooth="yes"/>
      <point x="734" y="1473"/>
      <point x="856" y="1436"/>
      <point x="958" y="1361"/>
      <point x="1018" y="1231"/>
      <point x="1018" y="1145" type="qcurve" smooth="yes"/>
      <point x="1018" y="991"/>
      <point x="899" y="802"/>
      <point x="788" y="733" type="qcurve" smooth="yes"/>
      <point x="744" y="705"/>
      <point x="578" y="631"/>
      <point x="491" y="570"/>
      <point x="483" y="530" type="qcurve"/>
    </contour>
    <contour>
      <point x="59" y="0" type="line"/>
      <point x="131" y="336" type="line"/>
      <point x="449" y="336" type="line"/>
      <point x="377" y="0" type="line"/>
    </contour>
  </outline>
</glyph>
<glyph name="at" format="2">
  <advance width="1679"/>
  <unicode hex="0040"/>
  <outline>
    <contour>
      <point x="1425" y="596" type="qcurve" smooth="yes"/>
      <point x="1425" y="824"/>
      <point x="1152" y="1092"/>
      <point x="920" y="1092" type="qcurve" smooth="yes"/>
      <point x="769" y="1092"/>
      <point x="497" y="973"/>
      <point x="301" y="771"/>
      <point x="186" y="491"/>
      <point x="186" y="336" type="qcurve" smooth="yes"/>
      <point x="186" y="106"/>
      <point x="429" y="-156"/>
      <point x="641" y="-156" type="qcurve" smooth="yes"/>
      <point x="777" y="-156"/>
      <point x="954" y="-78" type="qcurve"/>
      <point x="969" y="-217" type="line"/>
      <point x="791" y="-299"/>
      <point x="612" y="-299" type="qcurve" smooth="yes"/>
      <point x="347" y="-299"/>
      <point x="33" y="35"/>
      <point x="33" y="317" type="qcurve" smooth="yes"/>
      <point x="33" y="505"/>
      <point x="179" y="845"/>
      <point x="426" y="1090"/>
      <point x="768" y="1235"/>
      <point x="956" y="1235" type="qcurve" smooth="yes"/>
      <point x="1241" y="1235"/>
      <point x="1579" y="918"/>
      <point x="1579" y="637" type="qcurve" smooth="yes"/>
      <point x="1579" y="469"/>
      <point x="1462" y="162"/>
      <point x="1251" y="-33"/>
      <point x="1126" y="-33" type="qcurve" smooth="yes"/>
      <point x="1051" y="-33"/>
      <point x="961" y="38"/>
      <point x="961" y="100" type="qcurve" smooth="yes"/>
      <point x="961" y="119"/>
      <point x="963" y="123" type="qcurve"/>
      <point x="804" y="-12"/>
      <point x="502" y="-12"/>
      <point x="322" y="195"/>
      <point x="322" y="365" type="qcurve" smooth="yes"/>
      <point x="322" y="519"/>
      <point x="469" y="794"/>
      <point x="710" y="958"/>
      <point x="844" y="958" type="qcurve" smooth="yes"/>
      <point x="938" y="958"/>
      <point x="1063" y="876"/>
      <point x="1077" y="807" type="qcurve"/>
      <point x="1098" y="922" type="line"/>
      <point x="1268" y="922" type="line"/>
      <point x="1147" y="276" type="line" smooth="yes"/>
      <point x="1139" y="236"/>
      <point x="1139" y="209" type="qcurve" smooth="yes"/>
      <point x="1139" y="173"/>
      <point x="1174" y="131"/>
      <point x="1204" y="131" type="qcurve" smooth="yes"/>
      <point x="1258" y="131"/>
      <point x="1361" y="268"/>
      <point x="1425" y="485"/>
    </contour>
    <contour>
      <point x="948" y="346" type="qcurve"/>
      <point x="981" y="582" type="line"/>
      <point x="976" y="650"/>
      <point x="893" y="743"/>
      <point x="825" y="743" type="qcurve" smooth="yes"/>
      <point x="720" y="743"/>
      <point x="545" y="529"/>
      <point x="545" y="381" type="qcurve" smooth="yes"/>
      <point x="545" y="286"/>
      <point x="631" y="168"/>
      <point x="725" y="168" type="qcurve" smooth="yes"/>
      <point x="804" y="168"/>
      <point x="910" y="256"/>
    </contour>
  </outline>
</glyph>
<glyph name="B" format="2">
  <advance width="1366"/>
  <unicode hex="0042"/>
  <outline>
    <contour>
      <point x="303" y="1454" type="line"/>
      <point x="1116" y="1454" type="line" smooth="yes"/>
      <point x="1232" y="1454"/>
      <point x="1362" y="1278"/>
      <point x="1362" y="1155" type="qcurve" smooth="yes"/>
      <point x="1362" y="1029"/>
      <point x="1211" y="799"/>
      <point x="1081" y="745" type="qcurve"/>
      <point x="1172" y="715"/>
      <point x="1272" y="570"/>
      <point x="1272" y="461" type="qcurve" smooth="yes"/>
      <point x="1272" y="366"/>
      <point x="1208" y="210"/>
      <point x="1097" y="105"/>
      <point x="945" y="33"/>
      <point x="772" y="0"/>
      <point x="676" y="0" type="qcurve" smooth="yes"/>
      <point x="-6" y="0" type="line"/>
    </contour>
    <contour>
      <point x="823" y="891" type="line" smooth="yes"/>
      <point x="871" y="891"/>
      <point x="944" y="959"/>
      <point x="944" y="1036" type="qcurve" smooth="yes"/>
      <point x="944" y="1114"/>
      <point x="883" y="1114" type="qcurve" smooth="yes"/>
      <point x="631" y="1114" type="line"/>
      <point x="582" y="891" type="line"/>
    </contour>
    <contour>
      <point x="748" y="336" type="line" smooth="yes"/>
      <point x="800" y="336"/>
      <point x="877" y="419"/>
      <point x="877" y="487" type="qcurve" smooth="yes"/>
      <point x="877" y="528"/>
      <point x="841" y="580"/>
      <point x="811" y="580" type="qcurve" smooth="yes"/>
      <point x="516" y="580" type="line"/>
      <point x="465" y="336" type="line"/>
    </contour>
  </outline>
</glyph>
<glyph name="C" format="2">
  <advance width="1359"/>
  <unicode hex="0043"/>
  <anchor x="0" y="0" name="Anchor-11"/>
  <anchor x="0" y="0" name="Anchor-10"/>
  <anchor x="874" y="1454" name="Anchor-9"/>
  <anchor x="0" y="0" name="Anchor-8"/>
  <anchor x="565" y="0" name="Anchor-7"/>
  <outline>
    <contour>
      <point x="57" y="610" type="qcurve" smooth="yes"/>
      <point x="57" y="730"/>
      <point x="142" y="976"/>
      <point x="302" y="1193"/>
      <point x="515" y="1363"/>
      <point x="791" y="1462"/>
      <point x="938" y="1462" type="qcurve" smooth="yes"/>
      <point x="1134" y="1462"/>
      <point x="1400" y="1290"/>
      <point x="1442" y="1145" type="qcurve"/>
      <point x="1092" y="928" type="line"/>
      <point x="1085" y="978"/>
      <point x="1037" y="1052"/>
      <point x="968" y="1091"/>
      <point x="895" y="1108"/>
      <point x="854" y="1108" type="qcurve" smooth="yes"/>
      <point x="781" y="1108"/>
      <point x="653" y="1049"/>
      <point x="563" y="952"/>
      <point x="497" y="829"/>
      <point x="465" y="699"/>
      <point x="465" y="637" type="qcurve" smooth="yes"/>
      <point x="465" y="510"/>
      <point x="584" y="342"/>
      <point x="696" y="342" type="qcurve" smooth="yes"/>
      <point x="780" y="342"/>
      <point x="946" y="429"/>
      <point x="995" y="520" type="qcurve"/>
      <point x="1280" y="326" type="line"/>
      <point x="1219" y="223"/>
      <point x="990" y="65"/>
      <point x="734" y="-12"/>
      <point x="612" y="-12" type="qcurve" smooth="yes"/>
      <point x="484" y="-12"/>
      <point x="271" y="92"/>
      <point x="133" y="267"/>
      <point x="57" y="489"/>
    </contour>
  </outline>
</glyph>
<glyph name="D" format="2">
  <advance width="1419"/>
  <unicode hex="0044"/>
  <anchor x="0" y="0" name="Anchor-11"/>
  <anchor x="690" y="727" name="Anchor-10"/>
  <anchor x="844" y="1454" name="Anchor-9"/>
  <anchor x="0" y="0" name="Anchor-8"/>
  <anchor x="535" y="0" name="Anchor-7"/>
  <outline>
    <contour>
      <point x="303" y="1454" type="line"/>
      <point x="840" y="1454" type="line" smooth="yes"/>
      <point x="981" y="1454"/>
      <point x="1200" y="1367"/>
      <point x="1335" y="1211"/>
      <point x="1405" y="1008"/>
      <point x="1405" y="887" type="qcurve" smooth="yes"/>
      <point x="1405" y="698"/>
      <point x="1271" y="368"/>
      <point x="1039" y="134"/>
      <point x="714" y="0"/>
      <point x="530" y="0" type="qcurve" smooth="yes"/>
      <point x="-6" y="0" type="line"/>
    </contour>
    <contour>
      <point x="604" y="348" type="line" smooth="yes"/>
      <point x="715" y="348"/>
      <point x="895" y="482"/>
      <point x="993" y="701"/>
      <point x="993" y="829" type="qcurve" smooth="yes"/>
      <point x="993" y="956"/>
      <point x="874" y="1106"/>
      <point x="766" y="1106" type="qcurve" smooth="yes"/>
      <point x="629" y="1106" type="line"/>
      <point x="467" y="348" type="line"/>
    </contour>
  </outline>
</glyph>
<glyph name="F" format="2">
  <advance width="1118"/>
  <unicode hex="0046"/>
  <outline>
    <contour>
      <point x="303" y="1454" type="line"/>
      <point x="1253" y="1454" type="line"/>
      <point x="1180" y="1106" type="line"/>
      <point x="629" y="1106" type="line"/>
      <point x="578" y="864" type="line"/>
      <point x="1024" y="864" type="line"/>
      <point x="956" y="541" type="line"/>
      <point x="508" y="541" type="line"/>
      <point x="393" y="0" type="line"/>
      <point x="-6" y="0" type="line"/>
    </contour>
  </outline>
</glyph>
<glyph name="G" format="2">
  <advance width="1456"/>
  <unicode hex="0047"/>
  <anchor x="0" y="0" name="Anchor-11"/>
  <anchor x="0" y="0" name="Anchor-10"/>
  <anchor x="940" y="1450" name="Anchor-9"/>
  <anchor x="0" y="0" name="Anchor-8"/>
  <anchor x="604" y="0" name="Anchor-7"/>
  <outline>
    <contour>
      <point x="782" y="487" type="line"/>
      <point x="842" y="774" type="line"/>
      <point x="1423" y="774" type="line"/>
      <point x="1257" y="0" type="line"/>
      <point x="930" y="0" type="line"/>
      <point x="956" y="123" type="line"/>
      <point x="781" y="-10"/>
      <point x="594" y="-10" type="qcurve" smooth="yes"/>
      <point x="480" y="-10"/>
      <point x="283" y="71"/>
      <point x="139" y="219"/>
      <point x="57" y="442"/>
      <point x="57" y="578" type="qcurve" smooth="yes"/>
      <point x="57" y="760"/>
      <point x="208" y="1092"/>
      <point x="454" y="1326"/>
      <point x="779" y="1464"/>
      <point x="948" y="1464" type="qcurve" smooth="yes"/>
      <point x="1135" y="1464"/>
      <point x="1405" y="1294"/>
      <point x="1448" y="1147" type="qcurve"/>
      <point x="1104" y="920" type="line"/>
      <point x="1082" y="1006"/>
      <point x="946" y="1110"/>
      <point x="858" y="1110" type="qcurve" smooth="yes"/>
      <point x="757" y="1110"/>
      <point x="578" y="983"/>
      <point x="469" y="760"/>
      <point x="469" y="629" type="qcurve" smooth="yes"/>
      <point x="469" y="499"/>
      <point x="594" y="344"/>
      <point x="705" y="344" type="qcurve" smooth="yes"/>
      <point x="861" y="344"/>
      <point x="1020" y="487" type="qcurve"/>
    </contour>
  </outline>
</glyph>
<glyph name="J" format="2">
  <advance width="999"/>
  <unicode hex="004A"/>
  <anchor x="0" y="0" name="Anchor-11"/>
  <anchor x="0" y="0" name="Anchor-10"/>
  <anchor x="866" y="1450" name="Anchor-9"/>
  <anchor x="0" y="0" name="Anchor-8"/>
  <anchor x="0" y="0" name="Anchor-7"/>
  <outline>
    <contour>
      <point x="-98" y="68" type="qcurve"/>
      <point x="53" y="393" type="line"/>
      <point x="60" y="385"/>
      <point x="110" y="358"/>
      <point x="208" y="332"/>
      <point x="258" y="332" type="qcurve" smooth="yes"/>
      <point x="367" y="332"/>
      <point x="465" y="494"/>
      <point x="512" y="715" type="qcurve" smooth="yes"/>
      <point x="670" y="1454" type="line"/>
      <point x="1069" y="1454" type="line"/>
      <point x="911" y="715" type="line" smooth="yes"/>
      <point x="889" y="611"/>
      <point x="846" y="457"/>
      <point x="783" y="295"/>
      <point x="707" y="181"/>
      <point x="600" y="77"/>
      <point x="467" y="14"/>
      <point x="290" y="-23"/>
      <point x="182" y="-23" type="qcurve" smooth="yes"/>
      <point x="10" y="-23"/>
    </contour>
  </outline>
</glyph>
<glyph name="K" format="2">
  <advance width="1361"/>
  <unicode hex="004B"/>
  <anchor x="0" y="0" name="Anchor-11"/>
  <anchor x="0" y="0" name="Anchor-10"/>
  <anchor x="0" y="0" name="Anchor-9"/>
  <anchor x="0" y="0" name="Anchor-8"/>
  <anchor x="571" y="0" name="Anchor-7"/>
  <outline>
    <contour>
      <point x="303" y="1454" type="line"/>
      <point x="702" y="1454" type="line"/>
      <point x="586" y="901" type="line"/>
      <point x="1094" y="1454" type="line"/>
      <point x="1546" y="1454" type="line"/>
      <point x="909" y="803" type="line"/>
      <point x="1272" y="0" type="line"/>
      <point x="811" y="0" type="line"/>
      <point x="598" y="535" type="line"/>
      <point x="483" y="420" type="line"/>
      <point x="393" y="0" type="line"/>
      <point x="-6" y="0" type="line"/>
    </contour>
  </outline>
</glyph>
<glyph name="M" format="2">
  <advance width="1679"/>
  <unicode hex="004D"/>
  <anchor x="0" y="0" name="Anchor-11"/>
  <anchor x="0" y="0" name="Anchor-10"/>
  <anchor x="1034" y="1454" name="Anchor-9"/>
  <anchor x="0" y="0" name="Anchor-8"/>
  <anchor x="725" y="0" name="Anchor-7"/>
  <outline>
    <contour>
      <point x="303" y="1454" type="line"/>
      <point x="739" y="1454" type="line"/>
      <point x="872" y="770" type="line"/>
      <point x="1298" y="1454" type="line"/>
      <point x="1733" y="1454" type="line"/>
      <point x="1423" y="0" type="line"/>
      <point x="1024" y="0" type="line"/>
      <point x="1186" y="766" type="line"/>
      <point x="862" y="227" type="line"/>
      <point x="651" y="227" type="line"/>
      <point x="557" y="766" type="line"/>
      <point x="393" y="0" type="line"/>
      <point x="-6" y="0" type="line"/>
    </contour>
  </outline>
</glyph>
<glyph name="P" format="2">
  <advance width="1232"/>
  <unicode hex="0050"/>
  <outline>
    <contour>
      <point x="303" y="1454" type="line"/>
      <point x="901" y="1454" type="line" smooth="yes"/>
      <point x="1013" y="1454"/>
      <point x="1187" y="1332"/>
      <point x="1274" y="1142"/>
      <point x="1274" y="1034" type="qcurve" smooth="yes"/>
      <point x="1274" y="928"/>
      <point x="1181" y="716"/>
      <point x="1027" y="550"/>
      <point x="811" y="446"/>
      <point x="696" y="446" type="qcurve" smooth="yes"/>
      <point x="487" y="446" type="line"/>
      <point x="393" y="0" type="line"/>
      <point x="-6" y="0" type="line"/>
    </contour>
    <contour>
      <point x="743" y="795" type="line" smooth="yes"/>
      <point x="786" y="795"/>
      <point x="864" y="903"/>
      <point x="864" y="1001" type="qcurve" smooth="yes"/>
      <point x="864" y="1056"/>
      <point x="826" y="1106"/>
      <point x="799" y="1106" type="qcurve" smooth="yes"/>
      <point x="629" y="1106" type="line"/>
      <point x="563" y="795" type="line"/>
    </contour>
  </outline>
</glyph>
<glyph name="R" format="2">
  <advance width="1337"/>
  <unicode hex="0052"/>
  <anchor x="0" y="0" name="Anchor-11"/>
  <anchor x="0" y="0" name="Anchor-10"/>
  <anchor x="827" y="1454" name="Anchor-9"/>
  <anchor x="0" y="0" name="Anchor-8"/>
  <anchor x="539" y="0" name="Anchor-7"/>
  <outline>
    <contour>
      <point x="-6" y="0" type="line"/>
      <point x="303" y="1454" type="line"/>
      <point x="942" y="1454" type="line" smooth="yes"/>
      <point x="1055" y="1454"/>
      <point x="1229" y="1332"/>
      <point x="1315" y="1143"/>
      <point x="1315" y="1034" type="qcurve" smooth="yes"/>
      <point x="1315" y="892"/>
      <point x="1157" y="622"/>
      <point x="1026" y="535" type="qcurve"/>
      <point x="1200" y="0" type="line"/>
      <point x="750" y="0" type="line"/>
      <point x="608" y="446" type="line"/>
      <point x="487" y="446" type="line"/>
      <point x="393" y="0" type="line"/>
    </contour>
    <contour>
      <point x="784" y="795" type="line" smooth="yes"/>
      <point x="822" y="795"/>
      <point x="903" y="912"/>
      <point x="903" y="993" type="qcurve" smooth="yes"/>
      <point x="903" y="1045"/>
      <point x="866" y="1106"/>
      <point x="840" y="1106" type="qcurve" smooth="yes"/>
      <point x="629" y="1106" type="line"/>
      <point x="563" y="795" type="line"/>
    </contour>
  </outline>
</glyph>
<glyph name="V" format="2">
  <advance width="1312"/>
  <unicode hex="0056"/>
  <outline>
    <contour>
      <point x="156" y="1454" type="line"/>
      <point x="578" y="1454" type="line"/>
      <point x="627" y="502" type="line"/>
      <point x="1077" y="1454" type="line"/>
      <point x="1497" y="1454" type="line"/>
      <point x="686" y="0" type="line"/>
      <point x="354" y="0" type="line"/>
    </contour>
  </outline>
</glyph>
<glyph name="W" format="2">
  <advance width="2052"/>
  <unicode hex="0057"/>
  <anchor x="0" y="0" name="Anchor-11"/>
  <anchor x="0" y="0" name="Anchor-10"/>
  <anchor x="1192" y="1450" name="Anchor-9"/>
  <anchor x="0" y="0" name="Anchor-8"/>
  <anchor x="0" y="0" name="Anchor-7"/>
  <outline>
    <contour>
      <point x="141" y="1454" type="line"/>
      <point x="573" y="1454" type="line"/>
      <point x="645" y="457" type="line"/>
      <point x="791" y="760" type="line"/>
      <point x="717" y="1454" type="line"/>
      <point x="1081" y="1454" type="line"/>
      <point x="1102" y="1006" type="line"/>
      <point x="1313" y="1454" type="line"/>
      <point x="1679" y="1454" type="line"/>
      <point x="1305" y="760" type="line"/>
      <point x="1327" y="457" type="line"/>
      <point x="1819" y="1454" type="line"/>
      <point x="2255" y="1454" type="line"/>
      <point x="1407" y="0" type="line"/>
      <point x="1077" y="0" type="line"/>
      <point x="997" y="520" type="line"/>
      <point x="700" y="0" type="line"/>
      <point x="371" y="0" type="line"/>
    </contour>
  </outline>
</glyph>
<glyph name="Y" format="2">
  <advance width="1284"/>
  <unicode hex="0059"/>
  <anchor x="0" y="0" name="Anchor-11"/>
  <anchor x="0" y="0" name="Anchor-10"/>
  <anchor x="795" y="1450" name="Anchor-9"/>
  <anchor x="0" y="0" name="Anchor-8"/>
  <anchor x="0" y="0" name="Anchor-7"/>
  <outline>
    <contour>
      <point x="406" y="485" type="line"/>
      <point x="147" y="1454" type="line"/>
      <point x="580" y="1454" type="line"/>
      <point x="676" y="825" type="line"/>
      <point x="1047" y="1454" type="line"/>
      <point x="1481" y="1454" type="line"/>
      <point x="801" y="481" type="line"/>
      <point x="698" y="0" type="line"/>
      <point x="301" y="0" type="line"/>
    </contour>
  </outline>
</glyph>
<glyph name="Z" format="2">
  <advance width="1214"/>
  <unicode hex="005A"/>
  <anchor x="0" y="0" name="Anchor-11"/>
  <anchor x="0" y="0" name="Anchor-10"/>
  <anchor x="803" y="1454" name="Anchor-9"/>
  <anchor x="0" y="0" name="Anchor-8"/>
  <anchor x="494" y="0" name="Anchor-7"/>
  <outline>
    <contour>
      <point x="-12" y="297" type="line"/>
      <point x="780" y="1106" type="line"/>
      <point x="190" y="1106" type="line"/>
      <point x="264" y="1454" type="line"/>
      <point x="1317" y="1454" type="line"/>
      <point x="1253" y="1157" type="line"/>
      <point x="500" y="348" type="line"/>
      <point x="1094" y="348" type="line"/>
      <point x="1020" y="0" type="line"/>
      <point x="-76" y="0" type="line"/>
    </contour>
  </outline>
</glyph>
<glyph name="bracketleft" format="2">
  <advance width="708"/>
  <unicode hex="005B"/>
  <outline>
    <contour>
      <point x="-20" y="-82" type="line"/>
      <point x="319" y="1516" type="line"/>
      <point x="815" y="1516" type="line"/>
      <point x="750" y="1208" type="line"/>
      <point x="612" y="1208" type="line"/>
      <point x="403" y="225" type="line"/>
      <point x="541" y="225" type="line"/>
      <point x="477" y="-82" type="line"/>
    </contour>
  </outline>
</glyph>
<glyph name="bracketright" format="2">
  <advance width="710"/>
  <unicode hex="005D"/>
  <outline>
    <contour>
      <point x="-63" y="-82" type="line"/>
      <point x="2" y="225" type="line"/>
      <point x="141" y="225" type="line"/>
      <point x="350" y="1208" type="line"/>
      <point x="211" y="1208" type="line"/>
      <point x="276" y="1516" type="line"/>
      <point x="772" y="1516" type="line"/>
      <point x="434" y="-82" type="line"/>
    </contour>
  </outline>
</glyph>
<glyph name="asciicircum" format="2">
  <advance width="1290"/>
  <unicode hex="005E"/>
  <outline>
    <contour>
      <point x="90" y="621" type="line"/>
      <point x="496" y="1454" type="line"/>
      <point x="819" y="1454" type="line"/>
      <point x="1223" y="621" type="line"/>
      <point x="909" y="621" type="line"/>
      <point x="657" y="1139" type="line"/>
      <point x="399" y="621" type="line"/>
    </contour>
  </outline>
</glyph>
<glyph name="underscore" format="2">
  <advance width="866"/>
  <unicode hex="005F"/>
  <outline>
    <contour>
      <point x="-113" y="-348" type="line"/>
      <point x="-39" y="0" type="line"/>
      <point x="643" y="0" type="line"/>
      <point x="569" y="-348" type="line"/>
    </contour>
  </outline>
</glyph>
<glyph name="grave" format="2">
  <advance width="645"/>
  <unicode hex="0060"/>
  <anchor x="528" y="1495" name="Anchor-13"/>
  <outline>
    <contour>
      <point x="305" y="1495" type="line"/>
      <point x="649" y="1495" type="line"/>
      <point x="684" y="1204" type="line"/>
      <point x="414" y="1176" type="line"/>
    </contour>
  </outline>
</glyph>
<glyph name="b" format="2">
  <advance width="1284"/>
  <unicode hex="0062"/>
  <outline>
    <contour>
      <point x="340" y="168" type="qcurve"/>
      <point x="305" y="0" type="line"/>
      <point x="-33" y="0" type="line"/>
      <point x="285" y="1495" type="line"/>
      <point x="674" y="1495" type="line"/>
      <point x="551" y="918" type="line"/>
      <point x="608" y="1001"/>
      <point x="792" y="1098"/>
      <point x="893" y="1098" type="qcurve" smooth="yes"/>
      <point x="1054" y="1098"/>
      <point x="1237" y="859"/>
      <point x="1237" y="666" type="qcurve" smooth="yes"/>
      <point x="1237" y="526"/>
      <point x="1136" y="270"/>
      <point x="968" y="88"/>
      <point x="744" y="-20"/>
      <point x="625" y="-20" type="qcurve" smooth="yes"/>
      <point x="397" y="-20"/>
    </contour>
    <contour>
      <point x="827" y="588" type="qcurve" smooth="yes"/>
      <point x="827" y="668"/>
      <point x="757" y="770"/>
      <point x="698" y="770" type="qcurve" smooth="yes"/>
      <point x="644" y="770"/>
      <point x="525" y="680"/>
      <point x="485" y="610" type="qcurve"/>
      <point x="444" y="418" type="line"/>
      <point x="473" y="359"/>
      <point x="536" y="307"/>
      <point x="588" y="307" type="qcurve" smooth="yes"/>
      <point x="686" y="307"/>
      <point x="827" y="471"/>
    </contour>
  </outline>
</glyph>
<glyph name="c" format="2">
  <advance width="1136"/>
  <unicode hex="0063"/>
  <anchor x="0" y="0" name="Anchor-11"/>
  <anchor x="0" y="0" name="Anchor-10"/>
  <anchor x="713" y="1069" name="Anchor-9"/>
  <anchor x="0" y="0" name="Anchor-8"/>
  <anchor x="485" y="0" name="Anchor-7"/>
  <outline>
    <contour>
      <point x="12" y="432" type="qcurve" smooth="yes"/>
      <point x="12" y="557"/>
      <point x="113" y="797"/>
      <point x="291" y="984"/>
      <point x="558" y="1098"/>
      <point x="713" y="1098" type="qcurve" smooth="yes"/>
      <point x="895" y="1098"/>
      <point x="1118" y="940"/>
      <point x="1157" y="805" type="qcurve"/>
      <point x="754" y="690" type="line"/>
      <point x="723" y="770"/>
      <point x="641" y="770" type="qcurve" smooth="yes"/>
      <point x="552" y="770"/>
      <point x="418" y="603"/>
      <point x="418" y="475" type="qcurve" smooth="yes"/>
      <point x="418" y="397"/>
      <point x="486" y="307"/>
      <point x="543" y="307" type="qcurve" smooth="yes"/>
      <point x="621" y="307"/>
      <point x="688" y="387" type="qcurve"/>
      <point x="1042" y="272" type="line"/>
      <point x="945" y="137"/>
      <point x="656" y="-20"/>
      <point x="475" y="-20" type="qcurve" smooth="yes"/>
      <point x="361" y="-20"/>
      <point x="181" y="52"/>
      <point x="70" y="177"/>
      <point x="12" y="339"/>
    </contour>
  </outline>
</glyph>
<glyph name="d" format="2">
  <advance width="1320"/>
  <unicode hex="0064"/>
  <anchor x="1456" y="1077" name="Anchor-11"/>
  <anchor x="662" y="539" name="Anchor-10"/>
  <anchor x="776" y="1077" name="Anchor-9"/>
  <anchor x="0" y="0" name="Anchor-8"/>
  <anchor x="547" y="0" name="Anchor-7"/>
  <outline>
    <contour>
      <point x="14" y="414" type="qcurve" smooth="yes"/>
      <point x="14" y="596"/>
      <point x="174" y="912"/>
      <point x="443" y="1098"/>
      <point x="596" y="1098" type="qcurve" smooth="yes"/>
      <point x="693" y="1098"/>
      <point x="835" y="1002"/>
      <point x="860" y="918" type="qcurve"/>
      <point x="983" y="1495" type="line"/>
      <point x="1374" y="1495" type="line"/>
      <point x="1147" y="430" type="line" smooth="yes"/>
      <point x="1141" y="400"/>
      <point x="1141" y="381" type="qcurve" smooth="yes"/>
      <point x="1141" y="354"/>
      <point x="1166" y="330"/>
      <point x="1196" y="328" type="qcurve"/>
      <point x="1126" y="0" type="line"/>
      <point x="1023" y="-20"/>
      <point x="961" y="-20" type="qcurve" smooth="yes"/>
      <point x="760" y="-20"/>
      <point x="760" y="127" type="qcurve" smooth="yes"/>
      <point x="760" y="140"/>
      <point x="764" y="168" type="qcurve"/>
      <point x="693" y="74"/>
      <point x="500" y="-20"/>
      <point x="395" y="-20" type="qcurve" smooth="yes"/>
      <point x="219" y="-20"/>
      <point x="14" y="219"/>
    </contour>
    <contour>
      <point x="758" y="418" type="qcurve"/>
      <point x="799" y="610" type="line"/>
      <point x="788" y="681"/>
      <point x="708" y="770"/>
      <point x="653" y="770" type="qcurve" smooth="yes"/>
      <point x="566" y="770"/>
      <point x="424" y="591"/>
      <point x="424" y="477" type="qcurve" smooth="yes"/>
      <point x="424" y="399"/>
      <point x="502" y="307"/>
      <point x="571" y="307" type="qcurve" smooth="yes"/>
      <point x="619" y="307"/>
      <point x="705" y="360"/>
    </contour>
  </outline>
</glyph>
<glyph name="f" format="2">
  <advance width="806"/>
  <unicode hex="0066"/>
  <outline>
    <contour>
      <point x="176" y="659" type="line"/>
      <point x="51" y="659" type="line"/>
      <point x="115" y="952" type="line"/>
      <point x="240" y="952" type="line"/>
      <point x="264" y="1069" type="line" smooth="yes"/>
      <point x="307" y="1271"/>
      <point x="569" y="1516"/>
      <point x="741" y="1516" type="qcurve" smooth="yes"/>
      <point x="870" y="1516"/>
      <point x="1018" y="1454" type="qcurve"/>
      <point x="891" y="1159" type="line"/>
      <point x="820" y="1188"/>
      <point x="760" y="1188" type="qcurve" smooth="yes"/>
      <point x="676" y="1188"/>
      <point x="655" y="1083" type="qcurve" smooth="yes"/>
      <point x="627" y="952" type="line"/>
      <point x="848" y="952" type="line"/>
      <point x="784" y="659" type="line"/>
      <point x="565" y="659" type="line"/>
      <point x="332" y="-436" type="line"/>
      <point x="-57" y="-436" type="line"/>
    </contour>
  </outline>
</glyph>
<glyph name="i" format="2">
  <advance width="585"/>
  <unicode hex="0069"/>
  <anchor x="0" y="0" name="Anchor-11"/>
  <anchor x="0" y="0" name="Anchor-10"/>
  <anchor x="0" y="0" name="Anchor-9"/>
  <anchor x="356" y="0" name="Anchor-8"/>
  <anchor x="178" y="0" name="Anchor-7"/>
  <outline>
    <contour>
      <point x="285" y="1495" type="line"/>
      <point x="674" y="1495" type="line"/>
      <point x="604" y="1167" type="line"/>
      <point x="215" y="1167" type="line"/>
    </contour>
    <contour>
      <point x="197" y="1077" type="line"/>
      <point x="586" y="1077" type="line"/>
      <point x="356" y="0" type="line"/>
      <point x="-33" y="0" type="line"/>
    </contour>
  </outline>
</glyph>
<glyph name="j" format="2">
  <advance width="593"/>
  <unicode hex="006A"/>
  <outline>
    <contour>
      <point x="293" y="1495" type="line"/>
      <point x="682" y="1495" type="line"/>
      <point x="612" y="1167" type="line"/>
      <point x="223" y="1167" type="line"/>
    </contour>
    <contour>
      <point x="-408" y="-317" type="qcurve"/>
      <point x="-193" y="-53" type="line"/>
      <point x="-170" y="-94"/>
      <point x="-115" y="-94" type="qcurve" smooth="yes"/>
      <point x="-82" y="-94"/>
      <point x="-36" y="-48"/>
      <point x="-27" y="-6" type="qcurve" smooth="yes"/>
      <point x="203" y="1077" type="line"/>
      <point x="594" y="1077" type="line"/>
      <point x="371" y="25" type="line" smooth="yes"/>
      <point x="328" y="-176"/>
      <point x="47" y="-428"/>
      <point x="-135" y="-428" type="qcurve" smooth="yes"/>
      <point x="-306" y="-428"/>
    </contour>
  </outline>
</glyph>
<glyph name="k" format="2">
  <advance width="1191"/>
  <unicode hex="006B"/>
  <anchor x="0" y="0" name="Anchor-11"/>
  <anchor x="0" y="0" name="Anchor-10"/>
  <anchor x="0" y="0" name="Anchor-9"/>
  <anchor x="0" y="0" name="Anchor-8"/>
  <anchor x="485" y="0" name="Anchor-7"/>
  <outline>
    <contour>
      <point x="1151" y="834" type="qcurve" smooth="yes"/>
      <point x="1151" y="698"/>
      <point x="1011" y="464"/>
      <point x="885" y="387" type="qcurve"/>
      <point x="1042" y="0" type="line"/>
      <point x="633" y="0" type="line"/>
      <point x="481" y="440" type="line"/>
      <point x="629" y="466"/>
      <point x="803" y="586"/>
      <point x="803" y="664" type="qcurve" smooth="yes"/>
      <point x="803" y="704"/>
      <point x="753" y="756"/>
      <point x="715" y="756" type="qcurve" smooth="yes"/>
      <point x="648" y="756"/>
      <point x="502" y="608"/>
      <point x="459" y="500" type="qcurve"/>
      <point x="352" y="0" type="line"/>
      <point x="-33" y="0" type="line"/>
      <point x="285" y="1495" type="line"/>
      <point x="670" y="1495" type="line"/>
      <point x="526" y="817" type="line"/>
      <point x="601" y="949"/>
      <point x="800" y="1087"/>
      <point x="915" y="1087" type="qcurve" smooth="yes"/>
      <point x="1028" y="1087"/>
      <point x="1151" y="955"/>
    </contour>
  </outline>
</glyph>
<glyph name="q" format="2">
  <advance width="1282"/>
  <unicode hex="0071"/>
  <outline>
    <contour>
      <point x="698" y="160" type="line"/>
      <point x="638" y="73"/>
      <point x="457" y="-20"/>
      <point x="346" y="-20" type="qcurve" smooth="yes"/>
      <point x="194" y="-20"/>
      <point x="14" y="220"/>
      <point x="14" y="410" type="qcurve" smooth="yes"/>
      <point x="14" y="551"/>
      <point x="115" y="808"/>
      <point x="282" y="990"/>
      <point x="505" y="1098"/>
      <point x="623" y="1098" type="qcurve" smooth="yes"/>
      <point x="834" y="1098"/>
      <point x="909" y="911" type="qcurve"/>
      <point x="944" y="1077" type="line"/>
      <point x="1282" y="1077" type="line"/>
      <point x="961" y="-438" type="line"/>
      <point x="571" y="-438" type="line"/>
    </contour>
    <contour>
      <point x="754" y="418" type="qcurve"/>
      <point x="795" y="610" type="line"/>
      <point x="783" y="681"/>
      <point x="703" y="770"/>
      <point x="649" y="770" type="qcurve" smooth="yes"/>
      <point x="561" y="770"/>
      <point x="420" y="592"/>
      <point x="420" y="479" type="qcurve" smooth="yes"/>
      <point x="420" y="400"/>
      <point x="499" y="307"/>
      <point x="569" y="307" type="qcurve" smooth="yes"/>
      <point x="660" y="307"/>
    </contour>
  </outline>
</glyph>
<glyph name="v" format="2">
  <advance width="1122"/>
  <unicode hex="0076"/>
  <outline>
    <contour>
      <point x="88" y="1077" type="line"/>
      <point x="492" y="1077" type="line"/>
      <point x="492" y="305" type="line"/>
      <point x="611" y="523"/>
      <point x="747" y="837"/>
      <point x="829" y="1077" type="qcurve"/>
      <point x="1178" y="1077" type="line"/>
      <point x="1038" y="567"/>
      <point x="598" y="0" type="qcurve"/>
      <point x="197" y="0" type="line"/>
    </contour>
  </outline>
</glyph>
<glyph name="z" format="2">
  <advance width="966"/>
  <unicode hex="007A"/>
  <anchor x="0" y="0" name="Anchor-11"/>
  <anchor x="0" y="0" name="Anchor-10"/>
  <anchor x="598" y="1077" name="Anchor-9"/>
  <anchor x="0" y="0" name="Anchor-8"/>
  <anchor x="369" y="0" name="Anchor-7"/>
  <outline>
    <contour>
      <point x="-37" y="229" type="line"/>
      <point x="535" y="811" type="line"/>
      <point x="117" y="811" type="line"/>
      <point x="174" y="1077" type="line"/>
      <point x="997" y="1077" type="line"/>
      <point x="948" y="848" type="line"/>
      <point x="377" y="266" type="line"/>
      <point x="844" y="266" type="line"/>
      <point x="786" y="0" type="line"/>
      <point x="-86" y="0" type="line"/>
    </contour>
  </outline>
</glyph>
<glyph name="braceleft" format="2">
  <advance width="737"/>
  <unicode hex="007B"/>
  <outline>
    <contour>
      <point x="666" y="1208" type="line"/>
      <point x="598" y="893" type="line" smooth="yes"/>
      <point x="591" y="858"/>
      <point x="550" y="795"/>
      <point x="515" y="762"/>
      <point x="483" y="737" type="qcurve"/>
      <point x="537" y="670"/>
      <point x="537" y="618" type="qcurve" smooth="yes"/>
      <point x="537" y="612"/>
      <point x="532" y="582" type="qcurve" smooth="yes"/>
      <point x="461" y="244" type="line"/>
      <point x="567" y="244" type="line"/>
      <point x="502" y="-63" type="line"/>
      <point x="92" y="-63" type="line" smooth="yes"/>
      <point x="57" y="-63"/>
      <point x="57" y="-23" type="qcurve" smooth="yes"/>
      <point x="57" y="-10"/>
      <point x="59" y="-2" type="qcurve" smooth="yes"/>
      <point x="156" y="449" type="line" smooth="yes"/>
      <point x="160" y="473"/>
      <point x="160" y="483" type="qcurve" smooth="yes"/>
      <point x="160" y="531"/>
      <point x="105" y="598"/>
      <point x="70" y="606" type="qcurve"/>
      <point x="125" y="872" type="line"/>
      <point x="167" y="872"/>
      <point x="267" y="970"/>
      <point x="279" y="1026" type="qcurve" smooth="yes"/>
      <point x="369" y="1454" type="line" smooth="yes"/>
      <point x="376" y="1487"/>
      <point x="412" y="1516"/>
      <point x="428" y="1516" type="qcurve" smooth="yes"/>
      <point x="838" y="1516" type="line"/>
      <point x="772" y="1208" type="line"/>
    </contour>
  </outline>
</glyph>
<glyph name="bar" format="2">
  <advance width="733"/>
  <unicode hex="007C"/>
  <outline>
    <contour>
      <point x="213" y="-266" type="line"/>
      <point x="213" y="1587" type="line"/>
      <point x="541" y="1587" type="line"/>
      <point x="541" y="-266" type="line"/>
    </contour>
  </outline>
</glyph>
<glyph name="braceright" format="2">
  <advance width="745"/>
  <unicode hex="007D"/>
  <outline>
    <contour>
      <point x="227" y="1208" type="line"/>
      <point x="293" y="1516" type="line"/>
      <point x="702" y="1516" type="line" smooth="yes"/>
      <point x="715" y="1516"/>
      <point x="737" y="1496"/>
      <point x="737" y="1475" type="qcurve" smooth="yes"/>
      <point x="737" y="1462"/>
      <point x="735" y="1454" type="qcurve" smooth="yes"/>
      <point x="643" y="1026" type="line" smooth="yes"/>
      <point x="639" y="1006"/>
      <point x="639" y="995" type="qcurve" smooth="yes"/>
      <point x="639" y="946"/>
      <point x="694" y="872"/>
      <point x="731" y="872" type="qcurve"/>
      <point x="674" y="606" type="line"/>
      <point x="626" y="596"/>
      <point x="533" y="509"/>
      <point x="520" y="449" type="qcurve" smooth="yes"/>
      <point x="426" y="-2" type="line" smooth="yes"/>
      <point x="419" y="-35"/>
      <point x="383" y="-63"/>
      <point x="367" y="-63" type="qcurve" smooth="yes"/>
      <point x="-43" y="-63" type="line"/>
      <point x="23" y="244" type="line"/>
      <point x="129" y="244" type="line"/>
      <point x="201" y="582" type="line" smooth="yes"/>
      <point x="208" y="616"/>
      <point x="250" y="680"/>
      <point x="284" y="712"/>
      <point x="315" y="737" type="qcurve"/>
      <point x="264" y="800"/>
      <point x="264" y="854" type="qcurve" smooth="yes"/>
      <point x="264" y="879"/>
      <point x="268" y="893" type="qcurve" smooth="yes"/>
      <point x="336" y="1208" type="line"/>
    </contour>
  </outline>
</glyph>
<glyph name="asciitilde" format="2">
  <advance width="1202"/>
  <unicode hex="007E"/>
  <outline>
    <contour>
      <point x="406" y="766" type="qcurve" smooth="yes"/>
      <point x="476" y="766"/>
      <point x="615" y="714"/>
      <point x="740" y="662"/>
      <point x="793" y="662" type="qcurve" smooth="yes"/>
      <point x="828" y="662"/>
      <point x="882" y="682"/>
      <point x="910" y="710"/>
      <point x="929" y="742"/>
      <point x="934" y="762"/>
      <point x="934" y="766" type="qcurve"/>
      <point x="1139" y="766" type="line"/>
      <point x="1139" y="753"/>
      <point x="1124" y="701"/>
      <point x="1093" y="626"/>
      <point x="1036" y="550"/>
      <point x="963" y="484"/>
      <point x="854" y="442"/>
      <point x="791" y="442" type="qcurve" smooth="yes"/>
      <point x="724" y="442"/>
      <point x="585" y="492"/>
      <point x="457" y="541"/>
      <point x="403" y="541" type="qcurve" smooth="yes"/>
      <point x="367" y="541"/>
      <point x="314" y="521"/>
      <point x="289" y="495"/>
      <point x="274" y="462"/>
      <point x="272" y="446"/>
      <point x="272" y="442" type="qcurve"/>
      <point x="66" y="442" type="line"/>
      <point x="66" y="466"/>
      <point x="86" y="538"/>
      <point x="137" y="632"/>
      <point x="210" y="711"/>
      <point x="332" y="766"/>
    </contour>
  </outline>
</glyph>
<glyph name="exclamdown" format="2">
  <advance width="677"/>
  <unicode hex="00A1"/>
  <outline>
    <contour>
      <point x="711" y="1454" type="line"/>
      <point x="631" y="1077" type="line"/>
      <point x="242" y="1077" type="line"/>
      <point x="322" y="1454" type="line"/>
    </contour>
    <contour>
      <point x="582" y="840" type="line"/>
      <point x="399" y="-14" type="line"/>
      <point x="10" y="-14" type="line"/>
      <point x="193" y="840" type="line"/>
    </contour>
  </outline>
</glyph>
<glyph name="cent" format="2">
  <advance width="1226"/>
  <unicode hex="00A2"/>
  <outline>
    <contour>
      <point x="367" y="-246" type="line"/>
      <point x="416" y="-18" type="line"/>
      <point x="251" y="-5"/>
      <point x="51" y="261"/>
      <point x="51" y="436" type="qcurve" smooth="yes"/>
      <point x="51" y="547"/>
      <point x="130" y="758"/>
      <point x="277" y="937"/>
      <point x="509" y="1068"/>
      <point x="651" y="1094" type="qcurve"/>
      <point x="700" y="1321" type="line"/>
      <point x="862" y="1321" type="line"/>
      <point x="813" y="1094" type="line"/>
      <point x="947" y="1089"/>
      <point x="1157" y="942"/>
      <point x="1198" y="805" type="qcurve"/>
      <point x="795" y="690" type="line"/>
      <point x="791" y="713"/>
      <point x="758" y="753"/>
      <point x="743" y="758" type="qcurve"/>
      <point x="649" y="317" type="line"/>
      <point x="692" y="337"/>
      <point x="729" y="387" type="qcurve"/>
      <point x="1083" y="272" type="line"/>
      <point x="1036" y="202"/>
      <point x="898" y="86"/>
      <point x="757" y="17"/>
      <point x="627" y="-20"/>
      <point x="578" y="-20" type="qcurve"/>
      <point x="528" y="-246" type="line"/>
    </contour>
    <contour>
      <point x="489" y="336" type="qcurve"/>
      <point x="575" y="739" type="line"/>
      <point x="525" y="707"/>
      <point x="455" y="545"/>
      <point x="455" y="463" type="qcurve" smooth="yes"/>
      <point x="455" y="375"/>
    </contour>
  </outline>
</glyph>
<glyph name="sterling" format="2">
  <advance width="1159"/>
  <unicode hex="00A3"/>
  <outline>
    <contour>
      <point x="573" y="508" type="line"/>
      <point x="527" y="411"/>
      <point x="406" y="299" type="qcurve"/>
      <point x="500" y="330"/>
      <point x="565" y="330" type="qcurve" smooth="yes"/>
      <point x="605" y="330"/>
      <point x="768" y="299"/>
      <point x="809" y="299" type="qcurve" smooth="yes"/>
      <point x="860" y="299"/>
      <point x="934" y="326" type="qcurve"/>
      <point x="967" y="39" type="line"/>
      <point x="918" y="8"/>
      <point x="778" y="-31"/>
      <point x="660" y="-31"/>
      <point x="404" y="37"/>
      <point x="336" y="37" type="qcurve" smooth="yes"/>
      <point x="216" y="37"/>
      <point x="39" y="-18" type="qcurve"/>
      <point x="20" y="256" type="line"/>
      <point x="86" y="295"/>
      <point x="205" y="430"/>
      <point x="240" y="508" type="qcurve"/>
      <point x="100" y="508" type="line"/>
      <point x="160" y="795" type="line"/>
      <point x="262" y="795" type="line"/>
      <point x="260" y="811"/>
      <point x="249" y="887"/>
      <point x="243" y="929"/>
      <point x="238" y="989"/>
      <point x="238" y="1014" type="qcurve" smooth="yes"/>
      <point x="238" y="1107"/>
      <point x="327" y="1275"/>
      <point x="475" y="1394"/>
      <point x="671" y="1464"/>
      <point x="774" y="1464" type="qcurve" smooth="yes"/>
      <point x="904" y="1464"/>
      <point x="1121" y="1350"/>
      <point x="1184" y="1249" type="qcurve"/>
      <point x="938" y="1010" type="line"/>
      <point x="901" y="1070"/>
      <point x="769" y="1151"/>
      <point x="707" y="1151" type="qcurve" smooth="yes"/>
      <point x="648" y="1151"/>
      <point x="575" y="1073"/>
      <point x="575" y="1008" type="qcurve" smooth="yes"/>
      <point x="575" y="982"/>
      <point x="585" y="916"/>
      <point x="602" y="823"/>
      <point x="606" y="795" type="qcurve"/>
      <point x="977" y="795" type="line"/>
      <point x="915" y="508" type="line"/>
    </contour>
  </outline>
</glyph>
<glyph name="currency" format="2">
  <advance width="1200"/>
  <unicode hex="00A4"/>
  <outline>
    <contour>
      <point x="410" y="1038" type="line"/>
      <point x="502" y="1083"/>
      <point x="621" y="1083" type="qcurve" smooth="yes"/>
      <point x="732" y="1083"/>
      <point x="825" y="1042" type="qcurve"/>
      <point x="965" y="1184" type="line"/>
      <point x="1110" y="1038" type="line"/>
      <point x="981" y="909" type="line"/>
      <point x="1042" y="810"/>
      <point x="1042" y="692" type="qcurve" smooth="yes"/>
      <point x="1042" y="570"/>
      <point x="979" y="473" type="qcurve"/>
      <point x="1110" y="342" type="line"/>
      <point x="975" y="207" type="line"/>
      <point x="829" y="344" type="line"/>
      <point x="744" y="301"/>
      <point x="498" y="301"/>
      <point x="406" y="346" type="qcurve"/>
      <point x="258" y="207" type="line"/>
      <point x="123" y="342" type="line"/>
      <point x="258" y="477" type="line"/>
      <point x="199" y="572"/>
      <point x="199" y="692" type="qcurve" smooth="yes"/>
      <point x="199" y="814"/>
      <point x="256" y="903" type="qcurve"/>
      <point x="123" y="1038" type="line"/>
      <point x="268" y="1184" type="line"/>
    </contour>
    <contour>
      <point x="688" y="530"/>
      <point x="770" y="618"/>
      <point x="770" y="766"/>
      <point x="688" y="854"/>
      <point x="554" y="854"/>
      <point x="471" y="766"/>
      <point x="471" y="618"/>
      <point x="554" y="530"/>
    </contour>
  </outline>
</glyph>
<glyph name="yen" format="2">
  <advance width="1468"/>
  <unicode hex="00A5"/>
  <outline>
    <contour>
      <point x="1182" y="885" type="line"/>
      <point x="1303" y="885" type="line"/>
      <point x="1251" y="639" type="line"/>
      <point x="1004" y="639" type="line"/>
      <point x="893" y="481" type="line"/>
      <point x="879" y="414" type="line"/>
      <point x="1204" y="414" type="line"/>
      <point x="1153" y="168" type="line"/>
      <point x="825" y="168" type="line"/>
      <point x="791" y="0" type="line"/>
      <point x="393" y="0" type="line"/>
      <point x="428" y="168" type="line"/>
      <point x="104" y="168" type="line"/>
      <point x="158" y="414" type="line"/>
      <point x="481" y="414" type="line"/>
      <point x="496" y="485" type="line"/>
      <point x="455" y="639" type="line"/>
      <point x="207" y="639" type="line"/>
      <point x="258" y="885" type="line"/>
      <point x="383" y="885" type="line"/>
      <point x="238" y="1454" type="line"/>
      <point x="670" y="1454" type="line"/>
      <point x="768" y="825" type="line"/>
      <point x="1137" y="1454" type="line"/>
      <point x="1571" y="1454" type="line"/>
    </contour>
  </outline>
</glyph>
<glyph name="brokenbar" format="2">
  <advance width="716"/>
  <unicode hex="00A6"/>
  <outline>
    <contour>
      <point x="532" y="1587" type="line"/>
      <point x="532" y="801" type="line"/>
      <point x="205" y="801" type="line"/>
      <point x="205" y="1587" type="line"/>
    </contour>
    <contour>
      <point x="532" y="520" type="line"/>
      <point x="532" y="-266" type="line"/>
      <point x="205" y="-266" type="line"/>
      <point x="205" y="520" type="line"/>
    </contour>
  </outline>
</glyph>
<glyph name="section" format="2">
  <advance width="1095"/>
  <unicode hex="00A7"/>
  <outline>
    <contour>
      <point x="621" y="991" type="qcurve" smooth="yes"/>
      <point x="677" y="988"/>
      <point x="780" y="968"/>
      <point x="881" y="923"/>
      <point x="955" y="857"/>
      <point x="1001" y="755"/>
      <point x="1001" y="692" type="qcurve" smooth="yes"/>
      <point x="1001" y="662"/>
      <point x="990" y="601"/>
      <point x="972" y="550"/>
      <point x="955" y="513"/>
      <point x="937" y="478"/>
      <point x="936" y="475" type="qcurve" smooth="yes"/>
      <point x="950" y="435"/>
      <point x="950" y="360" type="qcurve" smooth="yes"/>
      <point x="950" y="245"/>
      <point x="870" y="55"/>
      <point x="745" y="-64"/>
      <point x="587" y="-146"/>
      <point x="438" y="-180"/>
      <point x="369" y="-180" type="qcurve" smooth="yes"/>
      <point x="290" y="-180"/>
      <point x="145" y="-128"/>
      <point x="46" y="-49"/>
      <point x="-18" y="24"/>
      <point x="-33" y="55" type="qcurve"/>
      <point x="266" y="293" type="line"/>
      <point x="329" y="188"/>
      <point x="430" y="188" type="qcurve" smooth="yes"/>
      <point x="474" y="188"/>
      <point x="530" y="231"/>
      <point x="530" y="268" type="qcurve" smooth="yes"/>
      <point x="530" y="283"/>
      <point x="512" y="301"/>
      <point x="493" y="306"/>
      <point x="477" y="307" type="qcurve" smooth="yes"/>
      <point x="300" y="321"/>
      <point x="125" y="494"/>
      <point x="125" y="625" type="qcurve" smooth="yes"/>
      <point x="125" y="683"/>
      <point x="151" y="771"/>
      <point x="183" y="825"/>
      <point x="184" y="831" type="qcurve" smooth="yes"/>
      <point x="162" y="894"/>
      <point x="162" y="977" type="qcurve" smooth="yes"/>
      <point x="162" y="1095"/>
      <point x="306" y="1320"/>
      <point x="557" y="1464"/>
      <point x="700" y="1464" type="qcurve" smooth="yes"/>
      <point x="773" y="1464"/>
      <point x="899" y="1419"/>
      <point x="979" y="1358"/>
      <point x="1050" y="1266"/>
      <point x="1084" y="1203"/>
      <point x="1102" y="1163" type="qcurve"/>
      <point x="776" y="1024" type="line"/>
      <point x="759" y="1069"/>
      <point x="706" y="1120"/>
      <point x="653" y="1120" type="qcurve" smooth="yes"/>
      <point x="561" y="1120"/>
      <point x="561" y="1036" type="qcurve" smooth="yes"/>
      <point x="561" y="1018"/>
      <point x="581" y="997"/>
      <point x="603" y="992"/>
    </contour>
    <contour>
      <point x="596" y="567" type="qcurve"/>
      <point x="623" y="591"/>
      <point x="623" y="629" type="qcurve" smooth="yes"/>
      <point x="623" y="656"/>
      <point x="591" y="682"/>
      <point x="571" y="682" type="qcurve" smooth="yes"/>
      <point x="532" y="682"/>
      <point x="524" y="690" type="qcurve"/>
      <point x="498" y="668"/>
      <point x="498" y="629" type="qcurve" smooth="yes"/>
      <point x="498" y="603"/>
      <point x="531" y="579"/>
      <point x="590" y="569"/>
    </contour>
  </outline>
</glyph>
<glyph name="dieresis" format="2">
  <advance width="985"/>
  <unicode hex="00A8"/>
  <anchor x="690" y="1475" name="Anchor-13"/>
  <outline>
    <contour>
      <point x="240" y="1188" type="line"/>
      <point x="301" y="1475" type="line"/>
      <point x="621" y="1475" type="line"/>
      <point x="559" y="1188" type="line"/>
    </contour>
    <contour>
      <point x="700" y="1188" type="line"/>
      <point x="762" y="1475" type="line"/>
      <point x="1079" y="1475" type="line"/>
      <point x="1020" y="1188" type="line"/>
    </contour>
  </outline>
</glyph>
<glyph name="copyright" format="2">
  <advance width="1765"/>
  <unicode hex="00A9"/>
  <outline>
    <contour>
      <point x="117" y="727" type="qcurve" smooth="yes"/>
      <point x="117" y="883"/>
      <point x="235" y="1157"/>
      <point x="441" y="1352"/>
      <point x="731" y="1464"/>
      <point x="897" y="1464" type="qcurve" smooth="yes"/>
      <point x="1124" y="1464"/>
      <point x="1491" y="1273"/>
      <point x="1698" y="935"/>
      <point x="1698" y="727" type="qcurve" smooth="yes"/>
      <point x="1698" y="570"/>
      <point x="1576" y="295"/>
      <point x="1365" y="99"/>
      <point x="1067" y="-14"/>
      <point x="897" y="-14" type="qcurve" smooth="yes"/>
      <point x="731" y="-14"/>
      <point x="441" y="99"/>
      <point x="235" y="295"/>
      <point x="117" y="570"/>
    </contour>
    <contour>
      <point x="1554" y="727" type="qcurve" smooth="yes"/>
      <point x="1554" y="893"/>
      <point x="1384" y="1171"/>
      <point x="1082" y="1333"/>
      <point x="897" y="1333" type="qcurve" smooth="yes"/>
      <point x="719" y="1333"/>
      <point x="426" y="1171"/>
      <point x="260" y="893"/>
      <point x="260" y="727" type="qcurve" smooth="yes"/>
      <point x="260" y="559"/>
      <point x="425" y="279"/>
      <point x="718" y="117"/>
      <point x="897" y="117" type="qcurve" smooth="yes"/>
      <point x="1080" y="117"/>
      <point x="1380" y="270"/>
      <point x="1554" y="551"/>
    </contour>
    <contour>
      <point x="367" y="825"/>
      <point x="440" y="1004"/>
      <point x="576" y="1142"/>
      <point x="788" y="1223"/>
      <point x="918" y="1223" type="qcurve" smooth="yes"/>
      <point x="1099" y="1223"/>
      <point x="1357" y="1065"/>
      <point x="1423" y="930" type="qcurve"/>
      <point x="1044" y="815" type="line"/>
      <point x="995" y="895"/>
      <point x="915" y="895" type="qcurve" smooth="yes"/>
      <point x="851" y="895"/>
      <point x="766" y="804"/>
      <point x="766" y="646"/>
      <point x="851" y="555"/>
      <point x="915" y="555" type="qcurve" smooth="yes"/>
      <point x="995" y="555"/>
      <point x="1044" y="635" type="qcurve"/>
      <point x="1423" y="520" type="line"/>
      <point x="1357" y="385"/>
      <point x="1099" y="227"/>
      <point x="918" y="227" type="qcurve" smooth="yes"/>
      <point x="788" y="227"/>
      <point x="576" y="308"/>
      <point x="440" y="446"/>
      <point x="367" y="625"/>
    </contour>
  </outline>
</glyph>
<glyph name="ordfeminine" format="2">
  <advance width="888"/>
  <unicode hex="00AA"/>
  <anchor x="0" y="0" name="Anchor-11"/>
  <anchor x="0" y="0" name="Anchor-10"/>
  <anchor x="391" y="1063" name="Anchor-9"/>
  <anchor x="0" y="0" name="Anchor-8"/>
  <anchor x="786" y="23" name="Anchor-7"/>
  <outline>
    <contour>
      <point x="125" y="877" type="qcurve" smooth="yes"/>
      <point x="125" y="1007"/>
      <point x="330" y="1182"/>
      <point x="477" y="1182" type="qcurve" smooth="yes"/>
      <point x="553" y="1182"/>
      <point x="600" y="1153" type="qcurve"/>
      <point x="604" y="1176" type="line" smooth="yes"/>
      <point x="608" y="1204"/>
      <point x="608" y="1212" type="qcurve" smooth="yes"/>
      <point x="608" y="1248"/>
      <point x="567" y="1282"/>
      <point x="520" y="1282" type="qcurve" smooth="yes"/>
      <point x="464" y="1282"/>
      <point x="360" y="1242"/>
      <point x="295" y="1200" type="qcurve"/>
      <point x="254" y="1368" type="line"/>
      <point x="405" y="1464"/>
      <point x="584" y="1464" type="qcurve" smooth="yes"/>
      <point x="724" y="1464"/>
      <point x="870" y="1348"/>
      <point x="870" y="1235" type="qcurve" smooth="yes"/>
      <point x="870" y="1198"/>
      <point x="860" y="1143" type="qcurve" smooth="yes"/>
      <point x="829" y="997" type="line" smooth="yes"/>
      <point x="825" y="973"/>
      <point x="825" y="969" type="qcurve" smooth="yes"/>
      <point x="825" y="947"/>
      <point x="850" y="928"/>
      <point x="877" y="926" type="qcurve"/>
      <point x="827" y="696" type="line"/>
      <point x="761" y="682"/>
      <point x="702" y="682" type="qcurve" smooth="yes"/>
      <point x="632" y="682"/>
      <point x="569" y="733"/>
      <point x="569" y="786" type="qcurve" smooth="yes"/>
      <point x="569" y="815" type="line"/>
      <point x="451" y="682"/>
      <point x="317" y="682" type="qcurve" smooth="yes"/>
      <point x="230" y="682"/>
      <point x="125" y="791"/>
    </contour>
    <contour>
      <point x="557" y="958" type="qcurve" smooth="yes"/>
      <point x="569" y="1014" type="line"/>
      <point x="536" y="1034"/>
      <point x="494" y="1034" type="qcurve" smooth="yes"/>
      <point x="451" y="1034"/>
      <point x="383" y="975"/>
      <point x="383" y="934" type="qcurve" smooth="yes"/>
      <point x="383" y="909"/>
      <point x="413" y="877"/>
      <point x="438" y="877" type="qcurve" smooth="yes"/>
      <point x="469" y="877"/>
      <point x="550" y="929"/>
    </contour>
  </outline>
</glyph>
<glyph name="guillemotleft" format="2">
  <advance width="1419"/>
  <unicode hex="00AB"/>
  <outline>
    <contour>
      <point x="61" y="610" type="line"/>
      <point x="690" y="1016" type="line"/>
      <point x="625" y="705" type="line"/>
      <point x="348" y="530" type="line"/>
      <point x="553" y="373" type="line"/>
      <point x="487" y="61" type="line"/>
      <point x="23" y="430" type="line"/>
    </contour>
    <contour>
      <point x="764" y="610" type="line"/>
      <point x="1395" y="1016" type="line"/>
      <point x="1327" y="705" type="line"/>
      <point x="1053" y="530" type="line"/>
      <point x="1257" y="373" type="line"/>
      <point x="1192" y="61" type="line"/>
      <point x="727" y="430" type="line"/>
    </contour>
  </outline>
</glyph>
<glyph name="logicalnot" format="2">
  <advance width="1259"/>
  <unicode hex="00AC"/>
  <outline>
    <contour>
      <point x="1196" y="883" type="line"/>
      <point x="1047" y="182" type="line"/>
      <point x="719" y="182" type="line"/>
      <point x="795" y="535" type="line"/>
      <point x="78" y="535" type="line"/>
      <point x="152" y="883" type="line"/>
    </contour>
  </outline>
</glyph>
<glyph name="registered" format="2">
  <advance width="1765"/>
  <unicode hex="00AE"/>
  <outline>
    <contour>
      <point x="117" y="727" type="qcurve" smooth="yes"/>
      <point x="117" y="883"/>
      <point x="235" y="1157"/>
      <point x="441" y="1352"/>
      <point x="733" y="1464"/>
      <point x="1069" y="1464"/>
      <point x="1365" y="1352"/>
      <point x="1576" y="1157"/>
      <point x="1698" y="883"/>
      <point x="1698" y="727" type="qcurve" smooth="yes"/>
      <point x="1698" y="570"/>
      <point x="1576" y="295"/>
      <point x="1365" y="99"/>
      <point x="1069" y="-14"/>
      <point x="901" y="-14" type="qcurve" smooth="yes"/>
      <point x="677" y="-14"/>
      <point x="318" y="179"/>
      <point x="117" y="517"/>
    </contour>
    <contour>
      <point x="1546" y="721" type="qcurve" smooth="yes"/>
      <point x="1546" y="890"/>
      <point x="1381" y="1170"/>
      <point x="1085" y="1333"/>
      <point x="903" y="1333" type="qcurve" smooth="yes"/>
      <point x="766" y="1333"/>
      <point x="528" y="1238"/>
      <point x="362" y="1074"/>
      <point x="268" y="851"/>
      <point x="268" y="599"/>
      <point x="362" y="375"/>
      <point x="528" y="211"/>
      <point x="766" y="115"/>
      <point x="903" y="115" type="qcurve" smooth="yes"/>
      <point x="1082" y="115"/>
      <point x="1376" y="272"/>
      <point x="1546" y="550"/>
    </contour>
    <contour>
      <point x="553" y="1171" type="line"/>
      <point x="961" y="1171" type="line" smooth="yes"/>
      <point x="1085" y="1171"/>
      <point x="1257" y="982"/>
      <point x="1257" y="864" type="qcurve" smooth="yes"/>
      <point x="1257" y="792"/>
      <point x="1187" y="658"/>
      <point x="1130" y="616" type="qcurve"/>
      <point x="1327" y="295" type="line"/>
      <point x="1026" y="295" type="line"/>
      <point x="860" y="563" type="line"/>
      <point x="823" y="563" type="line"/>
      <point x="823" y="295" type="line"/>
      <point x="553" y="295" type="line"/>
    </contour>
    <contour>
      <point x="932" y="793" type="line" smooth="yes"/>
      <point x="991" y="793"/>
      <point x="991" y="864" type="qcurve" smooth="yes"/>
      <point x="991" y="936"/>
      <point x="928" y="936" type="qcurve" smooth="yes"/>
      <point x="823" y="936" type="line"/>
      <point x="823" y="793" type="line"/>
    </contour>
  </outline>
</glyph>
<glyph name="macron" format="2">
  <advance width="811"/>
  <unicode hex="00AF"/>
  <anchor x="604" y="1475" name="Anchor-13"/>
  <outline>
    <contour>
      <point x="252" y="1243" type="line"/>
      <point x="301" y="1475" type="line"/>
      <point x="907" y="1475" type="line"/>
      <point x="858" y="1243" type="line"/>
    </contour>
  </outline>
</glyph>
<glyph name="degree" format="2">
  <advance width="602"/>
  <unicode hex="00B0"/>
  <outline>
    <contour>
      <point x="186" y="1182" type="qcurve" smooth="yes"/>
      <point x="186" y="1301"/>
      <point x="357" y="1483"/>
      <point x="481" y="1483" type="qcurve" smooth="yes"/>
      <point x="569" y="1483"/>
      <point x="674" y="1376"/>
      <point x="674" y="1292" type="qcurve" smooth="yes"/>
      <point x="674" y="1165"/>
      <point x="502" y="995"/>
      <point x="377" y="995" type="qcurve" smooth="yes"/>
      <point x="288" y="995"/>
      <point x="186" y="1097"/>
    </contour>
    <contour>
      <point x="489" y="1253" type="qcurve" smooth="yes"/>
      <point x="489" y="1279"/>
      <point x="462" y="1303"/>
      <point x="442" y="1303" type="qcurve" smooth="yes"/>
      <point x="414" y="1303"/>
      <point x="367" y="1258"/>
      <point x="367" y="1229" type="qcurve" smooth="yes"/>
      <point x="367" y="1206"/>
      <point x="392" y="1174"/>
      <point x="416" y="1174" type="qcurve" smooth="yes"/>
      <point x="443" y="1174"/>
      <point x="489" y="1223"/>
    </contour>
  </outline>
</glyph>
<glyph name="plusminus" format="2">
  <advance width="1110"/>
  <unicode hex="00B1"/>
  <outline>
    <contour>
      <point x="924" y="946" type="line"/>
      <point x="924" y="639" type="line"/>
      <point x="709" y="639" type="line"/>
      <point x="709" y="403" type="line"/>
      <point x="360" y="403" type="line"/>
      <point x="360" y="639" type="line"/>
      <point x="145" y="639" type="line"/>
      <point x="145" y="946" type="line"/>
      <point x="360" y="946" type="line"/>
      <point x="360" y="1182" type="line"/>
      <point x="709" y="1182" type="line"/>
      <point x="709" y="946" type="line"/>
    </contour>
    <contour>
      <point x="143" y="2" type="line"/>
      <point x="143" y="309" type="line"/>
      <point x="922" y="309" type="line"/>
      <point x="922" y="2" type="line"/>
    </contour>
  </outline>
</glyph>
<glyph name="twosuperior" format="2">
  <advance width="874"/>
  <unicode hex="00B2"/>
  <outline>
    <contour>
      <point x="82" y="770" type="line"/>
      <point x="121" y="937"/>
      <point x="257" y="1108"/>
      <point x="422" y="1184" type="qcurve" smooth="yes"/>
      <point x="445" y="1194"/>
      <point x="530" y="1230"/>
      <point x="581" y="1252"/>
      <point x="647" y="1289"/>
      <point x="684" y="1323"/>
      <point x="711" y="1370"/>
      <point x="711" y="1397" type="qcurve" smooth="yes"/>
      <point x="711" y="1437"/>
      <point x="651" y="1483"/>
      <point x="604" y="1483" type="qcurve" smooth="yes"/>
      <point x="483" y="1483"/>
      <point x="358" y="1374" type="qcurve"/>
      <point x="260" y="1538" type="line"/>
      <point x="319" y="1600"/>
      <point x="550" y="1681"/>
      <point x="672" y="1681" type="qcurve" smooth="yes"/>
      <point x="812" y="1681"/>
      <point x="963" y="1560"/>
      <point x="963" y="1452" type="qcurve" smooth="yes"/>
      <point x="963" y="1387"/>
      <point x="919" y="1274"/>
      <point x="856" y="1201"/>
      <point x="768" y="1140"/>
      <point x="700" y="1109"/>
      <point x="662" y="1096" type="qcurve" smooth="yes"/>
      <point x="564" y="1062"/>
      <point x="535" y="1041" type="qcurve" smooth="yes"/>
      <point x="504" y="1019"/>
      <point x="498" y="989" type="qcurve"/>
      <point x="864" y="989" type="line"/>
      <point x="813" y="770" type="line"/>
    </contour>
  </outline>
</glyph>
<glyph name="threesuperior" format="2">
  <advance width="833"/>
  <unicode hex="00B3"/>
  <outline>
    <contour>
      <point x="109" y="901" type="qcurve"/>
      <point x="252" y="1053" type="line"/>
      <point x="294" y="1011"/>
      <point x="379" y="971"/>
      <point x="444" y="971" type="qcurve" smooth="yes"/>
      <point x="596" y="971"/>
      <point x="596" y="1071" type="qcurve" smooth="yes"/>
      <point x="596" y="1109"/>
      <point x="525" y="1141"/>
      <point x="430" y="1141" type="qcurve" smooth="yes"/>
      <point x="383" y="1141" type="line"/>
      <point x="426" y="1337" type="line"/>
      <point x="471" y="1337" type="line" smooth="yes"/>
      <point x="545" y="1337"/>
      <point x="624" y="1358"/>
      <point x="649" y="1392"/>
      <point x="649" y="1423" type="qcurve" smooth="yes"/>
      <point x="649" y="1458"/>
      <point x="598" y="1485"/>
      <point x="567" y="1485" type="qcurve" smooth="yes"/>
      <point x="450" y="1485"/>
      <point x="344" y="1399" type="qcurve"/>
      <point x="254" y="1567" type="line"/>
      <point x="315" y="1621"/>
      <point x="534" y="1681"/>
      <point x="635" y="1681" type="qcurve" smooth="yes"/>
      <point x="766" y="1681"/>
      <point x="913" y="1564"/>
      <point x="913" y="1468" type="qcurve" smooth="yes"/>
      <point x="913" y="1386"/>
      <point x="810" y="1269"/>
      <point x="727" y="1251" type="qcurve"/>
      <point x="780" y="1241"/>
      <point x="838" y="1137"/>
      <point x="838" y="1065" type="qcurve" smooth="yes"/>
      <point x="838" y="984"/>
      <point x="766" y="861"/>
      <point x="643" y="790"/>
      <point x="495" y="756"/>
      <point x="412" y="756" type="qcurve" smooth="yes"/>
      <point x="297" y="756"/>
      <point x="131" y="829"/>
    </contour>
  </outline>
</glyph>
<glyph name="acute" format="2">
  <advance width="645"/>
  <unicode hex="00B4"/>
  <anchor x="516" y="1495" name="Anchor-13"/>
  <outline>
    <contour>
      <point x="506" y="1180" type="line"/>
      <point x="244" y="1204" type="line"/>
      <point x="401" y="1495" type="line"/>
      <point x="745" y="1495" type="line"/>
    </contour>
  </outline>
</glyph>
<glyph name="mu" format="2">
  <advance width="1368"/>
  <unicode hex="00B5"/>
  <outline>
    <contour>
      <point x="221" y="1077" type="line"/>
      <point x="610" y="1077" type="line"/>
      <point x="479" y="457" type="line" smooth="yes"/>
      <point x="471" y="417"/>
      <point x="471" y="399" type="qcurve" smooth="yes"/>
      <point x="471" y="307"/>
      <point x="557" y="307" type="qcurve" smooth="yes"/>
      <point x="638" y="307"/>
      <point x="735" y="418" type="qcurve"/>
      <point x="874" y="1077" type="line"/>
      <point x="1264" y="1077" type="line"/>
      <point x="1126" y="430" type="line" smooth="yes"/>
      <point x="1120" y="406"/>
      <point x="1120" y="387" type="qcurve" smooth="yes"/>
      <point x="1120" y="357"/>
      <point x="1156" y="330"/>
      <point x="1198" y="328" type="qcurve"/>
      <point x="1128" y="0" type="line"/>
      <point x="1011" y="-20"/>
      <point x="940" y="-20" type="qcurve" smooth="yes"/>
      <point x="743" y="-20"/>
      <point x="743" y="129" type="qcurve" smooth="yes"/>
      <point x="743" y="168" type="line"/>
      <point x="715" y="114"/>
      <point x="537" y="-20"/>
      <point x="463" y="-20" type="qcurve" smooth="yes"/>
      <point x="418" y="-20"/>
      <point x="369" y="18"/>
      <point x="369" y="53" type="qcurve"/>
      <point x="289" y="-436" type="line"/>
      <point x="-100" y="-436" type="line"/>
    </contour>
  </outline>
</glyph>
<glyph name="paragraph" format="2">
  <advance width="1398"/>
  <unicode hex="00B6"/>
  <outline>
    <contour>
      <point x="807" y="1454" type="qcurve" smooth="yes"/>
      <point x="1487" y="1454" type="line"/>
      <point x="1425" y="1167" type="line"/>
      <point x="1288" y="1167" type="line"/>
      <point x="1006" y="-164" type="line"/>
      <point x="678" y="-164" type="line"/>
      <point x="795" y="385" type="line"/>
      <point x="741" y="385" type="line"/>
      <point x="625" y="-164" type="line"/>
      <point x="297" y="-164" type="line"/>
      <point x="414" y="385" type="line"/>
      <point x="279" y="385"/>
      <point x="123" y="598"/>
      <point x="123" y="772" type="qcurve" smooth="yes"/>
      <point x="123" y="1085"/>
      <point x="491" y="1454"/>
    </contour>
    <contour>
      <point x="475" y="672" type="qcurve"/>
      <point x="582" y="1167" type="line"/>
      <point x="555" y="1160"/>
      <point x="492" y="1050"/>
      <point x="446" y="876"/>
      <point x="446" y="793" type="qcurve" smooth="yes"/>
      <point x="446" y="745"/>
      <point x="462" y="676"/>
    </contour>
    <contour>
      <point x="963" y="1167" type="line"/>
      <point x="907" y="1167" type="line"/>
      <point x="803" y="672" type="line"/>
      <point x="856" y="672" type="line"/>
    </contour>
  </outline>
</glyph>
<glyph name="periodcentered" format="2">
  <advance width="520"/>
  <unicode hex="00B7"/>
  <outline>
    <contour>
      <point x="74" y="487" type="line"/>
      <point x="154" y="864" type="line"/>
      <point x="469" y="864" type="line"/>
      <point x="389" y="487" type="line"/>
    </contour>
  </outline>
</glyph>
<glyph name="cedilla" format="2">
  <advance width="659"/>
  <unicode hex="00B8"/>
  <outline>
    <contour>
      <point x="117" y="-451" type="qcurve" smooth="yes"/>
      <point x="9" y="-451"/>
      <point x="-92" y="-381" type="qcurve"/>
      <point x="41" y="-182" type="line"/>
      <point x="64" y="-221"/>
      <point x="106" y="-221" type="qcurve" smooth="yes"/>
      <point x="139" y="-221"/>
      <point x="190" y="-167"/>
      <point x="190" y="-123" type="qcurve" smooth="yes"/>
      <point x="190" y="-62"/>
      <point x="158" y="0" type="qcurve"/>
      <point x="293" y="74" type="line"/>
      <point x="399" y="-53"/>
      <point x="399" y="-174" type="qcurve" smooth="yes"/>
      <point x="399" y="-284"/>
      <point x="248" y="-451"/>
    </contour>
  </outline>
</glyph>
<glyph name="onesuperior" format="2">
  <advance width="638"/>
  <unicode hex="00B9"/>
  <outline>
    <contour>
      <point x="674" y="993" type="line"/>
      <point x="627" y="774" type="line"/>
      <point x="127" y="774" type="line"/>
      <point x="174" y="993" type="line"/>
      <point x="322" y="993" type="line"/>
      <point x="418" y="1446" type="line"/>
      <point x="386" y="1412"/>
      <point x="254" y="1337"/>
      <point x="213" y="1337" type="qcurve"/>
      <point x="260" y="1561" type="line"/>
      <point x="296" y="1561"/>
      <point x="399" y="1621"/>
      <point x="465" y="1676"/>
      <point x="467" y="1681" type="qcurve"/>
      <point x="692" y="1681" type="line"/>
      <point x="545" y="993" type="line"/>
    </contour>
  </outline>
</glyph>
<glyph name="ordmasculine" format="2">
  <advance width="868"/>
  <unicode hex="00BA"/>
  <anchor x="0" y="0" name="Anchor-11"/>
  <anchor x="0" y="0" name="Anchor-10"/>
  <anchor x="463" y="1063" name="Anchor-9"/>
  <anchor x="0" y="0" name="Anchor-8"/>
  <anchor x="461" y="0" name="Anchor-7"/>
  <outline>
    <contour>
      <point x="145" y="991" type="qcurve" smooth="yes"/>
      <point x="145" y="1081"/>
      <point x="210" y="1250"/>
      <point x="327" y="1383"/>
      <point x="506" y="1464"/>
      <point x="612" y="1464" type="qcurve" smooth="yes"/>
      <point x="760" y="1464"/>
      <point x="913" y="1291"/>
      <point x="913" y="1157" type="qcurve" smooth="yes"/>
      <point x="913" y="1067"/>
      <point x="848" y="897"/>
      <point x="732" y="763"/>
      <point x="552" y="682"/>
      <point x="446" y="682" type="qcurve" smooth="yes"/>
      <point x="299" y="682"/>
      <point x="145" y="857"/>
    </contour>
    <contour>
      <point x="639" y="1122" type="qcurve" smooth="yes"/>
      <point x="639" y="1175"/>
      <point x="599" y="1235"/>
      <point x="563" y="1235" type="qcurve" smooth="yes"/>
      <point x="504" y="1235"/>
      <point x="420" y="1113"/>
      <point x="420" y="1024" type="qcurve" smooth="yes"/>
      <point x="420" y="972"/>
      <point x="461" y="911"/>
      <point x="496" y="911" type="qcurve" smooth="yes"/>
      <point x="555" y="911"/>
      <point x="639" y="1033"/>
    </contour>
  </outline>
</glyph>
<glyph name="guillemotright" format="2">
  <advance width="1419"/>
  <unicode hex="00BB"/>
  <outline>
    <contour>
      <point x="614" y="430" type="line"/>
      <point x="-8" y="61" type="line"/>
      <point x="57" y="373" type="line"/>
      <point x="330" y="530" type="line"/>
      <point x="129" y="705" type="line"/>
      <point x="195" y="1016" type="line"/>
      <point x="651" y="610" type="line"/>
    </contour>
    <contour>
      <point x="1317" y="430" type="line"/>
      <point x="696" y="61" type="line"/>
      <point x="762" y="373" type="line"/>
      <point x="1034" y="530" type="line"/>
      <point x="831" y="705" type="line"/>
      <point x="899" y="1016" type="line"/>
      <point x="1356" y="610" type="line"/>
    </contour>
  </outline>
</glyph>
<glyph name="onequarter" format="2">
  <advance width="1906"/>
  <unicode hex="00BC"/>
  <outline>
    <contour>
      <point x="637" y="809" type="line"/>
      <point x="590" y="590" type="line"/>
      <point x="90" y="590" type="line"/>
      <point x="137" y="809" type="line"/>
      <point x="285" y="809" type="line"/>
      <point x="381" y="1262" type="line"/>
      <point x="349" y="1228"/>
      <point x="217" y="1153"/>
      <point x="176" y="1153" type="qcurve"/>
      <point x="223" y="1376" type="line"/>
      <point x="259" y="1376"/>
      <point x="362" y="1436"/>
      <point x="428" y="1492"/>
      <point x="430" y="1497" type="qcurve"/>
      <point x="655" y="1497" type="line"/>
      <point x="508" y="809" type="line"/>
    </contour>
    <contour>
      <point x="182" y="133" type="line"/>
      <point x="872" y="786" type="line"/>
      <point x="1503" y="1477" type="line"/>
      <point x="1640" y="1323" type="line"/>
      <point x="979" y="690" type="line"/>
      <point x="319" y="-20" type="line"/>
    </contour>
    <contour>
      <point x="1346" y="2" type="line"/>
      <point x="1391" y="193" type="line"/>
      <point x="1032" y="193" type="line"/>
      <point x="1079" y="391" type="line"/>
      <point x="1645" y="903" type="line"/>
      <point x="1815" y="903" type="line"/>
      <point x="1690" y="369" type="line"/>
      <point x="1784" y="369" type="line"/>
      <point x="1745" y="193" type="line"/>
      <point x="1651" y="193" type="line"/>
      <point x="1606" y="2" type="line"/>
    </contour>
    <contour>
      <point x="1272" y="369" type="line"/>
      <point x="1438" y="369" type="line"/>
      <point x="1491" y="598" type="line"/>
    </contour>
  </outline>
</glyph>
<glyph name="onehalf" format="2">
  <advance width="1986"/>
  <unicode hex="00BD"/>
  <outline>
    <contour>
      <point x="637" y="809" type="line"/>
      <point x="590" y="590" type="line"/>
      <point x="90" y="590" type="line"/>
      <point x="137" y="809" type="line"/>
      <point x="285" y="809" type="line"/>
      <point x="381" y="1262" type="line"/>
      <point x="349" y="1228"/>
      <point x="217" y="1153"/>
      <point x="176" y="1153" type="qcurve"/>
      <point x="223" y="1376" type="line"/>
      <point x="259" y="1376"/>
      <point x="362" y="1436"/>
      <point x="428" y="1492"/>
      <point x="430" y="1497" type="qcurve"/>
      <point x="655" y="1497" type="line"/>
      <point x="508" y="809" type="line"/>
    </contour>
    <contour>
      <point x="182" y="133" type="line"/>
      <point x="872" y="786" type="line"/>
      <point x="1503" y="1477" type="line"/>
      <point x="1640" y="1323" type="line"/>
      <point x="979" y="690" type="line"/>
      <point x="319" y="-20" type="line"/>
    </contour>
    <contour>
      <point x="1071" y="-2" type="line"/>
      <point x="1097" y="112"/>
      <point x="1165" y="250"/>
      <point x="1290" y="360"/>
      <point x="1399" y="412" type="qcurve" smooth="yes"/>
      <point x="1421" y="422"/>
      <point x="1503" y="458"/>
      <point x="1552" y="480"/>
      <point x="1616" y="517"/>
      <point x="1651" y="551"/>
      <point x="1677" y="598"/>
      <point x="1677" y="625" type="qcurve" smooth="yes"/>
      <point x="1677" y="665"/>
      <point x="1620" y="711"/>
      <point x="1575" y="711" type="qcurve" smooth="yes"/>
      <point x="1458" y="711"/>
      <point x="1337" y="602" type="qcurve"/>
      <point x="1243" y="766" type="line"/>
      <point x="1301" y="828"/>
      <point x="1523" y="909"/>
      <point x="1640" y="909" type="qcurve" smooth="yes"/>
      <point x="1774" y="909"/>
      <point x="1921" y="788"/>
      <point x="1921" y="680" type="qcurve" smooth="yes"/>
      <point x="1921" y="615"/>
      <point x="1878" y="502"/>
      <point x="1818" y="429"/>
      <point x="1732" y="368"/>
      <point x="1666" y="337"/>
      <point x="1630" y="324" type="qcurve" smooth="yes"/>
      <point x="1590" y="310"/>
      <point x="1556" y="296"/>
      <point x="1503" y="269"/>
      <point x="1477" y="237"/>
      <point x="1473" y="217" type="qcurve"/>
      <point x="1825" y="217" type="line"/>
      <point x="1776" y="-2" type="line"/>
    </contour>
  </outline>
</glyph>
<glyph name="threequarters" format="2">
  <advance width="2099"/>
  <unicode hex="00BE"/>
  <outline>
    <contour>
      <point x="78" y="717" type="qcurve"/>
      <point x="221" y="868" type="line"/>
      <point x="263" y="826"/>
      <point x="349" y="786"/>
      <point x="414" y="786" type="qcurve" smooth="yes"/>
      <point x="565" y="786"/>
      <point x="565" y="887" type="qcurve" smooth="yes"/>
      <point x="565" y="925"/>
      <point x="495" y="956"/>
      <point x="399" y="956" type="qcurve" smooth="yes"/>
      <point x="352" y="956" type="line"/>
      <point x="395" y="1153" type="line"/>
      <point x="440" y="1153" type="line" smooth="yes"/>
      <point x="514" y="1153"/>
      <point x="593" y="1174"/>
      <point x="618" y="1208"/>
      <point x="618" y="1239" type="qcurve" smooth="yes"/>
      <point x="618" y="1300"/>
      <point x="537" y="1300" type="qcurve" smooth="yes"/>
      <point x="419" y="1300"/>
      <point x="313" y="1214" type="qcurve"/>
      <point x="223" y="1382" type="line"/>
      <point x="284" y="1436"/>
      <point x="504" y="1497"/>
      <point x="604" y="1497" type="qcurve" smooth="yes"/>
      <point x="735" y="1497"/>
      <point x="883" y="1380"/>
      <point x="883" y="1284" type="qcurve" smooth="yes"/>
      <point x="883" y="1202"/>
      <point x="779" y="1085"/>
      <point x="696" y="1067" type="qcurve"/>
      <point x="749" y="1057"/>
      <point x="807" y="953"/>
      <point x="807" y="881" type="qcurve" smooth="yes"/>
      <point x="807" y="816"/>
      <point x="759" y="710"/>
      <point x="678" y="639"/>
      <point x="568" y="592"/>
      <point x="447" y="571"/>
      <point x="381" y="571" type="qcurve" smooth="yes"/>
      <point x="266" y="571"/>
      <point x="100" y="645"/>
    </contour>
    <contour>
      <point x="375" y="133" type="line"/>
      <point x="1065" y="786" type="line"/>
      <point x="1696" y="1477" type="line"/>
      <point x="1833" y="1323" type="line"/>
      <point x="1171" y="690" type="line"/>
      <point x="512" y="-20" type="line"/>
    </contour>
    <contour>
      <point x="1538" y="2" type="line"/>
      <point x="1583" y="193" type="line"/>
      <point x="1225" y="193" type="line"/>
      <point x="1272" y="391" type="line"/>
      <point x="1837" y="903" type="line"/>
      <point x="2007" y="903" type="line"/>
      <point x="1882" y="369" type="line"/>
      <point x="1976" y="369" type="line"/>
      <point x="1937" y="193" type="line"/>
      <point x="1843" y="193" type="line"/>
      <point x="1798" y="2" type="line"/>
    </contour>
    <contour>
      <point x="1464" y="369" type="line"/>
      <point x="1630" y="369" type="line"/>
      <point x="1683" y="598" type="line"/>
    </contour>
  </outline>
</glyph>
<glyph name="questiondown" format="2">
  <advance width="974"/>
  <unicode hex="00BF"/>
  <outline>
    <contour>
      <point x="881" y="1036" type="line"/>
      <point x="809" y="700" type="line"/>
      <point x="492" y="700" type="line"/>
      <point x="563" y="1036" type="line"/>
    </contour>
    <contour>
      <point x="774" y="506" type="line"/>
      <point x="763" y="454"/>
      <point x="740" y="385"/>
      <point x="694" y="302"/>
      <point x="615" y="234"/>
      <point x="557" y="205" type="qcurve" smooth="yes"/>
      <point x="396" y="127"/>
      <point x="270" y="22"/>
      <point x="270" y="-39" type="qcurve" smooth="yes"/>
      <point x="270" y="-77"/>
      <point x="319" y="-123"/>
      <point x="356" y="-123" type="qcurve" smooth="yes"/>
      <point x="387" y="-123"/>
      <point x="446" y="-91"/>
      <point x="476" y="-61"/>
      <point x="524" y="-1"/>
      <point x="528" y="4" type="qcurve"/>
      <point x="739" y="-172" type="line"/>
      <point x="664" y="-296"/>
      <point x="416" y="-436"/>
      <point x="274" y="-436" type="qcurve" smooth="yes"/>
      <point x="206" y="-436"/>
      <point x="84" y="-400"/>
      <point x="-18" y="-325"/>
      <point x="-78" y="-195"/>
      <point x="-78" y="-109" type="qcurve" smooth="yes"/>
      <point x="-78" y="45"/>
      <point x="41" y="234"/>
      <point x="152" y="303" type="qcurve" smooth="yes"/>
      <point x="196" y="331"/>
      <point x="362" y="405"/>
      <point x="449" y="466"/>
      <point x="457" y="506" type="qcurve"/>
    </contour>
  </outline>
</glyph>
<glyph name="Agrave" format="2">
  <advance width="1302"/>
  <unicode hex="00C0"/>
  <anchor x="0" y="0" name="Anchor-11"/>
  <anchor x="0" y="0" name="Anchor-10"/>
  <anchor x="815" y="1872" name="Anchor-9"/>
  <anchor x="1184" y="0" name="Anchor-8"/>
  <anchor x="537" y="0" name="Anchor-7"/>
  <outline>
    <contour>
      <point x="592" y="1872" type="line"/>
      <point x="936" y="1872" type="line"/>
      <point x="971" y="1581" type="line"/>
      <point x="700" y="1552" type="line"/>
    </contour>
    <contour>
      <point x="655" y="1454" type="line"/>
      <point x="1022" y="1454" type="line"/>
      <point x="1184" y="0" type="line"/>
      <point x="778" y="0" type="line"/>
      <point x="764" y="285" type="line"/>
      <point x="416" y="285" type="line"/>
      <point x="283" y="0" type="line"/>
      <point x="-125" y="0" type="line"/>
    </contour>
    <contour>
      <point x="758" y="551" type="line"/>
      <point x="741" y="1001" type="line"/>
      <point x="530" y="551" type="line"/>
    </contour>
  </outline>
</glyph>
<glyph name="Aacute" format="2">
  <advance width="1302"/>
  <unicode hex="00C1"/>
  <anchor x="0" y="0" name="Anchor-11"/>
  <anchor x="0" y="0" name="Anchor-10"/>
  <anchor x="1004" y="1880" name="Anchor-9"/>
  <anchor x="1184" y="0" name="Anchor-8"/>
  <anchor x="537" y="0" name="Anchor-7"/>
  <outline>
    <contour>
      <point x="993" y="1565" type="line"/>
      <point x="731" y="1589" type="line"/>
      <point x="889" y="1880" type="line"/>
      <point x="1233" y="1880" type="line"/>
    </contour>
    <contour>
      <point x="655" y="1454" type="line"/>
      <point x="1022" y="1454" type="line"/>
      <point x="1184" y="0" type="line"/>
      <point x="778" y="0" type="line"/>
      <point x="764" y="285" type="line"/>
      <point x="416" y="285" type="line"/>
      <point x="283" y="0" type="line"/>
      <point x="-125" y="0" type="line"/>
    </contour>
    <contour>
      <point x="758" y="551" type="line"/>
      <point x="741" y="1001" type="line"/>
      <point x="530" y="551" type="line"/>
    </contour>
  </outline>
</glyph>
<glyph name="Acircumflex" format="2">
  <advance width="1302"/>
  <unicode hex="00C2"/>
  <anchor x="0" y="0" name="Anchor-11"/>
  <anchor x="0" y="0" name="Anchor-10"/>
  <anchor x="913" y="1872" name="Anchor-9"/>
  <anchor x="1184" y="0" name="Anchor-8"/>
  <anchor x="537" y="0" name="Anchor-7"/>
  <outline>
    <contour>
      <point x="518" y="1636" type="line"/>
      <point x="791" y="1872" type="line"/>
      <point x="1069" y="1872" type="line"/>
      <point x="1241" y="1636" type="line"/>
      <point x="1026" y="1550" type="line"/>
      <point x="889" y="1679" type="line"/>
      <point x="696" y="1550" type="line"/>
    </contour>
    <contour>
      <point x="655" y="1454" type="line"/>
      <point x="1022" y="1454" type="line"/>
      <point x="1184" y="0" type="line"/>
      <point x="778" y="0" type="line"/>
      <point x="764" y="285" type="line"/>
      <point x="416" y="285" type="line"/>
      <point x="283" y="0" type="line"/>
      <point x="-125" y="0" type="line"/>
    </contour>
    <contour>
      <point x="758" y="551" type="line"/>
      <point x="741" y="1001" type="line"/>
      <point x="530" y="551" type="line"/>
    </contour>
  </outline>
</glyph>
<glyph name="Atilde" format="2">
  <advance width="1302"/>
  <unicode hex="00C3"/>
  <anchor x="0" y="0" name="Anchor-11"/>
  <anchor x="0" y="0" name="Anchor-10"/>
  <anchor x="928" y="1872" name="Anchor-9"/>
  <anchor x="1184" y="0" name="Anchor-8"/>
  <anchor x="537" y="0" name="Anchor-7"/>
  <outline>
    <contour>
      <point x="754" y="1647" type="qcurve" smooth="yes"/>
      <point x="729" y="1647"/>
      <point x="689" y="1627"/>
      <point x="666" y="1600"/>
      <point x="650" y="1569"/>
      <point x="645" y="1551"/>
      <point x="645" y="1548" type="qcurve"/>
      <point x="438" y="1548" type="line"/>
      <point x="443" y="1572"/>
      <point x="477" y="1647"/>
      <point x="541" y="1739"/>
      <point x="619" y="1818"/>
      <point x="728" y="1872"/>
      <point x="784" y="1872" type="qcurve" smooth="yes"/>
      <point x="827" y="1872"/>
      <point x="900" y="1839"/>
      <point x="941" y="1800"/>
      <point x="997" y="1767"/>
      <point x="1055" y="1767"/>
      <point x="1103" y="1796"/>
      <point x="1131" y="1841"/>
      <point x="1142" y="1863"/>
      <point x="1145" y="1872" type="qcurve"/>
      <point x="1350" y="1872" type="line"/>
      <point x="1347" y="1859"/>
      <point x="1321" y="1804"/>
      <point x="1277" y="1730"/>
      <point x="1212" y="1654"/>
      <point x="1138" y="1589"/>
      <point x="1043" y="1548"/>
      <point x="995" y="1548" type="qcurve" smooth="yes"/>
      <point x="955" y="1548"/>
      <point x="884" y="1579"/>
      <point x="841" y="1616"/>
      <point x="783" y="1647"/>
    </contour>
    <contour>
      <point x="655" y="1454" type="line"/>
      <point x="1022" y="1454" type="line"/>
      <point x="1184" y="0" type="line"/>
      <point x="778" y="0" type="line"/>
      <point x="764" y="285" type="line"/>
      <point x="416" y="285" type="line"/>
      <point x="283" y="0" type="line"/>
      <point x="-125" y="0" type="line"/>
    </contour>
    <contour>
      <point x="758" y="551" type="line"/>
      <point x="741" y="1001" type="line"/>
      <point x="530" y="551" type="line"/>
    </contour>
  </outline>
</glyph>
<glyph name="Aring" format="2">
  <advance width="1302"/>
  <unicode hex="00C5"/>
  <anchor x="0" y="0" name="Anchor-11"/>
  <anchor x="0" y="0" name="Anchor-10"/>
  <anchor x="928" y="1872" name="Anchor-9"/>
  <anchor x="1184" y="0" name="Anchor-8"/>
  <anchor x="537" y="0" name="Anchor-7"/>
  <outline>
    <contour>
      <point x="930" y="1872" type="qcurve" smooth="yes"/>
      <point x="1025" y="1872"/>
      <point x="1130" y="1799"/>
      <point x="1130" y="1729" type="qcurve" smooth="yes"/>
      <point x="1130" y="1627"/>
      <point x="980" y="1516"/>
      <point x="854" y="1516" type="qcurve" smooth="yes"/>
      <point x="759" y="1516"/>
      <point x="651" y="1590"/>
      <point x="651" y="1659" type="qcurve" smooth="yes"/>
      <point x="651" y="1761"/>
      <point x="803" y="1872"/>
    </contour>
    <contour>
      <point x="813" y="1683" type="qcurve" smooth="yes"/>
      <point x="813" y="1657"/>
      <point x="848" y="1626"/>
      <point x="877" y="1626" type="qcurve" smooth="yes"/>
      <point x="914" y="1626"/>
      <point x="971" y="1673"/>
      <point x="971" y="1706" type="qcurve" smooth="yes"/>
      <point x="971" y="1731"/>
      <point x="934" y="1761"/>
      <point x="905" y="1761" type="qcurve" smooth="yes"/>
      <point x="866" y="1761"/>
      <point x="813" y="1716"/>
    </contour>
    <contour>
      <point x="655" y="1454" type="line"/>
      <point x="1022" y="1454" type="line"/>
      <point x="1184" y="0" type="line"/>
      <point x="778" y="0" type="line"/>
      <point x="764" y="285" type="line"/>
      <point x="416" y="285" type="line"/>
      <point x="283" y="0" type="line"/>
      <point x="-125" y="0" type="line"/>
    </contour>
    <contour>
      <point x="758" y="551" type="line"/>
      <point x="741" y="1001" type="line"/>
      <point x="530" y="551" type="line"/>
    </contour>
  </outline>
</glyph>
<glyph name="Egrave" format="2">
  <advance width="1177"/>
  <unicode hex="00C8"/>
  <anchor x="0" y="0" name="Anchor-11"/>
  <anchor x="0" y="0" name="Anchor-10"/>
  <anchor x="760" y="1872" name="Anchor-9"/>
  <anchor x="983" y="0" name="Anchor-8"/>
  <anchor x="475" y="0" name="Anchor-7"/>
  <outline>
    <contour>
      <point x="537" y="1872" type="line"/>
      <point x="881" y="1872" type="line"/>
      <point x="915" y="1581" type="line"/>
      <point x="645" y="1552" type="line"/>
    </contour>
    <contour>
      <point x="303" y="1454" type="line"/>
      <point x="1274" y="1454" type="line"/>
      <point x="1200" y="1106" type="line"/>
      <point x="629" y="1106" type="line"/>
      <point x="586" y="901" type="line"/>
      <point x="1073" y="901" type="line"/>
      <point x="1004" y="578" type="line"/>
      <point x="516" y="578" type="line"/>
      <point x="467" y="348" type="line"/>
      <point x="1057" y="348" type="line"/>
      <point x="983" y="0" type="line"/>
      <point x="-6" y="0" type="line"/>
    </contour>
  </outline>
</glyph>
<glyph name="Igrave" format="2">
  <advance width="649"/>
  <unicode hex="00CC"/>
  <anchor x="0" y="0" name="Anchor-11"/>
  <anchor x="0" y="0" name="Anchor-10"/>
  <anchor x="496" y="1872" name="Anchor-9"/>
  <anchor x="393" y="0" name="Anchor-8"/>
  <anchor x="211" y="0" name="Anchor-7"/>
  <outline>
    <contour>
      <point x="272" y="1872" type="line"/>
      <point x="616" y="1872" type="line"/>
      <point x="651" y="1581" type="line"/>
      <point x="381" y="1552" type="line"/>
    </contour>
    <contour>
      <point x="303" y="1454" type="line"/>
      <point x="702" y="1454" type="line"/>
      <point x="393" y="0" type="line"/>
      <point x="-6" y="0" type="line"/>
    </contour>
  </outline>
</glyph>
<glyph name="Iacute" format="2">
  <advance width="649"/>
  <unicode hex="00CD"/>
  <anchor x="0" y="0" name="Anchor-11"/>
  <anchor x="0" y="0" name="Anchor-10"/>
  <anchor x="684" y="1880" name="Anchor-9"/>
  <anchor x="393" y="0" name="Anchor-8"/>
  <anchor x="211" y="0" name="Anchor-7"/>
  <outline>
    <contour>
      <point x="674" y="1565" type="line"/>
      <point x="412" y="1589" type="line"/>
      <point x="569" y="1880" type="line"/>
      <point x="913" y="1880" type="line"/>
    </contour>
    <contour>
      <point x="303" y="1454" type="line"/>
      <point x="702" y="1454" type="line"/>
      <point x="393" y="0" type="line"/>
      <point x="-6" y="0" type="line"/>
    </contour>
  </outline>
</glyph>
<glyph name="Icircumflex" format="2">
  <advance width="649"/>
  <unicode hex="00CE"/>
  <anchor x="0" y="0" name="Anchor-11"/>
  <anchor x="0" y="0" name="Anchor-10"/>
  <anchor x="594" y="1872" name="Anchor-9"/>
  <anchor x="393" y="0" name="Anchor-8"/>
  <anchor x="211" y="0" name="Anchor-7"/>
  <outline>
    <contour>
      <point x="199" y="1636" type="line"/>
      <point x="471" y="1872" type="line"/>
      <point x="750" y="1872" type="line"/>
      <point x="922" y="1636" type="line"/>
      <point x="707" y="1550" type="line"/>
      <point x="569" y="1679" type="line"/>
      <point x="377" y="1550" type="line"/>
    </contour>
    <contour>
      <point x="303" y="1454" type="line"/>
      <point x="702" y="1454" type="line"/>
      <point x="393" y="0" type="line"/>
      <point x="-6" y="0" type="line"/>
    </contour>
  </outline>
</glyph>
<glyph name="Ntilde" format="2">
  <advance width="1484"/>
  <unicode hex="00D1"/>
  <anchor x="0" y="0" name="Anchor-11"/>
  <anchor x="0" y="0" name="Anchor-10"/>
  <anchor x="987" y="1868" name="Anchor-9"/>
  <anchor x="0" y="0" name="Anchor-8"/>
  <anchor x="621" y="0" name="Anchor-7"/>
  <outline>
    <contour>
      <point x="813" y="1642" type="qcurve" smooth="yes"/>
      <point x="788" y="1642"/>
      <point x="748" y="1622"/>
      <point x="726" y="1595"/>
      <point x="710" y="1565"/>
      <point x="705" y="1547"/>
      <point x="705" y="1544" type="qcurve"/>
      <point x="498" y="1544" type="line"/>
      <point x="503" y="1568"/>
      <point x="537" y="1643"/>
      <point x="601" y="1735"/>
      <point x="679" y="1814"/>
      <point x="788" y="1868"/>
      <point x="844" y="1868" type="qcurve" smooth="yes"/>
      <point x="887" y="1868"/>
      <point x="960" y="1835"/>
      <point x="1000" y="1796"/>
      <point x="1056" y="1763"/>
      <point x="1114" y="1763"/>
      <point x="1162" y="1792"/>
      <point x="1190" y="1837"/>
      <point x="1201" y="1859"/>
      <point x="1204" y="1868" type="qcurve"/>
      <point x="1409" y="1868" type="line"/>
      <point x="1405" y="1851"/>
      <point x="1371" y="1781"/>
      <point x="1305" y="1686"/>
      <point x="1225" y="1603"/>
      <point x="1112" y="1544"/>
      <point x="1055" y="1544" type="qcurve" smooth="yes"/>
      <point x="1015" y="1544"/>
      <point x="944" y="1575"/>
      <point x="901" y="1611"/>
      <point x="842" y="1642"/>
    </contour>
    <contour>
      <point x="303" y="1454" type="line"/>
      <point x="614" y="1454" type="line"/>
      <point x="983" y="715" type="line"/>
      <point x="1139" y="1454" type="line"/>
      <point x="1538" y="1454" type="line"/>
      <point x="1229" y="0" type="line"/>
      <point x="913" y="0" type="line"/>
      <point x="545" y="715" type="line"/>
      <point x="393" y="0" type="line"/>
      <point x="-6" y="0" type="line"/>
    </contour>
  </outline>
</glyph>
<glyph name="multiply" format="2">
  <advance width="1036"/>
  <unicode hex="00D7"/>
  <outline>
    <contour>
      <point x="922" y="391" type="line"/>
      <point x="678" y="150" type="line"/>
      <point x="500" y="328" type="line"/>
      <point x="322" y="150" type="line"/>
      <point x="82" y="391" type="line"/>
      <point x="258" y="567" type="line"/>
      <point x="94" y="733" type="line"/>
      <point x="338" y="975" type="line"/>
      <point x="502" y="811" type="line"/>
      <point x="666" y="975" type="line"/>
      <point x="905" y="733" type="line"/>
      <point x="741" y="569" type="line"/>
    </contour>
  </outline>
</glyph>
<glyph name="Oslash" format="2">
  <advance width="1511"/>
  <unicode hex="00D8"/>
  <anchor x="1262" y="1303" name="Anchor-11"/>
  <anchor x="776" y="727" name="Anchor-10"/>
  <anchor x="938" y="1450" name="Anchor-9"/>
  <anchor x="760" y="0" name="Anchor-8"/>
  <anchor x="645" y="0" name="Anchor-7"/>
  <outline>
    <contour>
      <point x="1653" y="1454" type="line"/>
      <point x="1415" y="1192" type="line"/>
      <point x="1501" y="1041"/>
      <point x="1501" y="852" type="qcurve" smooth="yes"/>
      <point x="1501" y="691"/>
      <point x="1357" y="376"/>
      <point x="1120" y="136"/>
      <point x="793" y="-12"/>
      <point x="621" y="-12" type="qcurve" smooth="yes"/>
      <point x="486" y="-12"/>
      <point x="373" y="43" type="qcurve"/>
      <point x="334" y="0" type="line"/>
      <point x="-94" y="0" type="line"/>
      <point x="143" y="260" type="line"/>
      <point x="57" y="411"/>
      <point x="57" y="598" type="qcurve" smooth="yes"/>
      <point x="57" y="760"/>
      <point x="203" y="1076"/>
      <point x="442" y="1315"/>
      <point x="770" y="1462"/>
      <point x="942" y="1462" type="qcurve" smooth="yes"/>
      <point x="1075" y="1462"/>
      <point x="1186" y="1411" type="qcurve"/>
      <point x="1225" y="1454" type="line"/>
    </contour>
    <contour>
      <point x="467" y="629" type="qcurve" smooth="yes"/>
      <point x="467" y="618" type="line"/>
      <point x="907" y="1104" type="line"/>
      <point x="879" y="1108"/>
      <point x="860" y="1108" type="qcurve" smooth="yes"/>
      <point x="785" y="1108"/>
      <point x="655" y="1049"/>
      <point x="564" y="952"/>
      <point x="498" y="827"/>
      <point x="467" y="694"/>
    </contour>
    <contour>
      <point x="1094" y="825" type="qcurve" smooth="yes"/>
      <point x="1094" y="838" type="line"/>
      <point x="647" y="346" type="line"/>
      <point x="679" y="342"/>
      <point x="698" y="342" type="qcurve" smooth="yes"/>
      <point x="774" y="342"/>
      <point x="905" y="402"/>
      <point x="997" y="501"/>
      <point x="1063" y="627"/>
      <point x="1094" y="760"/>
    </contour>
  </outline>
</glyph>
<glyph name="Ucircumflex" format="2">
  <advance width="1460"/>
  <unicode hex="00DB"/>
  <anchor x="1536" y="1298" name="Anchor-11"/>
  <anchor x="0" y="0" name="Anchor-10"/>
  <anchor x="979" y="1868" name="Anchor-9"/>
  <anchor x="735" y="0" name="Anchor-8"/>
  <anchor x="594" y="0" name="Anchor-7"/>
  <outline>
    <contour>
      <point x="584" y="1632" type="line"/>
      <point x="856" y="1868" type="line"/>
      <point x="1135" y="1868" type="line"/>
      <point x="1307" y="1632" type="line"/>
      <point x="1092" y="1546" type="line"/>
      <point x="954" y="1675" type="line"/>
      <point x="762" y="1546" type="line"/>
    </contour>
    <contour>
      <point x="98" y="487" type="qcurve" smooth="yes"/>
      <point x="98" y="588"/>
      <point x="123" y="707" type="qcurve" smooth="yes"/>
      <point x="283" y="1454" type="line"/>
      <point x="682" y="1454" type="line"/>
      <point x="522" y="707" type="line" smooth="yes"/>
      <point x="506" y="625"/>
      <point x="506" y="561" type="qcurve" smooth="yes"/>
      <point x="506" y="460"/>
      <point x="587" y="342"/>
      <point x="672" y="342" type="qcurve" smooth="yes"/>
      <point x="731" y="342"/>
      <point x="834" y="402"/>
      <point x="908" y="507"/>
      <point x="961" y="634"/>
      <point x="977" y="707" type="qcurve" smooth="yes"/>
      <point x="1137" y="1454" type="line"/>
      <point x="1536" y="1454" type="line"/>
      <point x="1376" y="707" type="line" smooth="yes"/>
      <point x="1343" y="552"/>
      <point x="1211" y="294"/>
      <point x="1019" y="98"/>
      <point x="752" y="-12"/>
      <point x="596" y="-12" type="qcurve" smooth="yes"/>
      <point x="466" y="-12"/>
      <point x="271" y="63"/>
      <point x="155" y="199"/>
      <point x="98" y="377"/>
    </contour>
  </outline>
</glyph>
<glyph name="Yacute" format="2">
  <advance width="1284"/>
  <unicode hex="00DD"/>
  <anchor x="0" y="0" name="Anchor-11"/>
  <anchor x="0" y="0" name="Anchor-10"/>
  <anchor x="958" y="1876" name="Anchor-9"/>
  <anchor x="0" y="0" name="Anchor-8"/>
  <anchor x="0" y="0" name="Anchor-7"/>
  <outline>
    <contour>
      <point x="948" y="1561" type="line"/>
      <point x="686" y="1585" type="line"/>
      <point x="844" y="1876" type="line"/>
      <point x="1188" y="1876" type="line"/>
    </contour>
    <contour>
      <point x="406" y="485" type="line"/>
      <point x="147" y="1454" type="line"/>
      <point x="580" y="1454" type="line"/>
      <point x="676" y="825" type="line"/>
      <point x="1047" y="1454" type="line"/>
      <point x="1481" y="1454" type="line"/>
      <point x="801" y="481" type="line"/>
      <point x="698" y="0" type="line"/>
      <point x="301" y="0" type="line"/>
    </contour>
  </outline>
</glyph>
<glyph name="Thorn" format="2">
  <advance width="1198"/>
  <unicode hex="00DE"/>
  <outline>
    <contour>
      <point x="303" y="1454" type="line"/>
      <point x="702" y="1454" type="line"/>
      <point x="651" y="1212" type="line"/>
      <point x="819" y="1212" type="line" smooth="yes"/>
      <point x="933" y="1212"/>
      <point x="1107" y="1091"/>
      <point x="1194" y="903"/>
      <point x="1194" y="795" type="qcurve" smooth="yes"/>
      <point x="1194" y="710"/>
      <point x="1135" y="538"/>
      <point x="1027" y="390"/>
      <point x="885" y="274"/>
      <point x="708" y="207"/>
      <point x="616" y="207" type="qcurve" smooth="yes"/>
      <point x="436" y="207" type="line"/>
      <point x="393" y="0" type="line"/>
      <point x="-6" y="0" type="line"/>
    </contour>
    <contour>
      <point x="670" y="555" type="line" smooth="yes"/>
      <point x="710" y="555"/>
      <point x="791" y="674"/>
      <point x="791" y="754" type="qcurve" smooth="yes"/>
      <point x="791" y="805"/>
      <point x="752" y="864"/>
      <point x="725" y="864" type="qcurve" smooth="yes"/>
      <point x="578" y="864" type="line"/>
      <point x="512" y="555" type="line"/>
    </contour>
  </outline>
</glyph>
<glyph name="germandbls" format="2">
  <advance width="1118"/>
  <unicode hex="00DF"/>
  <outline>
    <contour>
      <point x="449" y="344" type="line"/>
      <point x="525" y="344"/>
      <point x="639" y="436"/>
      <point x="639" y="512" type="qcurve" smooth="yes"/>
      <point x="639" y="564"/>
      <point x="574" y="621"/>
      <point x="545" y="621" type="qcurve" smooth="yes"/>
      <point x="500" y="621" type="line"/>
      <point x="573" y="969" type="line"/>
      <point x="614" y="969" type="line" smooth="yes"/>
      <point x="639" y="969"/>
      <point x="675" y="990"/>
      <point x="691" y="1023"/>
      <point x="698" y="1053"/>
      <point x="698" y="1069" type="qcurve" smooth="yes"/>
      <point x="698" y="1099"/>
      <point x="666" y="1135"/>
      <point x="641" y="1135" type="qcurve" smooth="yes"/>
      <point x="605" y="1135"/>
      <point x="563" y="1074"/>
      <point x="551" y="1012" type="qcurve" smooth="yes"/>
      <point x="336" y="0" type="line"/>
      <point x="-33" y="0" type="line"/>
      <point x="197" y="1083" type="line" smooth="yes"/>
      <point x="232" y="1245"/>
      <point x="552" y="1462"/>
      <point x="752" y="1462" type="qcurve" smooth="yes"/>
      <point x="905" y="1462"/>
      <point x="1087" y="1314"/>
      <point x="1087" y="1184" type="qcurve" smooth="yes"/>
      <point x="1087" y="1070"/>
      <point x="960" y="863"/>
      <point x="883" y="825" type="qcurve"/>
      <point x="960" y="789"/>
      <point x="1047" y="634"/>
      <point x="1047" y="528" type="qcurve" smooth="yes"/>
      <point x="1047" y="439"/>
      <point x="1003" y="289"/>
      <point x="927" y="180"/>
      <point x="821" y="94"/>
      <point x="702" y="39"/>
      <point x="567" y="3"/>
      <point x="439" y="-12"/>
      <point x="373" y="-12" type="qcurve"/>
    </contour>
  </outline>
</glyph>
<glyph name="atilde" format="2">
  <advance width="1323"/>
  <unicode hex="00E3"/>
  <anchor x="0" y="0" name="Anchor-11"/>
  <anchor x="0" y="0" name="Anchor-10"/>
  <anchor x="864" y="1495" name="Anchor-9"/>
  <anchor x="1126" y="0" name="Anchor-8"/>
  <anchor x="547" y="0" name="Anchor-7"/>
  <outline>
    <contour>
      <point x="690" y="1270" type="qcurve" smooth="yes"/>
      <point x="665" y="1270"/>
      <point x="625" y="1250"/>
      <point x="603" y="1223"/>
      <point x="587" y="1192"/>
      <point x="582" y="1174"/>
      <point x="582" y="1171" type="qcurve"/>
      <point x="375" y="1171" type="line"/>
      <point x="380" y="1195"/>
      <point x="414" y="1270"/>
      <point x="478" y="1362"/>
      <point x="556" y="1441"/>
      <point x="665" y="1495"/>
      <point x="721" y="1495" type="qcurve" smooth="yes"/>
      <point x="764" y="1495"/>
      <point x="837" y="1462"/>
      <point x="878" y="1424"/>
      <point x="934" y="1391"/>
      <point x="992" y="1391"/>
      <point x="1040" y="1420"/>
      <point x="1067" y="1464"/>
      <point x="1078" y="1486"/>
      <point x="1081" y="1495" type="qcurve"/>
      <point x="1286" y="1495" type="line"/>
      <point x="1282" y="1478"/>
      <point x="1248" y="1408"/>
      <point x="1182" y="1313"/>
      <point x="1102" y="1230"/>
      <point x="989" y="1171"/>
      <point x="932" y="1171" type="qcurve" smooth="yes"/>
      <point x="892" y="1171"/>
      <point x="821" y="1202"/>
      <point x="778" y="1239"/>
      <point x="719" y="1270"/>
    </contour>
    <contour>
      <point x="14" y="414" type="qcurve" smooth="yes"/>
      <point x="14" y="596"/>
      <point x="174" y="912"/>
      <point x="443" y="1098"/>
      <point x="596" y="1098" type="qcurve" smooth="yes"/>
      <point x="693" y="1098"/>
      <point x="835" y="1002"/>
      <point x="860" y="918" type="qcurve"/>
      <point x="893" y="1069" type="line"/>
      <point x="1284" y="1069" type="line"/>
      <point x="1147" y="430" type="line" smooth="yes"/>
      <point x="1141" y="400"/>
      <point x="1141" y="381" type="qcurve" smooth="yes"/>
      <point x="1141" y="354"/>
      <point x="1166" y="330"/>
      <point x="1196" y="328" type="qcurve"/>
      <point x="1126" y="0" type="line"/>
      <point x="1023" y="-20"/>
      <point x="961" y="-20" type="qcurve" smooth="yes"/>
      <point x="865" y="-20"/>
      <point x="762" y="53"/>
      <point x="762" y="137" type="qcurve" smooth="yes"/>
      <point x="762" y="158"/>
      <point x="764" y="168" type="qcurve"/>
      <point x="693" y="74"/>
      <point x="500" y="-20"/>
      <point x="395" y="-20" type="qcurve" smooth="yes"/>
      <point x="219" y="-20"/>
      <point x="14" y="219"/>
    </contour>
    <contour>
      <point x="758" y="418" type="qcurve"/>
      <point x="799" y="610" type="line"/>
      <point x="788" y="681"/>
      <point x="708" y="770"/>
      <point x="653" y="770" type="qcurve" smooth="yes"/>
      <point x="566" y="770"/>
      <point x="424" y="591"/>
      <point x="424" y="477" type="qcurve" smooth="yes"/>
      <point x="424" y="399"/>
      <point x="502" y="307"/>
      <point x="571" y="307" type="qcurve" smooth="yes"/>
      <point x="619" y="307"/>
      <point x="705" y="360"/>
    </contour>
  </outline>
</glyph>
<glyph name="ae" format="2">
  <advance width="1847"/>
  <unicode hex="00E6"/>
  <anchor x="0" y="0" name="Anchor-11"/>
  <anchor x="0" y="0" name="Anchor-10"/>
  <anchor x="991" y="1069" name="Anchor-9"/>
  <anchor x="0" y="0" name="Anchor-8"/>
  <anchor x="0" y="0" name="Anchor-7"/>
  <outline>
    <contour>
      <point x="-29" y="266" type="qcurve" smooth="yes"/>
      <point x="-29" y="446"/>
      <point x="281" y="694"/>
      <point x="502" y="694" type="qcurve" smooth="yes"/>
      <point x="626" y="694"/>
      <point x="694" y="653" type="qcurve"/>
      <point x="705" y="727"/>
      <point x="705" y="735" type="qcurve" smooth="yes"/>
      <point x="705" y="786"/>
      <point x="635" y="836"/>
      <point x="561" y="836" type="qcurve" smooth="yes"/>
      <point x="478" y="836"/>
      <point x="318" y="779"/>
      <point x="221" y="719" type="qcurve"/>
      <point x="160" y="961" type="line"/>
      <point x="392" y="1098"/>
      <point x="655" y="1098" type="qcurve" smooth="yes"/>
      <point x="880" y="1098"/>
      <point x="995" y="995" type="qcurve"/>
      <point x="1158" y="1098"/>
      <point x="1354" y="1098" type="qcurve" smooth="yes"/>
      <point x="1468" y="1098"/>
      <point x="1647" y="1027"/>
      <point x="1758" y="903"/>
      <point x="1815" y="743"/>
      <point x="1815" y="651" type="qcurve" smooth="yes"/>
      <point x="1815" y="540"/>
      <point x="1763" y="420" type="qcurve"/>
      <point x="1061" y="420" type="line"/>
      <point x="1057" y="396"/>
      <point x="1057" y="381" type="qcurve" smooth="yes"/>
      <point x="1057" y="320"/>
      <point x="1133" y="258"/>
      <point x="1247" y="258"/>
      <point x="1359" y="318"/>
      <point x="1384" y="367" type="qcurve"/>
      <point x="1694" y="272" type="line"/>
      <point x="1600" y="138"/>
      <point x="1299" y="-20"/>
      <point x="1116" y="-20" type="qcurve" smooth="yes"/>
      <point x="964" y="-20"/>
      <point x="756" y="91"/>
      <point x="705" y="188" type="qcurve"/>
      <point x="612" y="85"/>
      <point x="371" y="-20"/>
      <point x="266" y="-20" type="qcurve" smooth="yes"/>
      <point x="133" y="-20"/>
      <point x="-29" y="139"/>
    </contour>
    <contour>
      <point x="1405" y="653" type="line"/>
      <point x="1405" y="658"/>
      <point x="1407" y="676"/>
      <point x="1407" y="686" type="qcurve" smooth="yes"/>
      <point x="1407" y="748"/>
      <point x="1344" y="821"/>
      <point x="1288" y="821" type="qcurve" smooth="yes"/>
      <point x="1225" y="821"/>
      <point x="1127" y="731"/>
      <point x="1102" y="653" type="qcurve"/>
    </contour>
    <contour>
      <point x="645" y="326" type="qcurve"/>
      <point x="643" y="336"/>
      <point x="643" y="358" type="qcurve" smooth="yes"/>
      <point x="643" y="377"/>
      <point x="651" y="455" type="qcurve"/>
      <point x="586" y="483"/>
      <point x="522" y="483" type="qcurve" smooth="yes"/>
      <point x="455" y="483"/>
      <point x="350" y="400"/>
      <point x="350" y="342" type="qcurve" smooth="yes"/>
      <point x="350" y="304"/>
      <point x="401" y="258"/>
      <point x="449" y="258" type="qcurve" smooth="yes"/>
      <point x="495" y="258"/>
      <point x="604" y="297"/>
    </contour>
  </outline>
</glyph>
<glyph name="igrave" format="2">
  <advance width="585"/>
  <unicode hex="00EC"/>
  <anchor x="0" y="0" name="Anchor-11"/>
  <anchor x="0" y="0" name="Anchor-10"/>
  <anchor x="367" y="1495" name="Anchor-9"/>
  <anchor x="412" y="20" name="Anchor-8"/>
  <anchor x="162" y="0" name="Anchor-7"/>
  <outline>
    <contour>
      <point x="143" y="1495" type="line"/>
      <point x="487" y="1495" type="line"/>
      <point x="522" y="1204" type="line"/>
      <point x="252" y="1176" type="line"/>
    </contour>
    <contour>
      <point x="197" y="1077" type="line"/>
      <point x="586" y="1077" type="line"/>
      <point x="356" y="0" type="line"/>
      <point x="-33" y="0" type="line"/>
    </contour>
  </outline>
</glyph>
<glyph name="icircumflex" format="2">
  <advance width="585"/>
  <unicode hex="00EE"/>
  <anchor x="0" y="0" name="Anchor-11"/>
  <anchor x="0" y="0" name="Anchor-10"/>
  <anchor x="465" y="1495" name="Anchor-9"/>
  <anchor x="412" y="20" name="Anchor-8"/>
  <anchor x="162" y="0" name="Anchor-7"/>
  <outline>
    <contour>
      <point x="70" y="1260" type="line"/>
      <point x="342" y="1495" type="line"/>
      <point x="621" y="1495" type="line"/>
      <point x="793" y="1260" type="line"/>
      <point x="578" y="1174" type="line"/>
      <point x="440" y="1303" type="line"/>
      <point x="248" y="1174" type="line"/>
    </contour>
    <contour>
      <point x="197" y="1077" type="line"/>
      <point x="586" y="1077" type="line"/>
      <point x="356" y="0" type="line"/>
      <point x="-33" y="0" type="line"/>
    </contour>
  </outline>
</glyph>
<glyph name="eth" format="2">
  <advance width="1234"/>
  <unicode hex="00F0"/>
  <outline>
    <contour>
      <point x="1239" y="1313" type="line"/>
      <point x="1092" y="1241" type="line"/>
      <point x="1198" y="1034"/>
      <point x="1198" y="776" type="qcurve" smooth="yes"/>
      <point x="1198" y="539"/>
      <point x="1020" y="177"/>
      <point x="694" y="-20"/>
      <point x="479" y="-20" type="qcurve" smooth="yes"/>
      <point x="263" y="-20"/>
      <point x="8" y="207"/>
      <point x="8" y="391" type="qcurve" smooth="yes"/>
      <point x="8" y="543"/>
      <point x="171" y="809"/>
      <point x="438" y="965"/>
      <point x="586" y="965" type="qcurve" smooth="yes"/>
      <point x="657" y="965"/>
      <point x="788" y="915"/>
      <point x="834" y="870" type="qcurve"/>
      <point x="831" y="935"/>
      <point x="815" y="1001" type="qcurve" smooth="yes"/>
      <point x="798" y="1066"/>
      <point x="774" y="1116" type="qcurve"/>
      <point x="625" y="1044" type="line"/>
      <point x="549" y="1190" type="line"/>
      <point x="686" y="1255" type="line"/>
      <point x="576" y="1387"/>
      <point x="393" y="1495" type="qcurve"/>
      <point x="860" y="1495" type="line"/>
      <point x="940" y="1452"/>
      <point x="1001" y="1380" type="qcurve"/>
      <point x="1163" y="1458" type="line"/>
    </contour>
    <contour>
      <point x="549" y="307" type="qcurve" smooth="yes"/>
      <point x="638" y="307"/>
      <point x="756" y="428"/>
      <point x="756" y="520" type="qcurve" smooth="yes"/>
      <point x="756" y="582"/>
      <point x="687" y="655"/>
      <point x="623" y="655" type="qcurve" smooth="yes"/>
      <point x="532" y="655"/>
      <point x="414" y="534"/>
      <point x="414" y="442" type="qcurve" smooth="yes"/>
      <point x="414" y="380"/>
      <point x="485" y="307"/>
    </contour>
  </outline>
</glyph>
<glyph name="ntilde" format="2">
  <advance width="1230"/>
  <unicode hex="00F1"/>
  <anchor x="0" y="0" name="Anchor-11"/>
  <anchor x="0" y="0" name="Anchor-10"/>
  <anchor x="811" y="1487" name="Anchor-9"/>
  <anchor x="0" y="0" name="Anchor-8"/>
  <anchor x="492" y="0" name="Anchor-7"/>
  <outline>
    <contour>
      <point x="637" y="1262" type="qcurve" smooth="yes"/>
      <point x="612" y="1262"/>
      <point x="572" y="1242"/>
      <point x="549" y="1215"/>
      <point x="533" y="1184"/>
      <point x="528" y="1166"/>
      <point x="528" y="1163" type="qcurve"/>
      <point x="322" y="1163" type="line"/>
      <point x="327" y="1187"/>
      <point x="361" y="1262"/>
      <point x="425" y="1354"/>
      <point x="503" y="1433"/>
      <point x="612" y="1487"/>
      <point x="668" y="1487" type="qcurve" smooth="yes"/>
      <point x="711" y="1487"/>
      <point x="784" y="1454"/>
      <point x="824" y="1415"/>
      <point x="880" y="1382"/>
      <point x="938" y="1382"/>
      <point x="986" y="1411"/>
      <point x="1014" y="1456"/>
      <point x="1025" y="1478"/>
      <point x="1028" y="1487" type="qcurve"/>
      <point x="1233" y="1487" type="line"/>
      <point x="1229" y="1470"/>
      <point x="1195" y="1400"/>
      <point x="1129" y="1305"/>
      <point x="1049" y="1222"/>
      <point x="936" y="1163"/>
      <point x="879" y="1163" type="qcurve" smooth="yes"/>
      <point x="839" y="1163"/>
      <point x="768" y="1194"/>
      <point x="725" y="1231"/>
      <point x="666" y="1262"/>
    </contour>
    <contour>
      <point x="197" y="1077" type="line"/>
      <point x="547" y="1077" type="line"/>
      <point x="512" y="918" type="line"/>
      <point x="584" y="1006"/>
      <point x="800" y="1098"/>
      <point x="932" y="1098" type="qcurve" smooth="yes"/>
      <point x="1178" y="1098"/>
      <point x="1178" y="854" type="qcurve" smooth="yes"/>
      <point x="1178" y="800"/>
      <point x="1161" y="709" type="qcurve" smooth="yes"/>
      <point x="1012" y="0" type="line"/>
      <point x="623" y="0" type="line"/>
      <point x="752" y="606" type="line" smooth="yes"/>
      <point x="758" y="636"/>
      <point x="758" y="659" type="qcurve" smooth="yes"/>
      <point x="758" y="707"/>
      <point x="713" y="758"/>
      <point x="678" y="758" type="qcurve" smooth="yes"/>
      <point x="637" y="758"/>
      <point x="522" y="669"/>
      <point x="485" y="604" type="qcurve"/>
      <point x="356" y="0" type="line"/>
      <point x="-33" y="0" type="line"/>
    </contour>
  </outline>
</glyph>
<glyph name="otilde" format="2">
  <advance width="1220"/>
  <unicode hex="00F5"/>
  <anchor x="1061" y="915" name="Anchor-11"/>
  <anchor x="610" y="535" name="Anchor-10"/>
  <anchor x="797" y="1487" name="Anchor-9"/>
  <anchor x="641" y="0" name="Anchor-8"/>
  <anchor x="481" y="0" name="Anchor-7"/>
  <outline>
    <contour>
      <point x="623" y="1262" type="qcurve" smooth="yes"/>
      <point x="598" y="1262"/>
      <point x="558" y="1242"/>
      <point x="535" y="1215"/>
      <point x="519" y="1184"/>
      <point x="514" y="1166"/>
      <point x="514" y="1163" type="qcurve"/>
      <point x="307" y="1163" type="line"/>
      <point x="312" y="1187"/>
      <point x="346" y="1262"/>
      <point x="410" y="1354"/>
      <point x="488" y="1433"/>
      <point x="597" y="1487"/>
      <point x="653" y="1487" type="qcurve" smooth="yes"/>
      <point x="696" y="1487"/>
      <point x="769" y="1454"/>
      <point x="810" y="1415"/>
      <point x="866" y="1382"/>
      <point x="924" y="1382"/>
      <point x="972" y="1411"/>
      <point x="1000" y="1456"/>
      <point x="1011" y="1478"/>
      <point x="1014" y="1487" type="qcurve"/>
      <point x="1219" y="1487" type="line"/>
      <point x="1216" y="1474"/>
      <point x="1190" y="1419"/>
      <point x="1146" y="1345"/>
      <point x="1081" y="1269"/>
      <point x="1007" y="1204"/>
      <point x="912" y="1163"/>
      <point x="864" y="1163" type="qcurve" smooth="yes"/>
      <point x="824" y="1163"/>
      <point x="753" y="1194"/>
      <point x="710" y="1231"/>
      <point x="652" y="1262"/>
    </contour>
    <contour>
      <point x="14" y="438" type="qcurve" smooth="yes"/>
      <point x="14" y="568"/>
      <point x="109" y="806"/>
      <point x="281" y="989"/>
      <point x="542" y="1098"/>
      <point x="696" y="1098" type="qcurve" smooth="yes"/>
      <point x="820" y="1098"/>
      <point x="1008" y="1027"/>
      <point x="1120" y="900"/>
      <point x="1174" y="738"/>
      <point x="1174" y="641" type="qcurve" smooth="yes"/>
      <point x="1174" y="511"/>
      <point x="1079" y="273"/>
      <point x="907" y="89"/>
      <point x="646" y="-20"/>
      <point x="492" y="-20" type="qcurve" smooth="yes"/>
      <point x="368" y="-20"/>
      <point x="180" y="51"/>
      <point x="68" y="179"/>
      <point x="14" y="341"/>
    </contour>
    <contour>
      <point x="768" y="598" type="qcurve" smooth="yes"/>
      <point x="768" y="680"/>
      <point x="702" y="770"/>
      <point x="641" y="770" type="qcurve" smooth="yes"/>
      <point x="552" y="770"/>
      <point x="420" y="601"/>
      <point x="420" y="479" type="qcurve" smooth="yes"/>
      <point x="420" y="397"/>
      <point x="486" y="307"/>
      <point x="547" y="307" type="qcurve" smooth="yes"/>
      <point x="636" y="307"/>
      <point x="768" y="476"/>
    </contour>
  </outline>
</glyph>
<glyph name="divide" format="2">
  <advance width="1034"/>
  <unicode hex="00F7"/>
  <outline>
    <contour>
      <point x="360" y="891" type="line"/>
      <point x="360" y="1219" type="line"/>
      <point x="686" y="1219" type="line"/>
      <point x="686" y="891" type="line"/>
    </contour>
    <contour>
      <point x="109" y="481" type="line"/>
      <point x="109" y="788" type="line"/>
      <point x="936" y="788" type="line"/>
      <point x="936" y="481" type="line"/>
    </contour>
    <contour>
      <point x="360" y="55" type="line"/>
      <point x="360" y="383" type="line"/>
      <point x="686" y="383" type="line"/>
      <point x="686" y="55" type="line"/>
    </contour>
  </outline>
</glyph>
<glyph name="oslash" format="2">
  <advance width="1220"/>
  <unicode hex="00F8"/>
  <outline>
    <contour>
      <point x="1278" y="1090" type="line"/>
      <point x="1096" y="924" type="line"/>
      <point x="1174" y="808"/>
      <point x="1174" y="649" type="qcurve" smooth="yes"/>
      <point x="1174" y="523"/>
      <point x="1075" y="284"/>
      <point x="900" y="95"/>
      <point x="632" y="-20"/>
      <point x="475" y="-20" type="qcurve" smooth="yes"/>
      <point x="300" y="-20"/>
      <point x="180" y="66" type="qcurve"/>
      <point x="96" y="-12" type="line"/>
      <point x="-106" y="-12" type="line"/>
      <point x="86" y="166" type="line"/>
      <point x="14" y="279"/>
      <point x="14" y="428" type="qcurve" smooth="yes"/>
      <point x="14" y="555"/>
      <point x="113" y="794"/>
      <point x="289" y="983"/>
      <point x="556" y="1098"/>
      <point x="713" y="1098" type="qcurve" smooth="yes"/>
      <point x="882" y="1098"/>
      <point x="997" y="1020" type="qcurve"/>
      <point x="1071" y="1090" type="line"/>
    </contour>
    <contour>
      <point x="643" y="770" type="qcurve" smooth="yes"/>
      <point x="551" y="770"/>
      <point x="420" y="601"/>
      <point x="420" y="475" type="qcurve" smooth="yes"/>
      <point x="420" y="465" type="line"/>
      <point x="715" y="748" type="line"/>
      <point x="684" y="770"/>
    </contour>
    <contour>
      <point x="545" y="307" type="qcurve" smooth="yes"/>
      <point x="637" y="307"/>
      <point x="770" y="476"/>
      <point x="770" y="602" type="qcurve" smooth="yes"/>
      <point x="770" y="621"/>
      <point x="768" y="629" type="qcurve"/>
      <point x="465" y="340" type="line"/>
      <point x="494" y="307"/>
    </contour>
  </outline>
</glyph>
<glyph name="uacute" format="2">
  <advance width="1265"/>
  <unicode hex="00FA"/>
  <anchor x="1288" y="915" name="Anchor-11"/>
  <anchor x="0" y="0" name="Anchor-10"/>
  <anchor x="911" y="1503" name="Anchor-9"/>
  <anchor x="1071" y="0" name="Anchor-8"/>
  <anchor x="518" y="0" name="Anchor-7"/>
  <outline>
    <contour>
      <point x="901" y="1188" type="line"/>
      <point x="639" y="1212" type="line"/>
      <point x="797" y="1503" type="line"/>
      <point x="1141" y="1503" type="line"/>
    </contour>
    <contour>
      <point x="18" y="233" type="qcurve" smooth="yes"/>
      <point x="18" y="286"/>
      <point x="35" y="369" type="qcurve" smooth="yes"/>
      <point x="186" y="1077" type="line"/>
      <point x="573" y="1077" type="line"/>
      <point x="442" y="457" type="line" smooth="yes"/>
      <point x="436" y="427"/>
      <point x="436" y="401" type="qcurve" smooth="yes"/>
      <point x="436" y="356"/>
      <point x="477" y="307"/>
      <point x="514" y="307" type="qcurve" smooth="yes"/>
      <point x="601" y="307"/>
      <point x="698" y="418" type="qcurve"/>
      <point x="840" y="1077" type="line"/>
      <point x="1229" y="1077" type="line"/>
      <point x="1092" y="430" type="line" smooth="yes"/>
      <point x="1085" y="395"/>
      <point x="1085" y="381" type="qcurve" smooth="yes"/>
      <point x="1085" y="354"/>
      <point x="1111" y="330"/>
      <point x="1141" y="328" type="qcurve"/>
      <point x="1071" y="0" type="line"/>
      <point x="968" y="-20"/>
      <point x="903" y="-20" type="qcurve" smooth="yes"/>
      <point x="702" y="-20"/>
      <point x="702" y="129" type="qcurve" smooth="yes"/>
      <point x="702" y="133"/>
      <point x="707" y="168" type="qcurve"/>
      <point x="533" y="-20"/>
      <point x="270" y="-20" type="qcurve" smooth="yes"/>
      <point x="147" y="-20"/>
      <point x="18" y="109"/>
    </contour>
  </outline>
</glyph>
<glyph name="thorn" format="2">
  <advance width="1282"/>
  <unicode hex="00FE"/>
  <outline>
    <contour>
      <point x="-127" y="-436" type="line"/>
      <point x="274" y="1454" type="line"/>
      <point x="674" y="1454" type="line"/>
      <point x="575" y="993" type="line"/>
      <point x="692" y="1098"/>
      <point x="864" y="1098" type="qcurve" smooth="yes"/>
      <point x="1032" y="1098"/>
      <point x="1235" y="855"/>
      <point x="1235" y="664" type="qcurve" smooth="yes"/>
      <point x="1235" y="484"/>
      <point x="1074" y="166"/>
      <point x="810" y="-20"/>
      <point x="664" y="-20" type="qcurve" smooth="yes"/>
      <point x="555" y="-20"/>
      <point x="412" y="73"/>
      <point x="389" y="160" type="qcurve"/>
      <point x="262" y="-436" type="line"/>
    </contour>
    <contour>
      <point x="598" y="307" type="qcurve" smooth="yes"/>
      <point x="685" y="307"/>
      <point x="827" y="486"/>
      <point x="827" y="600" type="qcurve" smooth="yes"/>
      <point x="827" y="678"/>
      <point x="749" y="770"/>
      <point x="680" y="770" type="qcurve" smooth="yes"/>
      <point x="595" y="770"/>
      <point x="496" y="659" type="qcurve"/>
      <point x="455" y="473" type="line"/>
      <point x="466" y="401"/>
      <point x="545" y="307"/>
    </contour>
  </outline>
</glyph>
<glyph name="Amacron" format="2">
  <advance width="1302"/>
  <unicode hex="0100"/>
  <anchor x="0" y="0" name="Anchor-11"/>
  <anchor x="0" y="0" name="Anchor-10"/>
  <anchor x="924" y="1851" name="Anchor-9"/>
  <anchor x="1184" y="0" name="Anchor-8"/>
  <anchor x="537" y="0" name="Anchor-7"/>
  <outline>
    <contour>
      <point x="571" y="1620" type="line"/>
      <point x="621" y="1851" type="line"/>
      <point x="1227" y="1851" type="line"/>
      <point x="1178" y="1620" type="line"/>
    </contour>
    <contour>
      <point x="655" y="1454" type="line"/>
      <point x="1022" y="1454" type="line"/>
      <point x="1184" y="0" type="line"/>
      <point x="778" y="0" type="line"/>
      <point x="764" y="285" type="line"/>
      <point x="416" y="285" type="line"/>
      <point x="283" y="0" type="line"/>
      <point x="-125" y="0" type="line"/>
    </contour>
    <contour>
      <point x="758" y="551" type="line"/>
      <point x="741" y="1001" type="line"/>
      <point x="530" y="551" type="line"/>
    </contour>
  </outline>
</glyph>
<glyph name="Aogonek" format="2">
  <advance width="1302"/>
  <unicode hex="0104"/>
  <anchor x="0" y="0" name="Anchor-11"/>
  <anchor x="0" y="0" name="Anchor-10"/>
  <anchor x="840" y="1454" name="Anchor-9"/>
  <anchor x="1184" y="0" name="Anchor-8"/>
  <anchor x="537" y="0" name="Anchor-7"/>
  <outline>
    <contour>
      <point x="1030" y="-170" type="qcurve" smooth="yes"/>
      <point x="1030" y="-236"/>
      <point x="1122" y="-236" type="qcurve"/>
      <point x="1006" y="-440" type="line"/>
      <point x="901" y="-423"/>
      <point x="778" y="-323"/>
      <point x="778" y="-258" type="qcurve" smooth="yes"/>
      <point x="778" y="-196"/>
      <point x="875" y="-59"/>
      <point x="965" y="0" type="qcurve"/>
      <point x="778" y="0" type="line"/>
      <point x="764" y="285" type="line"/>
      <point x="416" y="285" type="line"/>
      <point x="283" y="0" type="line"/>
      <point x="-125" y="0" type="line"/>
      <point x="655" y="1454" type="line"/>
      <point x="1022" y="1454" type="line"/>
      <point x="1178" y="49" type="line"/>
      <point x="1180" y="49" type="line"/>
      <point x="1184" y="0" type="line"/>
      <point x="1030" y="-99"/>
    </contour>
    <contour>
      <point x="530" y="551" type="line"/>
      <point x="758" y="551" type="line"/>
      <point x="741" y="1001" type="line"/>
    </contour>
  </outline>
</glyph>
<glyph name="ccircumflex" format="2">
  <advance width="1136"/>
  <unicode hex="0109"/>
  <anchor x="0" y="0" name="Anchor-11"/>
  <anchor x="0" y="0" name="Anchor-10"/>
  <anchor x="786" y="1487" name="Anchor-9"/>
  <anchor x="0" y="0" name="Anchor-8"/>
  <anchor x="485" y="0" name="Anchor-7"/>
  <outline>
    <contour>
      <point x="391" y="1251" type="line"/>
      <point x="664" y="1487" type="line"/>
      <point x="942" y="1487" type="line"/>
      <point x="1114" y="1251" type="line"/>
      <point x="899" y="1165" type="line"/>
      <point x="762" y="1294" type="line"/>
      <point x="569" y="1165" type="line"/>
    </contour>
    <contour>
      <point x="12" y="432" type="qcurve" smooth="yes"/>
      <point x="12" y="557"/>
      <point x="113" y="797"/>
      <point x="291" y="984"/>
      <point x="558" y="1098"/>
      <point x="713" y="1098" type="qcurve" smooth="yes"/>
      <point x="895" y="1098"/>
      <point x="1118" y="940"/>
      <point x="1157" y="805" type="qcurve"/>
      <point x="754" y="690" type="line"/>
      <point x="723" y="770"/>
      <point x="641" y="770" type="qcurve" smooth="yes"/>
      <point x="552" y="770"/>
      <point x="418" y="603"/>
      <point x="418" y="475" type="qcurve" smooth="yes"/>
      <point x="418" y="397"/>
      <point x="486" y="307"/>
      <point x="543" y="307" type="qcurve" smooth="yes"/>
      <point x="621" y="307"/>
      <point x="688" y="387" type="qcurve"/>
      <point x="1042" y="272" type="line"/>
      <point x="945" y="137"/>
      <point x="656" y="-20"/>
      <point x="475" y="-20" type="qcurve" smooth="yes"/>
      <point x="361" y="-20"/>
      <point x="181" y="52"/>
      <point x="70" y="177"/>
      <point x="12" y="339"/>
    </contour>
  </outline>
</glyph>
<glyph name="ccaron" format="2">
  <advance width="1136"/>
  <unicode hex="010D"/>
  <anchor x="0" y="0" name="Anchor-11"/>
  <anchor x="0" y="0" name="Anchor-10"/>
  <anchor x="797" y="1487" name="Anchor-9"/>
  <anchor x="0" y="0" name="Anchor-8"/>
  <anchor x="485" y="0" name="Anchor-7"/>
  <outline>
    <contour>
      <point x="416" y="1401" type="line"/>
      <point x="631" y="1487" type="line"/>
      <point x="768" y="1358" type="line"/>
      <point x="961" y="1487" type="line"/>
      <point x="1139" y="1401" type="line"/>
      <point x="866" y="1165" type="line"/>
      <point x="588" y="1165" type="line"/>
    </contour>
    <contour>
      <point x="12" y="432" type="qcurve" smooth="yes"/>
      <point x="12" y="557"/>
      <point x="113" y="797"/>
      <point x="291" y="984"/>
      <point x="558" y="1098"/>
      <point x="713" y="1098" type="qcurve" smooth="yes"/>
      <point x="895" y="1098"/>
      <point x="1118" y="940"/>
      <point x="1157" y="805" type="qcurve"/>
      <point x="754" y="690" type="line"/>
      <point x="723" y="770"/>
      <point x="641" y="770" type="qcurve" smooth="yes"/>
      <point x="552" y="770"/>
      <point x="418" y="603"/>
      <point x="418" y="475" type="qcurve" smooth="yes"/>
      <point x="418" y="397"/>
      <point x="486" y="307"/>
      <point x="543" y="307" type="qcurve" smooth="yes"/>
      <point x="621" y="307"/>
      <point x="688" y="387" type="qcurve"/>
      <point x="1042" y="272" type="line"/>
      <point x="945" y="137"/>
      <point x="656" y="-20"/>
      <point x="475" y="-20" type="qcurve" smooth="yes"/>
      <point x="361" y="-20"/>
      <point x="181" y="52"/>
      <point x="70" y="177"/>
      <point x="12" y="339"/>
    </contour>
  </outline>
</glyph>
<glyph name="Dcroat" format="2">
  <advance width="1425"/>
  <unicode hex="0110"/>
  <outline>
    <contour>
      <point x="846" y="1454" type="line" smooth="yes"/>
      <point x="987" y="1454"/>
      <point x="1206" y="1367"/>
      <point x="1341" y="1211"/>
      <point x="1411" y="1008"/>
      <point x="1411" y="887" type="qcurve" smooth="yes"/>
      <point x="1411" y="698"/>
      <point x="1277" y="368"/>
      <point x="1045" y="134"/>
      <point x="721" y="0"/>
      <point x="537" y="0" type="qcurve" smooth="yes"/>
      <point x="0" y="0" type="line"/>
      <point x="125" y="588" type="line"/>
      <point x="57" y="588" type="line"/>
      <point x="117" y="874" type="line"/>
      <point x="186" y="874" type="line"/>
      <point x="309" y="1454" type="line"/>
    </contour>
    <contour>
      <point x="610" y="348" type="line" smooth="yes"/>
      <point x="721" y="348"/>
      <point x="901" y="482"/>
      <point x="999" y="701"/>
      <point x="999" y="829" type="qcurve" smooth="yes"/>
      <point x="999" y="956"/>
      <point x="880" y="1106"/>
      <point x="772" y="1106" type="qcurve" smooth="yes"/>
      <point x="635" y="1106" type="line"/>
      <point x="586" y="874" type="line"/>
      <point x="799" y="874" type="line"/>
      <point x="737" y="588" type="line"/>
      <point x="524" y="588" type="line"/>
      <point x="473" y="348" type="line"/>
    </contour>
  </outline>
</glyph>
<glyph name="Emacron" format="2">
  <advance width="1177"/>
  <unicode hex="0112"/>
  <anchor x="0" y="0" name="Anchor-11"/>
  <anchor x="0" y="0" name="Anchor-10"/>
  <anchor x="868" y="1851" name="Anchor-9"/>
  <anchor x="983" y="0" name="Anchor-8"/>
  <anchor x="475" y="0" name="Anchor-7"/>
  <outline>
    <contour>
      <point x="516" y="1620" type="line"/>
      <point x="565" y="1851" type="line"/>
      <point x="1171" y="1851" type="line"/>
      <point x="1122" y="1620" type="line"/>
    </contour>
    <contour>
      <point x="303" y="1454" type="line"/>
      <point x="1274" y="1454" type="line"/>
      <point x="1200" y="1106" type="line"/>
      <point x="629" y="1106" type="line"/>
      <point x="586" y="901" type="line"/>
      <point x="1073" y="901" type="line"/>
      <point x="1004" y="578" type="line"/>
      <point x="516" y="578" type="line"/>
      <point x="467" y="348" type="line"/>
      <point x="1057" y="348" type="line"/>
      <point x="983" y="0" type="line"/>
      <point x="-6" y="0" type="line"/>
    </contour>
  </outline>
</glyph>
<glyph name="Ebreve" format="2">
  <advance width="1177"/>
  <unicode hex="0114"/>
  <anchor x="0" y="0" name="Anchor-11"/>
  <anchor x="0" y="0" name="Anchor-10"/>
  <anchor x="872" y="1872" name="Anchor-9"/>
  <anchor x="983" y="0" name="Anchor-8"/>
  <anchor x="475" y="0" name="Anchor-7"/>
  <outline>
    <contour>
      <point x="989" y="1872" type="qcurve"/>
      <point x="1190" y="1872" type="line"/>
      <point x="1159" y="1726"/>
      <point x="942" y="1540"/>
      <point x="801" y="1540" type="qcurve" smooth="yes"/>
      <point x="680" y="1540"/>
      <point x="541" y="1675"/>
      <point x="541" y="1788" type="qcurve" smooth="yes"/>
      <point x="541" y="1824"/>
      <point x="551" y="1872" type="qcurve"/>
      <point x="752" y="1872" type="line"/>
      <point x="745" y="1844"/>
      <point x="745" y="1825" type="qcurve" smooth="yes"/>
      <point x="745" y="1774"/>
      <point x="796" y="1706"/>
      <point x="836" y="1706" type="qcurve" smooth="yes"/>
      <point x="880" y="1706"/>
      <point x="967" y="1800"/>
    </contour>
    <contour>
      <point x="303" y="1454" type="line"/>
      <point x="1274" y="1454" type="line"/>
      <point x="1200" y="1106" type="line"/>
      <point x="629" y="1106" type="line"/>
      <point x="586" y="901" type="line"/>
      <point x="1073" y="901" type="line"/>
      <point x="1004" y="578" type="line"/>
      <point x="516" y="578" type="line"/>
      <point x="467" y="348" type="line"/>
      <point x="1057" y="348" type="line"/>
      <point x="983" y="0" type="line"/>
      <point x="-6" y="0" type="line"/>
    </contour>
  </outline>
</glyph>
<glyph name="ebreve" format="2">
  <advance width="1159"/>
  <unicode hex="0115"/>
  <anchor x="0" y="0" name="Anchor-11"/>
  <anchor x="0" y="0" name="Anchor-10"/>
  <anchor x="795" y="1487" name="Anchor-9"/>
  <anchor x="645" y="0" name="Anchor-8"/>
  <anchor x="473" y="0" name="Anchor-7"/>
  <outline>
    <contour>
      <point x="723" y="1155" type="qcurve" smooth="yes"/>
      <point x="602" y="1155"/>
      <point x="463" y="1290"/>
      <point x="463" y="1403" type="qcurve" smooth="yes"/>
      <point x="463" y="1439"/>
      <point x="473" y="1487" type="qcurve"/>
      <point x="674" y="1487" type="line"/>
      <point x="668" y="1463"/>
      <point x="668" y="1440" type="qcurve" smooth="yes"/>
      <point x="668" y="1389"/>
      <point x="719" y="1321"/>
      <point x="758" y="1321" type="qcurve" smooth="yes"/>
      <point x="802" y="1321"/>
      <point x="889" y="1415"/>
      <point x="911" y="1487" type="qcurve"/>
      <point x="1112" y="1487" type="line"/>
      <point x="1081" y="1341"/>
      <point x="864" y="1155"/>
    </contour>
    <contour>
      <point x="551" y="258" type="qcurve" smooth="yes"/>
      <point x="683" y="258"/>
      <point x="752" y="369" type="qcurve"/>
      <point x="1057" y="270" type="line"/>
      <point x="966" y="140"/>
      <point x="646" y="-20"/>
      <point x="477" y="-20" type="qcurve" smooth="yes"/>
      <point x="266" y="-20"/>
      <point x="14" y="229"/>
      <point x="14" y="436" type="qcurve" smooth="yes"/>
      <point x="14" y="572"/>
      <point x="126" y="817"/>
      <point x="316" y="994"/>
      <point x="579" y="1098"/>
      <point x="725" y="1098" type="qcurve" smooth="yes"/>
      <point x="920" y="1098"/>
      <point x="1141" y="932"/>
      <point x="1141" y="784" type="qcurve" smooth="yes"/>
      <point x="1141" y="603"/>
      <point x="805" y="418"/>
      <point x="479" y="418" type="qcurve" smooth="yes"/>
      <point x="420" y="418" type="line"/>
      <point x="420" y="416" type="line" smooth="yes"/>
      <point x="420" y="331"/>
      <point x="481" y="258"/>
    </contour>
    <contour>
      <point x="655" y="821" type="qcurve" smooth="yes"/>
      <point x="598" y="821"/>
      <point x="498" y="729"/>
      <point x="465" y="651" type="qcurve"/>
      <point x="477" y="651" type="line" smooth="yes"/>
      <point x="635" y="651"/>
      <point x="760" y="690"/>
      <point x="760" y="741" type="qcurve" smooth="yes"/>
      <point x="760" y="776"/>
      <point x="701" y="821"/>
    </contour>
  </outline>
</glyph>
<glyph name="Eogonek" format="2">
  <advance width="1177"/>
  <unicode hex="0118"/>
  <anchor x="0" y="0" name="Anchor-11"/>
  <anchor x="0" y="0" name="Anchor-10"/>
  <anchor x="784" y="1454" name="Anchor-9"/>
  <anchor x="983" y="0" name="Anchor-8"/>
  <anchor x="475" y="0" name="Anchor-7"/>
  <outline>
    <contour>
      <point x="1200" y="1106" type="line"/>
      <point x="629" y="1106" type="line"/>
      <point x="586" y="901" type="line"/>
      <point x="1073" y="901" type="line"/>
      <point x="1004" y="578" type="line"/>
      <point x="516" y="578" type="line"/>
      <point x="467" y="348" type="line"/>
      <point x="1057" y="348" type="line"/>
      <point x="983" y="0" type="line"/>
      <point x="829" y="-99"/>
      <point x="829" y="-170" type="qcurve" smooth="yes"/>
      <point x="829" y="-236"/>
      <point x="922" y="-236" type="qcurve"/>
      <point x="805" y="-440" type="line"/>
      <point x="700" y="-423"/>
      <point x="578" y="-323"/>
      <point x="578" y="-258" type="qcurve" smooth="yes"/>
      <point x="578" y="-195"/>
      <point x="675" y="-59"/>
      <point x="764" y="0" type="qcurve"/>
      <point x="-6" y="0" type="line"/>
      <point x="303" y="1454" type="line"/>
      <point x="1274" y="1454" type="line"/>
    </contour>
  </outline>
</glyph>
<glyph name="eogonek" format="2">
  <advance width="1159"/>
  <unicode hex="0119"/>
  <anchor x="0" y="0" name="Anchor-11"/>
  <anchor x="0" y="0" name="Anchor-10"/>
  <anchor x="707" y="1069" name="Anchor-9"/>
  <anchor x="645" y="0" name="Anchor-8"/>
  <anchor x="473" y="0" name="Anchor-7"/>
  <outline>
    <contour>
      <point x="551" y="258" type="qcurve" smooth="yes"/>
      <point x="683" y="258"/>
      <point x="752" y="369" type="qcurve"/>
      <point x="1057" y="270" type="line"/>
      <point x="990" y="173"/>
      <point x="771" y="31"/>
      <point x="645" y="0" type="qcurve"/>
      <point x="492" y="-98"/>
      <point x="492" y="-170" type="qcurve" smooth="yes"/>
      <point x="492" y="-236"/>
      <point x="584" y="-236" type="qcurve"/>
      <point x="467" y="-440" type="line"/>
      <point x="362" y="-423"/>
      <point x="240" y="-323"/>
      <point x="240" y="-258" type="qcurve" smooth="yes"/>
      <point x="240" y="-200"/>
      <point x="324" y="-74"/>
      <point x="403" y="-16" type="qcurve"/>
      <point x="222" y="7"/>
      <point x="14" y="248"/>
      <point x="14" y="436" type="qcurve" smooth="yes"/>
      <point x="14" y="572"/>
      <point x="126" y="817"/>
      <point x="316" y="994"/>
      <point x="579" y="1098"/>
      <point x="725" y="1098" type="qcurve" smooth="yes"/>
      <point x="920" y="1098"/>
      <point x="1141" y="932"/>
      <point x="1141" y="784" type="qcurve" smooth="yes"/>
      <point x="1141" y="603"/>
      <point x="805" y="418"/>
      <point x="479" y="418" type="qcurve" smooth="yes"/>
      <point x="420" y="418" type="line"/>
      <point x="420" y="416" type="line" smooth="yes"/>
      <point x="420" y="331"/>
      <point x="481" y="258"/>
    </contour>
    <contour>
      <point x="655" y="821" type="qcurve" smooth="yes"/>
      <point x="598" y="821"/>
      <point x="498" y="729"/>
      <point x="465" y="651" type="qcurve"/>
      <point x="477" y="651" type="line" smooth="yes"/>
      <point x="635" y="651"/>
      <point x="760" y="690"/>
      <point x="760" y="741" type="qcurve" smooth="yes"/>
      <point x="760" y="776"/>
      <point x="701" y="821"/>
    </contour>
  </outline>
</glyph>
<glyph name="gbreve" format="2">
  <advance width="1282"/>
  <unicode hex="011F"/>
  <anchor x="0" y="0" name="Anchor-11"/>
  <anchor x="0" y="0" name="Anchor-10"/>
  <anchor x="827" y="1487" name="Anchor-9"/>
  <anchor x="0" y="0" name="Anchor-8"/>
  <anchor x="0" y="0" name="Anchor-7"/>
  <outline>
    <contour>
      <point x="944" y="1487" type="qcurve"/>
      <point x="1145" y="1487" type="line"/>
      <point x="1114" y="1341"/>
      <point x="897" y="1155"/>
      <point x="756" y="1155" type="qcurve" smooth="yes"/>
      <point x="635" y="1155"/>
      <point x="496" y="1290"/>
      <point x="496" y="1403" type="qcurve" smooth="yes"/>
      <point x="496" y="1439"/>
      <point x="506" y="1487" type="qcurve"/>
      <point x="707" y="1487" type="line"/>
      <point x="700" y="1459"/>
      <point x="700" y="1440" type="qcurve" smooth="yes"/>
      <point x="700" y="1389"/>
      <point x="751" y="1321"/>
      <point x="791" y="1321" type="qcurve" smooth="yes"/>
      <point x="835" y="1321"/>
      <point x="922" y="1415"/>
    </contour>
    <contour>
      <point x="-133" y="-250" type="qcurve"/>
      <point x="117" y="-37" type="line"/>
      <point x="162" y="-96"/>
      <point x="302" y="-168"/>
      <point x="385" y="-168" type="qcurve" smooth="yes"/>
      <point x="454" y="-168"/>
      <point x="572" y="-118"/>
      <point x="667" y="6"/>
      <point x="686" y="98" type="qcurve" smooth="yes"/>
      <point x="700" y="168" type="line"/>
      <point x="642" y="86"/>
      <point x="460" y="0"/>
      <point x="360" y="0" type="qcurve" smooth="yes"/>
      <point x="200" y="0"/>
      <point x="16" y="233"/>
      <point x="16" y="418" type="qcurve" smooth="yes"/>
      <point x="16" y="602"/>
      <point x="184" y="916"/>
      <point x="466" y="1098"/>
      <point x="629" y="1098" type="qcurve" smooth="yes"/>
      <point x="737" y="1098"/>
      <point x="883" y="1005"/>
      <point x="911" y="918" type="qcurve"/>
      <point x="946" y="1077" type="line"/>
      <point x="1284" y="1077" type="line"/>
      <point x="1075" y="98" type="line" smooth="yes"/>
      <point x="1021" y="-154"/>
      <point x="612" y="-457"/>
      <point x="326" y="-457" type="qcurve" smooth="yes"/>
      <point x="20" y="-457"/>
    </contour>
    <contour>
      <point x="754" y="418" type="qcurve"/>
      <point x="795" y="610" type="line"/>
      <point x="785" y="683"/>
      <point x="704" y="770"/>
      <point x="649" y="770" type="qcurve" smooth="yes"/>
      <point x="563" y="770"/>
      <point x="422" y="590"/>
      <point x="422" y="477" type="qcurve" smooth="yes"/>
      <point x="422" y="401"/>
      <point x="500" y="307"/>
      <point x="567" y="307" type="qcurve" smooth="yes"/>
      <point x="615" y="307"/>
      <point x="703" y="361"/>
    </contour>
  </outline>
</glyph>
<glyph name="Hcircumflex" format="2">
  <advance width="1482"/>
  <unicode hex="0124"/>
  <anchor x="0" y="0" name="Anchor-11"/>
  <anchor x="782" y="727" name="Anchor-10"/>
  <anchor x="1010" y="1872" name="Anchor-9"/>
  <anchor x="0" y="0" name="Anchor-8"/>
  <anchor x="627" y="0" name="Anchor-7"/>
  <outline>
    <contour>
      <point x="614" y="1636" type="line"/>
      <point x="887" y="1872" type="line"/>
      <point x="1165" y="1872" type="line"/>
      <point x="1337" y="1636" type="line"/>
      <point x="1122" y="1550" type="line"/>
      <point x="985" y="1679" type="line"/>
      <point x="793" y="1550" type="line"/>
    </contour>
    <contour>
      <point x="303" y="1454" type="line"/>
      <point x="702" y="1454" type="line"/>
      <point x="588" y="918" type="line"/>
      <point x="1022" y="918" type="line"/>
      <point x="1137" y="1454" type="line"/>
      <point x="1536" y="1454" type="line"/>
      <point x="1227" y="0" type="line"/>
      <point x="827" y="0" type="line"/>
      <point x="948" y="569" type="line"/>
      <point x="514" y="569" type="line"/>
      <point x="393" y="0" type="line"/>
      <point x="-6" y="0" type="line"/>
    </contour>
  </outline>
</glyph>
<glyph name="Hbar" format="2">
  <advance width="1492"/>
  <unicode hex="0126"/>
  <outline>
    <contour>
      <point x="1602" y="1282" type="line"/>
      <point x="1565" y="1102" type="line"/>
      <point x="1466" y="1102" type="line"/>
      <point x="1233" y="0" type="line"/>
      <point x="834" y="0" type="line"/>
      <point x="954" y="569" type="line"/>
      <point x="520" y="569" type="line"/>
      <point x="399" y="0" type="line"/>
      <point x="0" y="0" type="line"/>
      <point x="233" y="1102" type="line"/>
      <point x="137" y="1102" type="line"/>
      <point x="176" y="1282" type="line"/>
      <point x="272" y="1282" type="line"/>
      <point x="309" y="1454" type="line"/>
      <point x="709" y="1454" type="line"/>
      <point x="672" y="1282" type="line"/>
      <point x="1106" y="1282" type="line"/>
      <point x="1143" y="1454" type="line"/>
      <point x="1542" y="1454" type="line"/>
      <point x="1505" y="1282" type="line"/>
    </contour>
    <contour>
      <point x="1028" y="918" type="line"/>
      <point x="1067" y="1102" type="line"/>
      <point x="633" y="1102" type="line"/>
      <point x="594" y="918" type="line"/>
    </contour>
  </outline>
</glyph>
<glyph name="Itilde" format="2">
  <advance width="649"/>
  <unicode hex="0128"/>
  <anchor x="0" y="0" name="Anchor-11"/>
  <anchor x="0" y="0" name="Anchor-10"/>
  <anchor x="608" y="1872" name="Anchor-9"/>
  <anchor x="393" y="0" name="Anchor-8"/>
  <anchor x="211" y="0" name="Anchor-7"/>
  <outline>
    <contour>
      <point x="434" y="1647" type="qcurve" smooth="yes"/>
      <point x="409" y="1647"/>
      <point x="369" y="1627"/>
      <point x="347" y="1600"/>
      <point x="331" y="1569"/>
      <point x="326" y="1551"/>
      <point x="326" y="1548" type="qcurve"/>
      <point x="119" y="1548" type="line"/>
      <point x="124" y="1572"/>
      <point x="158" y="1647"/>
      <point x="222" y="1739"/>
      <point x="300" y="1818"/>
      <point x="409" y="1872"/>
      <point x="465" y="1872" type="qcurve" smooth="yes"/>
      <point x="508" y="1872"/>
      <point x="581" y="1839"/>
      <point x="622" y="1800"/>
      <point x="678" y="1767"/>
      <point x="736" y="1767"/>
      <point x="784" y="1796"/>
      <point x="812" y="1841"/>
      <point x="822" y="1863"/>
      <point x="825" y="1872" type="qcurve"/>
      <point x="1030" y="1872" type="line"/>
      <point x="1026" y="1855"/>
      <point x="992" y="1785"/>
      <point x="926" y="1690"/>
      <point x="846" y="1607"/>
      <point x="733" y="1548"/>
      <point x="676" y="1548" type="qcurve" smooth="yes"/>
      <point x="636" y="1548"/>
      <point x="565" y="1579"/>
      <point x="522" y="1616"/>
      <point x="463" y="1647"/>
    </contour>
    <contour>
      <point x="303" y="1454" type="line"/>
      <point x="702" y="1454" type="line"/>
      <point x="393" y="0" type="line"/>
      <point x="-6" y="0" type="line"/>
    </contour>
  </outline>
</glyph>
<glyph name="itilde" format="2">
  <advance width="585"/>
  <unicode hex="0129"/>
  <anchor x="0" y="0" name="Anchor-11"/>
  <anchor x="0" y="0" name="Anchor-10"/>
  <anchor x="479" y="1495" name="Anchor-9"/>
  <anchor x="412" y="20" name="Anchor-8"/>
  <anchor x="162" y="0" name="Anchor-7"/>
  <outline>
    <contour>
      <point x="305" y="1270" type="qcurve" smooth="yes"/>
      <point x="280" y="1270"/>
      <point x="240" y="1250"/>
      <point x="218" y="1223"/>
      <point x="202" y="1192"/>
      <point x="197" y="1174"/>
      <point x="197" y="1171" type="qcurve"/>
      <point x="-10" y="1171" type="line"/>
      <point x="-5" y="1195"/>
      <point x="29" y="1270"/>
      <point x="93" y="1362"/>
      <point x="171" y="1441"/>
      <point x="280" y="1495"/>
      <point x="336" y="1495" type="qcurve" smooth="yes"/>
      <point x="379" y="1495"/>
      <point x="452" y="1462"/>
      <point x="493" y="1424"/>
      <point x="549" y="1391"/>
      <point x="607" y="1391"/>
      <point x="655" y="1420"/>
      <point x="682" y="1464"/>
      <point x="693" y="1486"/>
      <point x="696" y="1495" type="qcurve"/>
      <point x="901" y="1495" type="line"/>
      <point x="897" y="1478"/>
      <point x="863" y="1408"/>
      <point x="797" y="1313"/>
      <point x="717" y="1230"/>
      <point x="604" y="1171"/>
      <point x="547" y="1171" type="qcurve" smooth="yes"/>
      <point x="507" y="1171"/>
      <point x="436" y="1202"/>
      <point x="393" y="1239"/>
      <point x="334" y="1270"/>
    </contour>
    <contour>
      <point x="197" y="1077" type="line"/>
      <point x="586" y="1077" type="line"/>
      <point x="356" y="0" type="line"/>
      <point x="-33" y="0" type="line"/>
    </contour>
  </outline>
</glyph>
<glyph name="Imacron" format="2">
  <advance width="649"/>
  <unicode hex="012A"/>
  <anchor x="0" y="0" name="Anchor-11"/>
  <anchor x="0" y="0" name="Anchor-10"/>
  <anchor x="604" y="1851" name="Anchor-9"/>
  <anchor x="393" y="0" name="Anchor-8"/>
  <anchor x="211" y="0" name="Anchor-7"/>
  <outline>
    <contour>
      <point x="252" y="1620" type="line"/>
      <point x="301" y="1851" type="line"/>
      <point x="907" y="1851" type="line"/>
      <point x="858" y="1620" type="line"/>
    </contour>
    <contour>
      <point x="303" y="1454" type="line"/>
      <point x="702" y="1454" type="line"/>
      <point x="393" y="0" type="line"/>
      <point x="-6" y="0" type="line"/>
    </contour>
  </outline>
</glyph>
<glyph name="imacron" format="2">
  <advance width="585"/>
  <unicode hex="012B"/>
  <anchor x="0" y="0" name="Anchor-11"/>
  <anchor x="0" y="0" name="Anchor-10"/>
  <anchor x="475" y="1475" name="Anchor-9"/>
  <anchor x="412" y="20" name="Anchor-8"/>
  <anchor x="162" y="0" name="Anchor-7"/>
  <outline>
    <contour>
      <point x="123" y="1243" type="line"/>
      <point x="172" y="1475" type="line"/>
      <point x="778" y="1475" type="line"/>
      <point x="729" y="1243" type="line"/>
    </contour>
    <contour>
      <point x="197" y="1077" type="line"/>
      <point x="586" y="1077" type="line"/>
      <point x="356" y="0" type="line"/>
      <point x="-33" y="0" type="line"/>
    </contour>
  </outline>
</glyph>
<glyph name="Ibreve" format="2">
  <advance width="649"/>
  <unicode hex="012C"/>
  <anchor x="0" y="0" name="Anchor-11"/>
  <anchor x="0" y="0" name="Anchor-10"/>
  <anchor x="608" y="1872" name="Anchor-9"/>
  <anchor x="393" y="0" name="Anchor-8"/>
  <anchor x="211" y="0" name="Anchor-7"/>
  <outline>
    <contour>
      <point x="725" y="1872" type="qcurve"/>
      <point x="926" y="1872" type="line"/>
      <point x="895" y="1726"/>
      <point x="678" y="1540"/>
      <point x="537" y="1540" type="qcurve" smooth="yes"/>
      <point x="416" y="1540"/>
      <point x="276" y="1675"/>
      <point x="276" y="1788" type="qcurve" smooth="yes"/>
      <point x="276" y="1819"/>
      <point x="287" y="1872" type="qcurve"/>
      <point x="487" y="1872" type="line"/>
      <point x="481" y="1848"/>
      <point x="481" y="1825" type="qcurve" smooth="yes"/>
      <point x="481" y="1774"/>
      <point x="532" y="1706"/>
      <point x="571" y="1706" type="qcurve" smooth="yes"/>
      <point x="615" y="1706"/>
      <point x="703" y="1800"/>
    </contour>
    <contour>
      <point x="303" y="1454" type="line"/>
      <point x="702" y="1454" type="line"/>
      <point x="393" y="0" type="line"/>
      <point x="-6" y="0" type="line"/>
    </contour>
  </outline>
</glyph>
<glyph name="ibreve" format="2">
  <advance width="585"/>
  <unicode hex="012D"/>
  <anchor x="0" y="0" name="Anchor-11"/>
  <anchor x="0" y="0" name="Anchor-10"/>
  <anchor x="479" y="1495" name="Anchor-9"/>
  <anchor x="412" y="20" name="Anchor-8"/>
  <anchor x="162" y="0" name="Anchor-7"/>
  <outline>
    <contour>
      <point x="596" y="1495" type="qcurve"/>
      <point x="797" y="1495" type="line"/>
      <point x="766" y="1349"/>
      <point x="549" y="1163"/>
      <point x="408" y="1163" type="qcurve" smooth="yes"/>
      <point x="287" y="1163"/>
      <point x="147" y="1298"/>
      <point x="147" y="1411" type="qcurve" smooth="yes"/>
      <point x="147" y="1442"/>
      <point x="158" y="1495" type="qcurve"/>
      <point x="358" y="1495" type="line"/>
      <point x="352" y="1471"/>
      <point x="352" y="1448" type="qcurve" smooth="yes"/>
      <point x="352" y="1397"/>
      <point x="403" y="1329"/>
      <point x="442" y="1329" type="qcurve" smooth="yes"/>
      <point x="486" y="1329"/>
      <point x="574" y="1423"/>
    </contour>
    <contour>
      <point x="197" y="1077" type="line"/>
      <point x="586" y="1077" type="line"/>
      <point x="356" y="0" type="line"/>
      <point x="-33" y="0" type="line"/>
    </contour>
  </outline>
</glyph>
<glyph name="Iogonek" format="2">
  <advance width="649"/>
  <unicode hex="012E"/>
  <anchor x="0" y="0" name="Anchor-11"/>
  <anchor x="0" y="0" name="Anchor-10"/>
  <anchor x="520" y="1454" name="Anchor-9"/>
  <anchor x="393" y="0" name="Anchor-8"/>
  <anchor x="211" y="0" name="Anchor-7"/>
  <outline>
    <contour>
      <point x="393" y="0" type="line"/>
      <point x="240" y="-98"/>
      <point x="240" y="-170" type="qcurve" smooth="yes"/>
      <point x="240" y="-236"/>
      <point x="332" y="-236" type="qcurve"/>
      <point x="215" y="-440" type="line"/>
      <point x="110" y="-423"/>
      <point x="-12" y="-323"/>
      <point x="-12" y="-258" type="qcurve" smooth="yes"/>
      <point x="-12" y="-195"/>
      <point x="85" y="-59"/>
      <point x="174" y="0" type="qcurve"/>
      <point x="-6" y="0" type="line"/>
      <point x="303" y="1454" type="line"/>
      <point x="702" y="1454" type="line"/>
    </contour>
  </outline>
</glyph>
<glyph name="iogonek" format="2">
  <advance width="585"/>
  <unicode hex="012F"/>
  <anchor x="0" y="0" name="Anchor-11"/>
  <anchor x="0" y="0" name="Anchor-10"/>
  <anchor x="0" y="0" name="Anchor-9"/>
  <anchor x="356" y="0" name="Anchor-8"/>
  <anchor x="178" y="0" name="Anchor-7"/>
  <outline>
    <contour>
      <point x="285" y="1495" type="line"/>
      <point x="674" y="1495" type="line"/>
      <point x="604" y="1167" type="line"/>
      <point x="215" y="1167" type="line"/>
    </contour>
    <contour>
      <point x="-33" y="0" type="line"/>
      <point x="197" y="1077" type="line"/>
      <point x="586" y="1077" type="line"/>
      <point x="356" y="0" type="line"/>
      <point x="203" y="-98"/>
      <point x="203" y="-170" type="qcurve" smooth="yes"/>
      <point x="203" y="-236"/>
      <point x="295" y="-236" type="qcurve"/>
      <point x="178" y="-440" type="line"/>
      <point x="73" y="-423"/>
      <point x="-49" y="-323"/>
      <point x="-49" y="-258" type="qcurve" smooth="yes"/>
      <point x="-49" y="-195"/>
      <point x="48" y="-59"/>
      <point x="137" y="0" type="qcurve"/>
    </contour>
  </outline>
</glyph>
<glyph name="Idotaccent" format="2">
  <advance width="649"/>
  <unicode hex="0130"/>
  <anchor x="0" y="0" name="Anchor-11"/>
  <anchor x="0" y="0" name="Anchor-10"/>
  <anchor x="608" y="1872" name="Anchor-9"/>
  <anchor x="393" y="0" name="Anchor-8"/>
  <anchor x="211" y="0" name="Anchor-7"/>
  <outline>
    <contour>
      <point x="369" y="1565" type="line"/>
      <point x="434" y="1872" type="line"/>
      <point x="782" y="1872" type="line"/>
      <point x="717" y="1565" type="line"/>
    </contour>
    <contour>
      <point x="303" y="1454" type="line"/>
      <point x="702" y="1454" type="line"/>
      <point x="393" y="0" type="line"/>
      <point x="-6" y="0" type="line"/>
    </contour>
  </outline>
</glyph>
<glyph name="dotlessi" format="2">
  <advance width="585"/>
  <unicode hex="0131"/>
  <anchor x="0" y="0" name="Anchor-11"/>
  <anchor x="0" y="0" name="Anchor-10"/>
  <anchor x="391" y="1077" name="Anchor-9"/>
  <anchor x="412" y="20" name="Anchor-8"/>
  <anchor x="162" y="0" name="Anchor-7"/>
  <outline>
    <contour>
      <point x="197" y="1077" type="line"/>
      <point x="586" y="1077" type="line"/>
      <point x="356" y="0" type="line"/>
      <point x="-33" y="0" type="line"/>
    </contour>
  </outline>
</glyph>
<glyph name="Jcircumflex" format="2">
  <advance width="999"/>
  <unicode hex="0134"/>
  <anchor x="0" y="0" name="Anchor-11"/>
  <anchor x="0" y="0" name="Anchor-10"/>
  <anchor x="940" y="1868" name="Anchor-9"/>
  <anchor x="0" y="0" name="Anchor-8"/>
  <anchor x="0" y="0" name="Anchor-7"/>
  <outline>
    <contour>
      <point x="545" y="1632" type="line"/>
      <point x="817" y="1868" type="line"/>
      <point x="1096" y="1868" type="line"/>
      <point x="1268" y="1632" type="line"/>
      <point x="1053" y="1546" type="line"/>
      <point x="915" y="1675" type="line"/>
      <point x="723" y="1546" type="line"/>
    </contour>
    <contour>
      <point x="-98" y="68" type="qcurve"/>
      <point x="53" y="393" type="line"/>
      <point x="60" y="385"/>
      <point x="110" y="358"/>
      <point x="208" y="332"/>
      <point x="258" y="332" type="qcurve" smooth="yes"/>
      <point x="367" y="332"/>
      <point x="465" y="494"/>
      <point x="512" y="715" type="qcurve" smooth="yes"/>
      <point x="670" y="1454" type="line"/>
      <point x="1069" y="1454" type="line"/>
      <point x="911" y="715" type="line" smooth="yes"/>
      <point x="889" y="611"/>
      <point x="846" y="457"/>
      <point x="783" y="295"/>
      <point x="707" y="181"/>
      <point x="600" y="77"/>
      <point x="467" y="14"/>
      <point x="290" y="-23"/>
      <point x="182" y="-23" type="qcurve" smooth="yes"/>
      <point x="10" y="-23"/>
    </contour>
  </outline>
</glyph>
<glyph name="Kcedilla" format="2">
  <advance width="1361"/>
  <unicode hex="0136"/>
  <anchor x="0" y="0" name="Anchor-11"/>
  <anchor x="0" y="0" name="Anchor-10"/>
  <anchor x="0" y="0" name="Anchor-9"/>
  <anchor x="0" y="0" name="Anchor-8"/>
  <anchor x="571" y="0" name="Anchor-7"/>
  <outline>
    <contour>
      <point x="303" y="1454" type="line"/>
      <point x="702" y="1454" type="line"/>
      <point x="586" y="901" type="line"/>
      <point x="1094" y="1454" type="line"/>
      <point x="1546" y="1454" type="line"/>
      <point x="909" y="803" type="line"/>
      <point x="1272" y="0" type="line"/>
      <point x="811" y="0" type="line"/>
      <point x="598" y="535" type="line"/>
      <point x="483" y="420" type="line"/>
      <point x="393" y="0" type="line"/>
      <point x="-6" y="0" type="line"/>
    </contour>
    <contour>
      <point x="356" y="-436" type="line"/>
      <point x="457" y="-311" type="line"/>
      <point x="340" y="-311" type="line"/>
      <point x="387" y="-94" type="line"/>
      <point x="707" y="-94" type="line"/>
      <point x="662" y="-311" type="line"/>
      <point x="524" y="-436" type="line"/>
    </contour>
  </outline>
</glyph>
<glyph name="kcedilla" format="2">
  <advance width="1191"/>
  <unicode hex="0137"/>
  <anchor x="0" y="0" name="Anchor-11"/>
  <anchor x="0" y="0" name="Anchor-10"/>
  <anchor x="0" y="0" name="Anchor-9"/>
  <anchor x="0" y="0" name="Anchor-8"/>
  <anchor x="485" y="0" name="Anchor-7"/>
  <outline>
    <contour>
      <point x="1151" y="834" type="qcurve" smooth="yes"/>
      <point x="1151" y="698"/>
      <point x="1011" y="464"/>
      <point x="885" y="387" type="qcurve"/>
      <point x="1042" y="0" type="line"/>
      <point x="633" y="0" type="line"/>
      <point x="481" y="440" type="line"/>
      <point x="629" y="466"/>
      <point x="803" y="586"/>
      <point x="803" y="664" type="qcurve" smooth="yes"/>
      <point x="803" y="704"/>
      <point x="753" y="756"/>
      <point x="715" y="756" type="qcurve" smooth="yes"/>
      <point x="648" y="756"/>
      <point x="502" y="608"/>
      <point x="459" y="500" type="qcurve"/>
      <point x="352" y="0" type="line"/>
      <point x="-33" y="0" type="line"/>
      <point x="285" y="1495" type="line"/>
      <point x="670" y="1495" type="line"/>
      <point x="526" y="817" type="line"/>
      <point x="601" y="949"/>
      <point x="800" y="1087"/>
      <point x="915" y="1087" type="qcurve" smooth="yes"/>
      <point x="1028" y="1087"/>
      <point x="1151" y="955"/>
    </contour>
    <contour>
      <point x="254" y="-311" type="line"/>
      <point x="301" y="-94" type="line"/>
      <point x="621" y="-94" type="line"/>
      <point x="575" y="-311" type="line"/>
      <point x="438" y="-436" type="line"/>
      <point x="270" y="-436" type="line"/>
      <point x="371" y="-311" type="line"/>
    </contour>
  </outline>
</glyph>
<glyph name="kgreenlandic" format="2">
  <advance width="1155"/>
  <unicode hex="0138"/>
  <outline>
    <contour>
      <point x="197" y="1077" type="line"/>
      <point x="586" y="1077" type="line"/>
      <point x="500" y="678" type="line"/>
      <point x="834" y="1077" type="line"/>
      <point x="1241" y="1077" type="line"/>
      <point x="795" y="606" type="line"/>
      <point x="1051" y="0" type="line"/>
      <point x="639" y="0" type="line"/>
      <point x="502" y="393" type="line"/>
      <point x="422" y="307" type="line"/>
      <point x="356" y="0" type="line"/>
      <point x="-33" y="0" type="line"/>
    </contour>
  </outline>
</glyph>
<glyph name="Lacute" format="2">
  <advance width="1155"/>
  <unicode hex="0139"/>
  <anchor x="899" y="1077" name="Anchor-11"/>
  <anchor x="618" y="727" name="Anchor-10"/>
  <anchor x="649" y="1880" name="Anchor-9"/>
  <anchor x="0" y="0" name="Anchor-8"/>
  <anchor x="500" y="0" name="Anchor-7"/>
  <outline>
    <contour>
      <point x="639" y="1565" type="line"/>
      <point x="377" y="1589" type="line"/>
      <point x="535" y="1880" type="line"/>
      <point x="879" y="1880" type="line"/>
    </contour>
    <contour>
      <point x="303" y="1454" type="line"/>
      <point x="702" y="1454" type="line"/>
      <point x="467" y="348" type="line"/>
      <point x="1079" y="348" type="line"/>
      <point x="1006" y="0" type="line"/>
      <point x="-6" y="0" type="line"/>
    </contour>
  </outline>
</glyph>
<glyph name="lacute" format="2">
  <advance width="706"/>
  <unicode hex="013A"/>
  <anchor x="756" y="1077" name="Anchor-11"/>
  <anchor x="354" y="539" name="Anchor-10"/>
  <anchor x="621" y="1921" name="Anchor-9"/>
  <anchor x="0" y="0" name="Anchor-8"/>
  <anchor x="274" y="0" name="Anchor-7"/>
  <outline>
    <contour>
      <point x="610" y="1606" type="line"/>
      <point x="348" y="1630" type="line"/>
      <point x="506" y="1921" type="line"/>
      <point x="850" y="1921" type="line"/>
    </contour>
    <contour>
      <point x="10" y="199" type="qcurve" smooth="yes"/>
      <point x="10" y="250"/>
      <point x="20" y="291" type="qcurve" smooth="yes"/>
      <point x="276" y="1495" type="line"/>
      <point x="666" y="1495" type="line"/>
      <point x="438" y="428" type="line" smooth="yes"/>
      <point x="432" y="404"/>
      <point x="432" y="383" type="qcurve" smooth="yes"/>
      <point x="432" y="305"/>
      <point x="506" y="305" type="qcurve" smooth="yes"/>
      <point x="552" y="305"/>
      <point x="612" y="336" type="qcurve"/>
      <point x="600" y="49" type="line"/>
      <point x="528" y="17"/>
      <point x="346" y="-20"/>
      <point x="270" y="-20" type="qcurve" smooth="yes"/>
      <point x="143" y="-20"/>
      <point x="10" y="93"/>
    </contour>
  </outline>
</glyph>
<glyph name="Lcaron" format="2">
  <advance width="1155"/>
  <unicode hex="013D"/>
  <anchor x="899" y="1077" name="Anchor-11"/>
  <anchor x="618" y="727" name="Anchor-10"/>
  <anchor x="485" y="1454" name="Anchor-9"/>
  <anchor x="0" y="0" name="Anchor-8"/>
  <anchor x="500" y="0" name="Anchor-7"/>
  <outline>
    <contour>
      <point x="791" y="1204" type="line"/>
      <point x="948" y="1495" type="line"/>
      <point x="1292" y="1495" type="line"/>
      <point x="1022" y="1139" type="line"/>
    </contour>
    <contour>
      <point x="303" y="1454" type="line"/>
      <point x="702" y="1454" type="line"/>
      <point x="467" y="348" type="line"/>
      <point x="1079" y="348" type="line"/>
      <point x="1006" y="0" type="line"/>
      <point x="-6" y="0" type="line"/>
    </contour>
  </outline>
</glyph>
<glyph name="Ldot" format="2">
  <advance width="1157"/>
  <unicode hex="013F"/>
  <anchor x="899" y="1077" name="Anchor-11"/>
  <anchor x="618" y="727" name="Anchor-10"/>
  <anchor x="485" y="1454" name="Anchor-9"/>
  <anchor x="0" y="0" name="Anchor-8"/>
  <anchor x="500" y="0" name="Anchor-7"/>
  <outline>
    <contour>
      <point x="303" y="1454" type="line"/>
      <point x="702" y="1454" type="line"/>
      <point x="467" y="348" type="line"/>
      <point x="1079" y="348" type="line"/>
      <point x="1006" y="0" type="line"/>
      <point x="-6" y="0" type="line"/>
    </contour>
    <contour>
      <point x="711" y="688" type="line"/>
      <point x="791" y="1065" type="line"/>
      <point x="1106" y="1065" type="line"/>
      <point x="1026" y="688" type="line"/>
    </contour>
  </outline>
</glyph>
<glyph name="ldot" format="2">
  <advance width="972"/>
  <unicode hex="0140"/>
  <anchor x="756" y="1077" name="Anchor-11"/>
  <anchor x="354" y="539" name="Anchor-10"/>
  <anchor x="457" y="1495" name="Anchor-9"/>
  <anchor x="0" y="0" name="Anchor-8"/>
  <anchor x="274" y="0" name="Anchor-7"/>
  <outline>
    <contour>
      <point x="10" y="199" type="qcurve" smooth="yes"/>
      <point x="10" y="250"/>
      <point x="20" y="291" type="qcurve" smooth="yes"/>
      <point x="276" y="1495" type="line"/>
      <point x="666" y="1495" type="line"/>
      <point x="438" y="428" type="line" smooth="yes"/>
      <point x="432" y="404"/>
      <point x="432" y="383" type="qcurve" smooth="yes"/>
      <point x="432" y="305"/>
      <point x="506" y="305" type="qcurve" smooth="yes"/>
      <point x="552" y="305"/>
      <point x="612" y="336" type="qcurve"/>
      <point x="600" y="49" type="line"/>
      <point x="528" y="17"/>
      <point x="346" y="-20"/>
      <point x="270" y="-20" type="qcurve" smooth="yes"/>
      <point x="143" y="-20"/>
      <point x="10" y="93"/>
    </contour>
    <contour>
      <point x="610" y="537" type="line"/>
      <point x="690" y="913" type="line"/>
      <point x="1006" y="913" type="line"/>
      <point x="926" y="537" type="line"/>
    </contour>
  </outline>
</glyph>
<glyph name="Lslash" format="2">
  <advance width="1173"/>
  <unicode hex="0141"/>
  <anchor x="899" y="1077" name="Anchor-11"/>
  <anchor x="618" y="727" name="Anchor-10"/>
  <anchor x="485" y="1454" name="Anchor-9"/>
  <anchor x="0" y="0" name="Anchor-8"/>
  <anchor x="500" y="0" name="Anchor-7"/>
  <outline>
    <contour>
      <point x="467" y="348" type="line"/>
      <point x="1079" y="348" type="line"/>
      <point x="1006" y="0" type="line"/>
      <point x="-6" y="0" type="line"/>
      <point x="111" y="551" type="line"/>
      <point x="35" y="516" type="line"/>
      <point x="-8" y="723" type="line"/>
      <point x="164" y="803" type="line"/>
      <point x="303" y="1454" type="line"/>
      <point x="702" y="1454" type="line"/>
      <point x="606" y="1006" type="line"/>
      <point x="768" y="1079" type="line"/>
      <point x="811" y="872" type="line"/>
      <point x="553" y="754" type="line"/>
    </contour>
  </outline>
</glyph>
<glyph name="lslash" format="2">
  <advance width="806"/>
  <unicode hex="0142"/>
  <outline>
    <contour>
      <point x="530" y="383" type="qcurve" smooth="yes"/>
      <point x="530" y="305"/>
      <point x="604" y="305" type="qcurve" smooth="yes"/>
      <point x="651" y="305"/>
      <point x="711" y="336" type="qcurve"/>
      <point x="698" y="49" type="line"/>
      <point x="624" y="17"/>
      <point x="445" y="-20"/>
      <point x="369" y="-20" type="qcurve" smooth="yes"/>
      <point x="242" y="-20"/>
      <point x="109" y="93"/>
      <point x="109" y="199" type="qcurve" smooth="yes"/>
      <point x="109" y="250"/>
      <point x="119" y="291" type="qcurve" smooth="yes"/>
      <point x="178" y="573" type="line"/>
      <point x="51" y="516" type="line"/>
      <point x="8" y="723" type="line"/>
      <point x="231" y="825" type="line"/>
      <point x="375" y="1495" type="line"/>
      <point x="764" y="1495" type="line"/>
      <point x="664" y="1020" type="line"/>
      <point x="795" y="1079" type="line"/>
      <point x="838" y="872" type="line"/>
      <point x="608" y="768" type="line"/>
      <point x="537" y="428" type="line" smooth="yes"/>
      <point x="530" y="400"/>
    </contour>
  </outline>
</glyph>
